<svg width="0" height="0" class="hidden">
  <symbol fill="none" xmlns="http://www.w3.org/2000/svg" viewBox="0 0 150 150" id="loader">
    <path d="M25.687 122.292l1.567 2.946h-1.567v-2.946z" fill="#EC1C24"></path>
    <path d="M25.687 121.925l1.761 3.313h-.194l-1.567-2.946v-.367z" fill="#EC1C24"></path>
    <path d="M25.687 121.559l1.956 3.679h-.195l-1.761-3.313v-.366" fill="#EC1C24"></path>
    <path d="M25.687 121.192l2.151 4.046h-.195l-1.956-3.679v-.367" fill="#EC1C24"></path>
    <path d="M25.687 120.826l2.346 4.412h-.195l-2.151-4.046v-.366z" fill="#EC1C24"></path>
    <path d="M25.687 120.459l2.541 4.779h-.195l-2.346-4.412v-.367z" fill="#EC1C24"></path>
    <path d="M25.687 120.093l2.736 5.145h-.195l-2.541-4.779v-.366z" fill="#EC1C24"></path>
    <path d="M25.687 119.726l2.93 5.512h-.194l-2.736-5.145v-.367m0-.366l3.126 5.878h-.195l-2.931-5.512v-.366z" fill="#EC1D24"></path>
    <path d="M25.687 118.993l3.32 6.245h-.194l-3.126-5.878v-.367z" fill="#EC1D24"></path>
    <path d="M25.687 118.627l3.515 6.611h-.195l-3.32-6.245v-.366" fill="#EC1D24"></path>
    <path d="M25.687 118.26l3.71 6.978h-.195l-3.515-6.611v-.367" fill="#EC1D24"></path>
    <path d="M25.687 117.894l3.905 7.344h-.195l-3.71-6.978v-.366z" fill="#EC1E24"></path>
    <path d="M25.687 117.527l4.1 7.711h-.195l-3.905-7.344v-.367z" fill="#EC1E24"></path>
    <path d="M25.687 117.161l4.295 8.077h-.195l-4.1-7.711v-.366z" fill="#EC1E24"></path>
    <path d="M25.687 116.795l4.49 8.443h-.195l-4.295-8.077v-.366" fill="#EC1F24"></path>
    <path d="M25.687 116.428l4.685 8.81h-.195l-4.49-8.443v-.367z" fill="#EC1F24"></path>
    <path d="M25.687 116.061l4.88 9.177h-.195l-4.685-8.81v-.367z" fill="#EC1F24"></path>
    <path d="M25.687 115.695l5.074 9.543h-.194l-4.88-9.177v-.366" fill="#EC2024"></path>
    <path d="M25.687 115.329l5.27 9.909h-.196l-5.074-9.543v-.366zm0-.367l5.464 10.276h-.195l-5.269-9.909v-.367z" fill="#EC2024"></path>
    <path d="M25.687 114.596l5.66 10.642h-.196l-5.464-10.276v-.366z" fill="#ED2124"></path>
    <path d="M25.687 114.229l5.854 11.009h-.195l-5.659-10.642v-.367" fill="#ED2124"></path>
    <path d="M25.687 113.863l6.049 11.375h-.195l-5.854-11.009v-.366z" fill="#ED2124"></path>
    <path d="M25.687 113.783l.119-.063 6.125 11.518h-.195l-6.049-11.375v-.08zm.119-.063l.152-.081 6.168 11.599h-.195l-6.125-11.518z" fill="#ED2224"></path>
    <path d="M25.958 113.639l.152-.081 6.21 11.68h-.194l-6.168-11.599" fill="#ED2324"></path>
    <path d="M26.11 113.558l.152-.081 6.253 11.761h-.195l-6.21-11.68" fill="#ED2324"></path>
    <path d="M26.262 113.477l.151-.08 6.297 11.841h-.195l-6.253-11.761zm.152-.08l.151-.081 6.34 11.922h-.195l-6.296-11.841" fill="#ED2424"></path>
    <path d="M26.565 113.316l.152-.081 6.383 12.003h-.195l-6.34-11.922z" fill="#ED2524"></path>
    <path d="M26.717 113.235l.152-.081 6.426 12.084H33.1l-6.383-12.003z" fill="#ED2524"></path>
    <path d="M26.87 113.154l.151-.081 6.469 12.165h-.195l-6.426-12.084z" fill="#ED2624"></path>
    <path d="M27.021 113.073l.152-.08 6.512 12.245h-.195l-6.469-12.165z" fill="#ED2624"></path>
    <path d="M27.173 112.993l.152-.081 6.554 12.326h-.194l-6.512-12.245z" fill="#ED2724"></path>
    <path d="M27.325 112.912l.152-.081 6.597 12.407h-.194l-6.555-12.326z" fill="#ED2724"></path>
    <path d="M27.477 112.831l.152-.081 6.64 12.488h-.195l-6.597-12.407z" fill="#ED2824"></path>
    <path d="M27.629 112.75l.152-.08 6.683 12.568h-.195l-6.64-12.488" fill="#ED2824"></path>
    <path d="M27.78 112.67l.153-.081 6.726 12.649h-.195l-6.683-12.568z" fill="#ED2924"></path>
    <path d="M27.933 112.589l.152-.081 6.769 12.73h-.195l-6.726-12.649z" fill="#ED2A24"></path>
    <path d="M28.085 112.508l.152-.081 6.812 12.811h-.195l-6.77-12.73z" fill="#EE2A24"></path>
    <path d="M28.237 112.427l.152-.081 6.855 12.892h-.195l-6.812-12.811" fill="#EE2B24"></path>
    <path d="M28.389 112.346l.152-.08 6.897 12.972h-.194l-6.855-12.892z" fill="#EE2B24"></path>
    <path d="M28.54 112.266l.152-.081 6.941 13.053h-.195l-6.898-12.972" fill="#EE2C24"></path>
    <path d="M28.692 112.185l.152-.081 6.984 13.134h-.195l-6.94-13.053" fill="#EE2D24"></path>
    <path d="M28.844 112.104l.152-.081 7.027 13.215h-.195l-6.984-13.134" fill="#EE2D24"></path>
    <path d="M28.996 112.023l.152-.081 7.07 13.296h-.195l-7.027-13.215z" fill="#EE2E24"></path>
    <path d="M29.148 111.942l.152-.08 7.113 13.376h-.195l-7.07-13.296" fill="#EE2F24"></path>
    <path d="M29.3 111.862l.152-.081 7.156 13.457h-.195L29.3 111.862z" fill="#EE2F24"></path>
    <path d="M29.452 111.781l.152-.081 7.199 13.538h-.195l-7.156-13.457" fill="#EE3024"></path>
    <path d="M29.604 111.7l.152-.081 7.242 13.619h-.195l-7.2-13.538" fill="#EE3124"></path>
    <path d="M29.756 111.619l.152-.08 7.284 13.699h-.194l-7.242-13.619z" fill="#EE3224"></path>
    <path d="M29.908 111.539l.152-.081 7.327 13.78h-.195l-7.284-13.699z" fill="#EE3225"></path>
    <path d="M30.06 111.458l.152-.081 7.37 13.861h-.195l-7.327-13.78" fill="#EF3325"></path>
    <path d="M30.212 111.377l.151-.081 7.414 13.942h-.195l-7.37-13.861z" fill="#EF3425"></path>
    <path d="M30.363 111.296l.152-.081 7.457 14.023h-.195l-7.414-13.942z" fill="#EF3525"></path>
    <path d="M30.515 111.215l.152-.08 7.5 14.103h-.195l-7.457-14.023z" fill="#EF3525"></path>
    <path d="M30.667 111.135l.152-.081 7.543 14.184h-.195l-7.5-14.103" fill="#EF3625"></path>
    <path d="M30.82 111.054l.151-.081 7.586 14.265h-.195l-7.543-14.184z" fill="#EF3725"></path>
    <path d="M30.971 110.973l.152-.081 7.628 14.346h-.194l-7.586-14.265" fill="#EF3825"></path>
    <path d="M31.123 110.892l.152-.081 7.671 14.427h-.195l-7.628-14.346z" fill="#EF3925"></path>
    <path d="M31.275 110.811l.152-.08 7.714 14.507h-.195l-7.671-14.427z" fill="#EF3925"></path>
    <path d="M31.427 110.731l.152-.081 7.757 14.588h-.195l-7.714-14.507z" fill="#EF3A25"></path>
    <path d="M31.579 110.65l.152-.081 7.8 14.669h-.195l-7.757-14.588" fill="#EF3B25"></path>
    <path d="M31.73 110.569l.153-.081 7.843 14.75h-.195l-7.8-14.669z" fill="#EF3C25"></path>
    <path d="M31.883 110.488l.152-.08 7.886 14.83h-.195l-7.843-14.75z" fill="#F03D25"></path>
    <path d="M32.035 110.408l.152-.081 7.929 14.911h-.195l-7.886-14.83z" fill="#F03E25"></path>
    <path d="M32.187 110.327l.152-.081 7.972 14.992h-.195l-7.93-14.911z" fill="#F03E25"></path>
    <path d="M32.338 110.246l.152-.081 8.015 15.073h-.194l-7.973-14.992" fill="#F03F25"></path>
    <path d="M32.49 110.165l.152-.081 8.058 15.154h-.195l-8.015-15.073" fill="#F04025"></path>
    <path d="M32.642 110.084l.152-.08 8.101 15.234H40.7l-8.058-15.154z" fill="#F04125"></path>
    <path d="M32.794 110.004l.152-.081 8.144 15.315h-.195l-8.1-15.234z" fill="#F04225"></path>
    <path d="M32.946 109.923l.152-.081 8.187 15.396h-.195l-8.144-15.315z" fill="#F04325"></path>
    <path d="M33.098 109.842l.152-.081 8.23 15.477h-.195l-8.187-15.396z" fill="#F04425"></path>
    <path d="M33.25 109.761l.152-.081 8.273 15.558h-.195l-8.23-15.477" fill="#F04525"></path>
    <path d="M33.402 109.68l.152-.08 8.316 15.638h-.195l-8.273-15.558z" fill="#F14625"></path>
    <path d="M33.554 109.6l.152-.081 8.358 15.719h-.194L33.553 109.6" fill="#F14725"></path>
    <path d="M33.706 109.519l.152-.081 8.401 15.8h-.194l-8.36-15.719" fill="#F14825"></path>
    <path d="M33.858 109.438l.152-.081 8.444 15.881h-.195l-8.401-15.8" fill="#F14925"></path>
    <path d="M34.01 109.357l.151-.08 8.488 15.961h-.195l-8.444-15.881" fill="#F14A25"></path>
    <path d="M34.161 109.277l.152-.081 8.53 16.042h-.194l-8.488-15.961z" fill="#F14B25"></path>
    <path d="M34.313 109.196l.152-.081 8.574 16.123h-.195l-8.53-16.042z" fill="#F14C25"></path>
    <path d="M34.465 109.115l.152-.081 8.617 16.204h-.195l-8.574-16.123z" fill="#F14D25"></path>
    <path d="M34.617 109.034l.152-.081 8.66 16.285h-.195l-8.617-16.204" fill="#F14E25"></path>
    <path d="M34.77 108.953l.151-.08 8.702 16.365h-.195l-8.659-16.285z" fill="#F24F25"></path>
    <path d="M34.921 108.873l.152-.081 8.745 16.446h-.195l-8.702-16.365z" fill="#F25025"></path>
    <path d="M35.073 108.792l.152-.081 8.788 16.527h-.195l-8.745-16.446z" fill="#F25125"></path>
    <path d="M35.225 108.711l.152-.081 8.831 16.608h-.195l-8.788-16.527z" fill="#F25225"></path>
    <path d="M35.377 108.63l.152-.081 8.832 16.61-.148.079h-.005l-8.831-16.608" fill="#F25325"></path>
    <path d="M35.529 108.549l.152-.08 8.832 16.609-.152.081-8.832-16.61z" fill="#F25425"></path>
    <path d="M35.68 108.469l.153-.081 8.832 16.609-.152.081-8.832-16.609z" fill="#F25525"></path>
    <path d="M35.833 108.388l.151-.081 8.833 16.609-.152.081-8.832-16.609" fill="#F25625"></path>
    <path d="M35.984 108.307l.152-.08 8.832 16.609-.151.08-8.833-16.609" fill="#F25725"></path>
    <path d="M36.136 108.227l.152-.081 8.832 16.609-.151.081-8.833-16.609" fill="#F35825"></path>
    <path d="M36.288 108.146l.152-.081 8.833 16.609-.153.081-8.832-16.609z" fill="#F35925"></path>
    <path d="M36.44 108.065l.152-.081 8.833 16.609-.152.081-8.833-16.609z" fill="#F35A25"></path>
    <path d="M36.592 107.984l.152-.081 8.832 16.609-.151.081-8.833-16.609z" fill="#F35C25"></path>
    <path d="M36.744 107.903l.152-.081 8.832 16.61-.152.08-8.832-16.609z" fill="#F35D25"></path>
    <path d="M36.896 107.822l.152-.08 8.832 16.609-.152.081-8.832-16.61z" fill="#F35E26"></path>
    <path d="M37.048 107.742l.152-.081 8.832 16.609-.152.081-8.832-16.609z" fill="#F35F26"></path>
    <path d="M37.2 107.661l.152-.081 8.832 16.61-.152.08-8.832-16.609z" fill="#F36026"></path>
    <path d="M37.352 107.58l.152-.081 8.832 16.61-.152.081-8.832-16.61" fill="#F46126"></path>
    <path d="M37.504 107.499l.152-.081 8.832 16.61-.152.081-8.832-16.61z" fill="#F46226"></path>
    <path d="M37.656 107.418l.151-.08 8.833 16.609-.152.081-8.832-16.61" fill="#F46426"></path>
    <path d="M37.807 107.338l.152-.081 8.833 16.609-.152.081-8.833-16.609" fill="#F46526"></path>
    <path d="M37.96 107.257l.151-.081 8.833 16.61-.152.08-8.833-16.609z" fill="#F46626"></path>
    <path d="M38.111 107.176l.153-.08 8.831 16.609-.151.081-8.833-16.61z" fill="#F46726"></path>
    <path d="M38.263 107.096l.152-.081 8.832 16.609-.152.081-8.832-16.609" fill="#F46826"></path>
    <path d="M38.415 107.015l.152-.081 8.832 16.609-.152.081-8.832-16.609" fill="#F46A26"></path>
    <path d="M38.567 106.934l.152-.081 8.832 16.609-.152.081-8.832-16.609" fill="#F56B26"></path>
    <path d="M38.72 106.853l.151-.081 8.832 16.609-.152.081-8.832-16.609" fill="#F56C26"></path>
    <path d="M38.871 106.772l.152-.081 8.832 16.61-.152.08-8.832-16.609" fill="#F56D26"></path>
    <path d="M39.023 106.691l.152-.08 8.832 16.609-.152.081-8.832-16.61" fill="#F56F26"></path>
    <path d="M39.175 106.611l.152-.081 8.832 16.609-.152.081-8.832-16.609" fill="#F57026"></path>
    <path d="M39.327 106.53l.151-.081 8.833 16.61-.152.08-8.832-16.609" fill="#F57126"></path>
    <path d="M39.478 106.449l.153-.081 8.832 16.609-.152.081-8.833-16.609" fill="#F57226"></path>
    <path d="M39.63 106.368l.153-.081 8.832 16.61-.152.081-8.832-16.61" fill="#F67426"></path>
    <path d="M39.783 106.287l.151-.08 8.833 16.609-.152.081-8.832-16.61z" fill="#F67526"></path>
    <path d="M39.934 106.207l.152-.081 8.832 16.609-.152.081-8.832-16.609z" fill="#F67626"></path>
    <path d="M40.086 106.126l.152-.081 8.833 16.61-.153.08-8.832-16.609z" fill="#F67726"></path>
    <path d="M40.238 106.045l.152-.08 8.832 16.609-.151.081-8.833-16.61z" fill="#F67926"></path>
    <path d="M40.39 105.965l.152-.081 8.832 16.609-.152.081-8.832-16.609z" fill="#F67A26"></path>
    <path d="M40.542 105.884l.152-.081 8.832 16.609-.152.081-8.832-16.609" fill="#F67B26"></path>
    <path d="M40.694 105.803l.152-.081 8.832 16.609-.152.081-8.832-16.609" fill="#F77D26"></path>
    <path d="M40.846 105.722l.152-.081 8.832 16.609-.152.081-8.832-16.609z" fill="#F77E26"></path>
    <path d="M40.998 105.641l.152-.081 8.832 16.61-.152.08-8.832-16.609z" fill="#F77F26"></path>
    <path d="M41.15 105.56l.152-.08 8.832 16.609-.152.081-8.832-16.61z" fill="#F78126"></path>
    <path d="M41.302 105.48l.152-.081 8.832 16.609-.152.081-8.832-16.609" fill="#F78226"></path>
    <path d="M41.454 105.399l.151-.081 8.833 16.61-.152.08-8.832-16.609" fill="#F78426"></path>
    <path d="M41.605 105.318l.152-.081 8.833 16.61-.152.081-8.833-16.61z" fill="#F78526"></path>
    <path d="M41.757 105.237l.152-.081 8.833 16.61-.152.081-8.833-16.61z" fill="#F88626"></path>
    <path d="M41.91 105.156l.151-.08 8.832 16.609-.151.081-8.833-16.61z" fill="#F88826"></path>
    <path d="M42.062 105.076l.151-.081 8.832 16.609-.151.081-8.832-16.609" fill="#F88927"></path>
    <path d="M42.213 104.995l.152-.081 8.832 16.61-.152.08-8.832-16.609" fill="#F88A27"></path>
    <path d="M42.365 104.914l.152-.08 8.832 16.609-.152.081-8.832-16.61" fill="#F88C27"></path>
    <path d="M42.517 104.834l.152-.081 8.832 16.609-.152.081-8.832-16.609" fill="#F88D27"></path>
    <path d="M42.669 104.753l.152-.081 8.832 16.609-.152.081-8.832-16.609" fill="#F98F27"></path>
    <path d="M42.82 104.672l.153-.081 8.832 16.609-.152.081-8.832-16.609" fill="#F99027"></path>
    <path d="M42.973 104.591l.152-.081 8.832 16.609-.152.081-8.832-16.609" fill="#F99227"></path>
    <path d="M43.125 104.51l.152-.081 8.832 16.61-.152.08-8.832-16.609" fill="#F99327"></path>
    <path d="M43.277 104.429l.152-.08 8.832 16.609-.152.081-8.832-16.61z" fill="#F99427"></path>
    <path d="M43.429 104.349l.152-.081 8.832 16.609-.152.081-8.832-16.609z" fill="#F99627"></path>
    <path d="M43.58 104.268l.152-.081 8.832 16.609-.151.081-8.832-16.609z" fill="#F99727"></path>
    <path d="M43.732 104.187l.152-.081 8.832 16.61-.152.081-8.832-16.61z" fill="#FA9927"></path>
    <path d="M43.884 104.106l.152-.081 8.833 16.61-.153.081-8.832-16.61z" fill="#FA9A27"></path>
    <path d="M44.036 104.025l.152-.08 8.832 16.609-.151.081-8.833-16.61z" fill="#FA9C27"></path>
    <path d="M44.188 103.945l.152-.081 8.832 16.609-.151.081-8.833-16.609z" fill="#FA9D27"></path>
    <path d="M44.34 103.864l.152-.081 8.832 16.61-.152.08-8.832-16.609z" fill="#FA9F27"></path>
    <path d="M44.492 103.783l.152-.08 8.832 16.609-.152.081-8.832-16.61" fill="#FAA027"></path>
    <path d="M44.644 103.703l.152-.081 8.832 16.609-.152.081-8.832-16.609" fill="#FBA227"></path>
    <path d="M44.796 103.622l.152-.081 8.832 16.609-.152.081-8.832-16.609" fill="#FBA327"></path>
    <path d="M44.948 103.541l.102-.054h.064l8.818 16.582-.152.081-8.832-16.609" fill="#FBA527"></path>
    <path d="M45.309 103.486l8.775 16.502-.152.081-8.818-16.583h.195z" fill="#FBA627"></path>
    <path d="M45.504 103.487l8.732 16.421-.152.08-8.775-16.501h.195z" fill="#FBA827"></path>
    <path d="M45.699 103.487l8.689 16.34-.152.081-8.732-16.421h.195z" fill="#FBAA27"></path>
    <path d="M45.893 103.487l8.647 16.259-.152.081-8.69-16.34h.195z" fill="#FCAB27"></path>
    <path d="M46.088 103.487l8.603 16.178-.151.081-8.647-16.259h.195z" fill="#FCAD27"></path>
    <path d="M46.283 103.486l8.56 16.098-.152.081-8.603-16.179h.195" fill="#FCAE27"></path>
    <path d="M46.478 103.487l8.517 16.017-.152.081-8.56-16.098h.195z" fill="#FCB027"></path>
    <path d="M46.673 103.487l8.474 15.936-.152.081-8.517-16.017h.195" fill="#FCB127"></path>
    <path d="M46.868 103.487l8.355 15.713v.182l-.076.041-8.474-15.936h.195" fill="#FCB327"></path>
    <path d="M47.062 103.487l8.161 15.346v.367l-8.355-15.713h.194" fill="#FDB528"></path>
    <path d="M47.258 103.487l7.965 14.98v.366l-8.16-15.346h.194z" fill="#FDB628"></path>
    <path d="M47.452 103.487l7.771 14.613v.367l-7.966-14.98h.195z" fill="#FDB828"></path>
    <path d="M47.647 103.487l7.576 14.247v.366l-7.77-14.613h.194" fill="#FDB928"></path>
    <path d="M47.842 103.486l7.381 13.881v.367l-7.576-14.248h.195" fill="#FDBB28"></path>
    <path d="M48.037 103.487l7.186 13.514v.367l-7.38-13.881h.194" fill="#FEBD28"></path>
    <path d="M48.232 103.487l6.991 13.147v.367l-7.186-13.514h.195z" fill="#FEBE28"></path>
    <path d="M48.427 103.487l6.796 12.781v.366l-6.991-13.147h.195z" fill="#FEC028"></path>
    <path d="M48.622 103.487l6.601 12.415v.366l-6.796-12.781h.195z" fill="#FEC228"></path>
    <path d="M48.816 103.487l6.407 12.048v.367l-6.601-12.415h.194" fill="#FEC328"></path>
    <path d="M49.011 103.487l6.212 11.682v.366l-6.407-12.048h.195z" fill="#FEC528"></path>
    <path d="M49.206 103.487l6.017 11.315v.367l-6.212-11.682h.195" fill="#FFC728"></path>
    <path d="M49.4 103.487l5.823 10.949v.366l-6.017-11.315h.195" fill="#FFC828"></path>
    <path d="M49.596 103.487l5.627 10.582v.367l-5.822-10.949h.195" fill="#FFCA28"></path>
    <path d="M55.223 114.069l-5.627-10.582h5.627v10.582z" fill="#FFCA28"></path>
    <path d="M32.902 117.89c.04-.045.078-.091.116-.136l.065.122-.18.014" fill="#F79892"></path>
    <path d="M33.083 117.876l-.065-.122.119-.143.134.253a6.036 6.036 0 00-.188.012" fill="#F79992"></path>
    <path d="M33.271 117.864l-.134-.253.117-.145.207.388-.19.01" fill="#F79992"></path>
    <path d="M33.46 117.853l-.206-.387.117-.147.244.458-.05.072-.104.004z" fill="#F79992"></path>
    <path d="M33.615 117.777l-.244-.458.116-.149.238.447-.11.16z" fill="#F79A92"></path>
    <path d="M33.725 117.617l-.238-.447.115-.151.231.436-.108.162m.108-.163l-.231-.435.113-.153.225.424-.107.164" fill="#F79A92"></path>
    <path d="M33.94 117.29l-.225-.423.113-.155.219.411-.107.167" fill="#F79B92"></path>
    <path d="M34.047 117.123l-.22-.411.113-.157.212.4-.105.168" fill="#F79B92"></path>
    <path d="M34.152 116.955l-.212-.4.11-.158.206.387-.104.171z" fill="#F79C92"></path>
    <path d="M34.256 116.784l-.206-.387.11-.161.2.376a22.36 22.36 0 01-.104.172" fill="#F79C92"></path>
    <path d="M34.36 116.612l-.2-.376.108-.162.194.364-.103.174z" fill="#F79C92"></path>
    <path d="M34.462 116.438l-.194-.364.108-.164.187.352-.101.176m.101-.176l-.187-.352.107-.165.181.34-.1.177" fill="#F79D92"></path>
    <path d="M34.664 116.085l-.181-.34a25.9 25.9 0 00.106-.168l.175.33-.1.178" fill="#F79E92"></path>
    <path d="M34.764 115.906l-.175-.329.105-.169.169.318-.1.18z" fill="#F89E92"></path>
    <path d="M34.863 115.726l-.17-.318.105-.171.163.308-.098.181zm.099-.181l-.164-.308.103-.172.158.298-.097.182zm.098-.181l-.159-.299.103-.173.153.289-.097.183z" fill="#F89F92"></path>
    <path d="M35.157 115.181l-.153-.289.102-.175.148.28-.097.184z" fill="#F8A092"></path>
    <path d="M35.254 114.997l-.148-.28.101-.176.144.271-.097.185z" fill="#F8A092"></path>
    <path d="M35.351 114.812l-.144-.271.1-.177.141.264-.097.184z" fill="#F8A192"></path>
    <path d="M35.448 114.628l-.14-.264.1-.178.137.257-.097.185" fill="#F8A192"></path>
    <path d="M35.545 114.443l-.137-.257.1-.18.133.253a38.21 38.21 0 00-.096.184" fill="#F8A292"></path>
    <path d="M35.642 114.259l-.135-.253.1-.179.131.247-.096.185" fill="#F8A292"></path>
    <path d="M35.738 114.074l-.131-.247.099-.181.13.244-.098.184z" fill="#F8A392"></path>
    <path d="M35.836 113.89l-.13-.244.098-.18.13.241a162.5 162.5 0 00-.098.183" fill="#F8A392"></path>
    <path d="M35.933 113.707l-.129-.241.1-.182.127.241-.098.182" fill="#F8A492"></path>
    <path d="M36.031 113.525l-.128-.24.063-.116.036-.066.128.242-.099.18z" fill="#F8A492"></path>
    <path d="M36.13 113.344l-.128-.241.098-.181.129.243-.1.179" fill="#F8A592"></path>
    <path d="M36.229 113.165l-.129-.243.099-.18.13.245-.1.178" fill="#F8A592"></path>
    <path d="M36.33 112.987l-.131-.246.099-.18.132.249-.1.177z" fill="#F8A692"></path>
    <path d="M36.43 112.81l-.132-.249.1-.18.134.255-.102.174z" fill="#F8A692"></path>
    <path d="M36.532 112.636l-.135-.255.1-.179.139.262-.104.172" fill="#F8A792"></path>
    <path d="M36.636 112.464l-.14-.262.101-.178.143.27-.104.17" fill="#F9A792"></path>
    <path d="M36.74 112.294l-.143-.27.101-.176.148.278-.106.168" fill="#F9A892"></path>
    <path d="M36.846 112.126l-.148-.278.102-.175.153.288-.107.165" fill="#F9A892"></path>
    <path d="M36.953 111.961l-.153-.288.102-.174.16.3-.109.162" fill="#F9A992"></path>
    <path d="M37.062 111.8l-.16-.301.104-.172.166.313a9.616 9.616 0 00-.11.16z" fill="#F9A992"></path>
    <path d="M37.172 111.64l-.166-.313.104-.169.174.326-.112.156" fill="#F9AA92"></path>
    <path d="M37.284 111.484l-.174-.326c.035-.057.07-.113.106-.168l.181.341c-.038.05-.076.101-.113.153" fill="#F9AA92"></path>
    <path d="M37.398 111.331l-.182-.341a6.69 6.69 0 01.107-.165l.19.356a6.164 6.164 0 00-.115.15" fill="#F9AB92"></path>
    <path d="M37.512 111.181l-.189-.357.108-.162.198.372c-.04.048-.078.097-.117.147" fill="#F9AB92"></path>
    <path d="M37.63 111.034l-.199-.372.11-.16.207.388c-.04.048-.08.095-.119.144m.119-.144l-.207-.388.111-.158.216.406-.12.14z" fill="#F9AC92"></path>
    <path d="M37.868 110.75l-.216-.406a9.83 9.83 0 01.113-.154l.225.423a6.279 6.279 0 00-.122.137" fill="#F9AD92"></path>
    <path d="M37.99 110.613l-.225-.423.114-.152.235.441a7.463 7.463 0 00-.124.134" fill="#F9AE92"></path>
    <path d="M38.114 110.479l-.235-.441.116-.149.244.46a6.992 6.992 0 00-.125.13" fill="#F9AE92"></path>
    <path d="M38.24 110.349l-.245-.46.118-.145.254.478a7.247 7.247 0 00-.127.127" fill="#F9AF93"></path>
    <path d="M38.367 110.222l-.254-.478.119-.142.264.496a6.874 6.874 0 00-.13.124" fill="#F9AF93"></path>
    <path d="M38.496 110.098l-.264-.496.121-.139.273.514-.13.121z" fill="#F9B093"></path>
    <path d="M38.626 109.977l-.273-.514c.04-.046.081-.091.123-.136l.283.533-.133.117" fill="#FAB093"></path>
    <path d="M38.76 109.86l-.284-.533.125-.132.292.551-.134.114z" fill="#FAB193"></path>
    <path d="M38.894 109.746l-.293-.551c.04-.043.083-.086.126-.129l.302.569a14.71 14.71 0 00-.136.111z" fill="#FAB293"></path>
    <path d="M39.03 109.635l-.303-.569.128-.125.312.587a6.637 6.637 0 00-.138.107" fill="#FAB293"></path>
    <path d="M39.167 109.528l-.312-.587a8.28 8.28 0 01.13-.122l.321.604-.14.105" fill="#FAB393"></path>
    <path d="M39.306 109.423l-.321-.604c.043-.041.087-.08.132-.119l.33.621-.14.102" fill="#FAB393"></path>
    <path d="M39.447 109.321l-.33-.621.133-.116.34.639a6.89 6.89 0 00-.143.098z" fill="#FAB493"></path>
    <path d="M39.59 109.223l-.34-.639c.044-.038.09-.075.135-.112l.349.655-.145.096" fill="#FAB593"></path>
    <path d="M39.733 109.127l-.348-.655c.045-.037.09-.073.137-.109l.357.672c-.05.03-.097.061-.146.092z" fill="#FAB593"></path>
    <path d="M39.88 109.035l-.358-.672.139-.106.365.688a3.98 3.98 0 00-.147.09m.147-.09l-.365-.688.14-.102.374.703c-.05.028-.1.057-.149.087" fill="#FAB693"></path>
    <path d="M40.175 108.858l-.374-.703.142-.1.382.718-.15.085" fill="#FAB793"></path>
    <path d="M40.325 108.773l-.382-.718.144-.096.39.732-.152.082" fill="#FAB893"></path>
    <path d="M40.476 108.691l-.39-.732c.049-.031.097-.063.146-.093l.397.746-.153.079" fill="#FAB893"></path>
    <path d="M40.629 108.612l-.397-.746c.048-.031.097-.061.147-.091l.404.76-.154.077z" fill="#FAB993"></path>
    <path d="M40.783 108.535l-.404-.76.148-.087.411.773-.155.074" fill="#FBBA93"></path>
    <path d="M40.938 108.461l-.41-.773c.049-.028.099-.057.15-.084l.417.786a8.232 8.232 0 00-.157.071z" fill="#FBBA93"></path>
    <path d="M41.095 108.39l-.418-.786.152-.082.424.798a5.37 5.37 0 00-.158.07zm.158-.07l-.424-.798.152-.079.431.81-.159.067z" fill="#FBBB93"></path>
    <path d="M41.412 108.253l-.43-.81c.05-.026.102-.051.154-.076l.437.822-.16.064" fill="#FBBC93"></path>
    <path d="M41.573 108.189l-.437-.822.156-.074.443.833-.162.063z" fill="#FBBD93"></path>
    <path d="M41.735 108.126l-.443-.833a7.27 7.27 0 01.157-.071l.449.845-.163.059" fill="#FBBD93"></path>
    <path d="M41.898 108.067l-.45-.845.071-.031.088-.037.456.856-.165.057z" fill="#FBBE93"></path>
    <path d="M42.063 108.01l-.456-.856.16-.067.462.869-.166.054m.166-.054l-.462-.869.161-.063.468.881a6.088 6.088 0 00-.167.051" fill="#FBBF93"></path>
    <path d="M42.396 107.905l-.468-.881c.054-.021.109-.041.163-.06l.474.892-.169.049z" fill="#FBC093"></path>
    <path d="M42.565 107.856l-.474-.893.164-.058.481.906a5.593 5.593 0 00-.17.045z" fill="#FBC193"></path>
    <path d="M42.736 107.811l-.481-.906.165-.055.488.918a12.06 12.06 0 00-.172.043m.172-.043l-.488-.918.167-.052.495.931a5.668 5.668 0 00-.174.039" fill="#FBC293"></path>
    <path d="M43.082 107.729l-.495-.931.17-.049.501.944a5.901 5.901 0 00-.176.036z" fill="#FCC393"></path>
    <path d="M43.258 107.693l-.502-.944.17-.046.51.957c-.06.01-.119.021-.178.033" fill="#FCC493"></path>
    <path d="M43.435 107.66l-.509-.957.173-.042.516.97c-.06.009-.12.018-.18.029z" fill="#FCC493"></path>
    <path d="M43.615 107.631l-.516-.97.174-.04.523.984a5.98 5.98 0 00-.181.026" fill="#FCC593"></path>
    <path d="M43.796 107.605l-.523-.984a5.49 5.49 0 01.176-.036l.53.998a3.88 3.88 0 00-.183.022zm.183-.022l-.53-.998.177-.032.538 1.011-.185.019z" fill="#FCC693"></path>
    <path d="M44.164 107.564l-.538-1.011c.06-.011.12-.02.18-.029l.545 1.026-.187.014" fill="#FCC793"></path>
    <path d="M44.351 107.55l-.545-1.026.181-.025.554 1.04a6.044 6.044 0 00-.19.011" fill="#FCC893"></path>
    <path d="M44.54 107.539l-.553-1.04.184-.021.561 1.055a6.157 6.157 0 00-.191.006zm.192-.006l-.56-1.055c.062-.007.123-.012.185-.017l.57 1.07h-.018l-.177.002" fill="#FCC993"></path>
    <path d="M44.994 107.531h-.068l-.57-1.07.19-.013.548 1.034-.1.049" fill="#FCCA93"></path>
    <path d="M45.094 107.482l-.549-1.034.19-.008.516.97a4.36 4.36 0 00-.157.072zm.157-.072l-.515-.97.192-.004.482.906-.129.054-.03.014z" fill="#FCCB93"></path>
    <path d="M45.41 107.342l-.482-.906h.054l.142.001.448.843-.162.062" fill="#FDCC93"></path>
    <path d="M45.572 107.28l-.448-.843.198.006.415.781-.165.056" fill="#FDCD93"></path>
    <path d="M45.737 107.224l-.415-.781c.068.003.134.007.201.012l.382.718a5.603 5.603 0 00-.168.051" fill="#FDCE93"></path>
    <path d="M45.905 107.173l-.382-.718c.068.005.136.01.204.017l.349.656a6.022 6.022 0 00-.171.045z" fill="#FDCE93"></path>
    <path d="M46.076 107.128l-.35-.656c.07.006.14.014.208.022l.316.595a5.71 5.71 0 00-.174.039z" fill="#FDCF93"></path>
    <path d="M46.25 107.09l-.316-.596c.07.009.14.018.21.029l.284.535a3.87 3.87 0 00-.178.032z" fill="#FDD093"></path>
    <path d="M46.428 107.058l-.284-.535c.071.011.143.022.213.035l.253.474a6.03 6.03 0 00-.182.026z" fill="#FDD193"></path>
    <path d="M46.61 107.033l-.253-.475.217.041.221.416c-.061.004-.123.01-.185.018z" fill="#FDD193"></path>
    <path d="M46.795 107.015l-.22-.416.22.049.19.357a4.066 4.066 0 00-.19.01" fill="#FDD293"></path>
    <path d="M46.985 107.005l-.19-.356c.075.017.15.036.225.056l.159.299-.062-.001-.132.002" fill="#FDD393"></path>
    <path d="M47.377 107.011a3.266 3.266 0 00-.198-.007l-.159-.299c.077.02.153.042.23.064l.127.242" fill="#FDD493"></path>
    <path d="M47.581 107.028a4.534 4.534 0 00-.204-.017l-.128-.242.234.073.098.186" fill="#FDD593"></path>
    <path d="M47.79 107.055a3.66 3.66 0 00-.209-.027l-.098-.186c.08.027.16.054.238.082l.07.131" fill="#FED593"></path>
    <path d="M48.006 107.093a3.78 3.78 0 00-.215-.038l-.07-.131c.083.031.164.061.244.093l.04.076" fill="#FED693"></path>
    <path d="M48.227 107.142a5.43 5.43 0 00-.221-.05l-.04-.075c.084.033.167.067.25.103l.011.022z" fill="#FED793"></path>
    <path d="M48.325 107.168l-.098-.026-.012-.022.11.048" fill="#FED893"></path>
    <path d="M31.575 120.191l.007-.007.003.006-.01.001" fill="#B6242E"></path>
    <path d="M31.585 120.19l-.003-.006a7.95 7.95 0 00.128-.125l.063.118-.188.013z" fill="#B6242E"></path>
    <path d="M31.773 120.177l-.063-.118.128-.127.124.233-.19.012" fill="#B6242E"></path>
    <path d="M31.962 120.165l-.125-.233.127-.129.188.353-.19.009z" fill="#B6252E"></path>
    <path d="M32.152 120.156l-.188-.353.125-.132.254.478-.191.007" fill="#B7252E"></path>
    <path d="M32.343 120.149l-.254-.478.124-.133.322.606-.192.005" fill="#B7262E"></path>
    <path d="M32.535 120.144l-.322-.606a8.79 8.79 0 00.123-.135l.392.738-.193.003" fill="#B7262E"></path>
    <path d="M32.728 120.141l-.392-.738a8.39 8.39 0 00.122-.137l.465.875h-.195" fill="#B7272E"></path>
    <path d="M33.12 120.143a12.73 12.73 0 00-.197-.002l-.465-.875.12-.139.541 1.016" fill="#B7272E"></path>
    <path d="M33.317 120.148a12.826 12.826 0 00-.198-.005l-.54-1.016.12-.142.618 1.163" fill="#B7272E"></path>
    <path d="M33.515 120.155a12.944 12.944 0 00-.198-.007l-.619-1.163.119-.143.698 1.313" fill="#B7282E"></path>
    <path d="M33.715 120.165a12.994 12.994 0 00-.2-.01l-.698-1.313.117-.146.781 1.469z" fill="#B7292E"></path>
    <path d="M33.916 120.177a6.67 6.67 0 00-.2-.012l-.782-1.469.117-.148.865 1.629m.204.014l-.204-.014-.865-1.629.115-.15.953 1.793z" fill="#B7292E"></path>
    <path d="M34.323 120.208a13.363 13.363 0 00-.204-.017l-.953-1.793.114-.152 1.043 1.962" fill="#B72A2E"></path>
    <path d="M34.529 120.228l-.206-.02-1.043-1.962a9.83 9.83 0 00.113-.154l1.136 2.136" fill="#B72B2E"></path>
    <path d="M34.736 120.251a13.626 13.626 0 00-.207-.023l-1.136-2.136.111-.156 1.232 2.315" fill="#B72B2F"></path>
    <path d="M34.944 120.276a13.632 13.632 0 00-.209-.025l-1.23-2.315.06-.087.086-.003 1.293 2.43" fill="#B72B2F"></path>
    <path d="M35.154 120.304l-.21-.028-1.293-2.43.192-.006 1.31 2.464z" fill="#B72C2F"></path>
    <path d="M35.365 120.335a14.11 14.11 0 00-.211-.031l-1.31-2.464a1338 1338 0 00.193-.003l1.328 2.498" fill="#B72D2F"></path>
    <path d="M35.578 120.368a143.9 143.9 0 00-.213-.033l-1.328-2.498h.194l1.346 2.531" fill="#B72D2F"></path>
    <path d="M35.792 120.404a157.92 157.92 0 00-.215-.036l-1.346-2.531.197.002.36.677-.067.029.066-.029 1.005 1.888" fill="#B72E2F"></path>
    <path d="M36.007 120.443l-.215-.039-1.005-1.888.16-.067 1.06 1.994zm-1.22-1.927l-.36-.677.198.005.32.601a8.012 8.012 0 01-.158.071z" fill="#B72E2F"></path>
    <path d="M36.224 120.484l-.217-.041-1.06-1.994.16-.064 1.117 2.099zm-1.28-2.039l-.32-.601.2.008.277.521-.157.072z" fill="#B72F2F"></path>
    <path d="M36.442 120.528l-.218-.044-1.117-2.1.162-.062 1.173 2.206zm-1.341-2.156l-.277-.52c.067.002.133.006.2.01l.232.435a4.518 4.518 0 01-.155.075m1.561 2.203l-.22-.047-1.173-2.206.162-.061 1.23 2.314zm-1.406-2.278l-.232-.435c.068.003.135.008.202.013l.184.346-.154.076m1.627 2.327a15.145 15.145 0 00-.221-.049l-1.23-2.314.163-.058 1.288 2.421zm-1.473-2.403l-.184-.346a6.8 6.8 0 01.203.016l.134.251-.153.079" fill="#B7302F"></path>
    <path d="M37.105 120.675l-.222-.051-1.288-2.421.165-.056 1.345 2.528zm-1.542-2.533l-.134-.251c.069.005.137.012.205.018l.08.152-.151.081z" fill="#B7312F"></path>
    <path d="M37.328 120.729a107.06 107.06 0 00-.223-.054l-1.345-2.528a5.73 5.73 0 01.167-.054l1.401 2.636zm-1.614-2.669l-.08-.151.206.022.025.046-.15.083" fill="#B7322F"></path>
    <path d="M37.553 120.785l-.225-.056-1.402-2.636.168-.051 1.459 2.743zm-1.688-2.808l-.025-.046.089.01-.064.036" fill="#B8322F"></path>
    <path d="M37.779 120.843l-.226-.058-1.459-2.743c.056-.017.113-.034.169-.049l1.516 2.85" fill="#B8332F"></path>
    <path d="M38.005 120.902l-.226-.059-1.516-2.85.02-.006.186.027 1.536 2.888" fill="#B8332F"></path>
    <path d="M38.233 120.964a17.336 17.336 0 00-.228-.062l-1.536-2.888.213.033 1.55 2.917z" fill="#B8342F"></path>
    <path d="M38.46 121.027a9.29 9.29 0 00-.227-.063l-1.551-2.917.214.037 1.565 2.943" fill="#B8352F"></path>
    <path d="M38.69 121.09l-.23-.063-1.564-2.943.216.04 1.578 2.966" fill="#B8352F"></path>
    <path d="M38.92 121.156a85.972 85.972 0 00-.23-.066l-1.578-2.966.218.043 1.59 2.989" fill="#B8362F"></path>
    <path d="M39.15 121.222l-.23-.066-1.59-2.989.22.045 1.6 3.01m.23.066a173.61 173.61 0 00-.23-.066l-1.6-3.01.22.049 1.61 3.027z" fill="#B8372F"></path>
    <path d="M39.61 121.354l-.088-.025-.143-.041-1.61-3.027.223.052 1.618 3.041" fill="#B8382F"></path>
    <path d="M39.84 121.421a173.61 173.61 0 00-.23-.066l-1.618-3.042.224.054 1.624 3.054m.23.066l-.23-.066-1.624-3.054.225.057 1.629 3.063" fill="#B9392F"></path>
    <path d="M40.3 121.552l-.23-.065-1.629-3.063.227.06 1.631 3.068" fill="#B93A2F"></path>
    <path d="M40.528 121.616l-.229-.064-1.631-3.068.228.062 1.632 3.07" fill="#B93B2F"></path>
    <path d="M40.757 121.678l-.229-.062-1.632-3.07.229.064 1.632 3.068m.227.061l-.227-.061-1.632-3.068.23.066 1.629 3.063" fill="#B93C2F"></path>
    <path d="M41.21 121.798l-.226-.059-1.63-3.063.232.068 1.623 3.054" fill="#B93D2F"></path>
    <path d="M41.434 121.854l-.225-.056-1.623-3.054.231.07 1.617 3.04" fill="#B93E2F"></path>
    <path d="M41.657 121.907a19.969 19.969 0 01-.223-.053l-1.617-3.04.233.07 1.608 3.023z" fill="#B93E2F"></path>
    <path d="M41.88 121.957a17.246 17.246 0 01-.222-.05l-1.608-3.023.233.072 1.596 3.001z" fill="#BA3F2F"></path>
    <path d="M42.099 122.005l-.22-.048-1.596-3.001.012.004.221.068 1.583 2.977m.218.043l-.218-.043-1.582-2.977.233.073 1.567 2.947" fill="#BA402F"></path>
    <path d="M42.533 122.088a16.359 16.359 0 01-.216-.04l-1.567-2.947.233.072 1.55 2.915z" fill="#BA412F"></path>
    <path d="M42.747 122.124l-.214-.036-1.55-2.915.233.072 1.53 2.879z" fill="#BA422F"></path>
    <path d="M42.959 122.156l-.212-.032-1.531-2.879.233.071 1.51 2.84" fill="#BA422F"></path>
    <path d="M43.168 122.183a7.491 7.491 0 01-.21-.028l-1.51-2.839.233.069 1.487 2.798z" fill="#BA432F"></path>
    <path d="M43.375 122.206a14.59 14.59 0 01-.207-.023l-1.488-2.798.231.068 1.464 2.753" fill="#BA442F"></path>
    <path d="M43.58 122.225l-.204-.018-1.465-2.754.23.066 1.44 2.706m.202.015a6.79 6.79 0 01-.202-.015l-1.44-2.707.229.063 1.413 2.659z" fill="#BA452F"></path>
    <path d="M43.983 122.25a13.424 13.424 0 01-.2-.01l-1.413-2.658.227.06 1.386 2.608z" fill="#BA462F"></path>
    <path d="M44.181 122.256a6.543 6.543 0 01-.198-.006l-1.386-2.608.225.058 1.36 2.556" fill="#BA472F"></path>
    <path d="M44.343 122.257l-.162-.001-1.359-2.556.224.054 1.331 2.503h-.034" fill="#BA482F"></path>
    <path d="M44.377 122.257l-1.331-2.503.221.05 1.303 2.451-.193.002m.193-.003l-1.303-2.45.22.047 1.274 2.396a6.03 6.03 0 01-.19.007z" fill="#BA492F"></path>
    <path d="M44.761 122.247l-1.274-2.396.218.043 1.245 2.342-.189.011" fill="#BA4A2F"></path>
    <path d="M44.95 122.236l-1.245-2.342.215.038 1.217 2.288-.187.016z" fill="#BA4B2F"></path>
    <path d="M45.137 122.22l-1.217-2.288.213.035 1.188 2.233c-.061.008-.123.014-.184.02" fill="#BB4C2F"></path>
    <path d="M45.321 122.201l-1.188-2.234.211.029 1.16 2.181-.183.024" fill="#BB4C2F"></path>
    <path d="M45.504 122.177l-1.16-2.181c.07.01.139.018.209.026l1.13 2.127-.18.028z" fill="#BB4E2F"></path>
    <path d="M45.684 122.149l-1.131-2.127c.068.008.137.015.206.021l1.103 2.075-.178.031z" fill="#BB4E2F"></path>
    <path d="M45.862 122.118l-1.104-2.075.204.017 1.076 2.023-.176.035" fill="#BB4F2F"></path>
    <path d="M46.038 122.083l-1.076-2.023.201.012 1.05 1.972a5.455 5.455 0 01-.175.039" fill="#BB502F"></path>
    <path d="M46.212 122.044l-1.049-1.972c.067.003.133.006.2.007l1.022 1.923a5.612 5.612 0 01-.173.042z" fill="#BB502F"></path>
    <path d="M46.385 122.002l-1.022-1.923c.065.002.13.003.196.003l.997 1.874-.171.046z" fill="#BB522F"></path>
    <path d="M46.556 121.956l-.997-1.873h.05c.048 0 .096 0 .144-.002l.972 1.827c-.057.016-.113.033-.17.048" fill="#BC532F"></path>
    <path d="M46.724 121.908l-.97-1.827a4.1 4.1 0 00.191-.005l.946 1.779-.166.053z" fill="#BC532F"></path>
    <path d="M46.891 121.856l-.946-1.78c.064-.002.127-.006.19-.009l.922 1.733-.166.056z" fill="#BC542F"></path>
    <path d="M47.057 121.8l-.922-1.733.188-.014.898 1.689-.164.058z" fill="#BC552F"></path>
    <path d="M47.221 121.742l-.898-1.689a5.92 5.92 0 00.185-.018l.875 1.646-.162.061" fill="#BC562F"></path>
    <path d="M47.383 121.681l-.875-1.646a5.87 5.87 0 00.184-.021l.852 1.603-.16.064z" fill="#BC572F"></path>
    <path d="M47.544 121.617l-.852-1.603.181-.026.83 1.562-.159.067z" fill="#BC572F"></path>
    <path d="M47.704 121.55l-.831-1.562c.06-.009.12-.018.18-.029l.809 1.522-.119.052-.04.017z" fill="#BC592F"></path>
    <path d="M47.862 121.481l-.81-1.522c.06-.01.119-.021.178-.033l.788 1.483-.156.072z" fill="#BC5A2F"></path>
    <path d="M48.018 121.409l-.788-1.482.176-.037.768 1.444-.156.075" fill="#BC5A2F"></path>
    <path d="M48.174 121.334l-.768-1.444.173-.04.748 1.407a7.08 7.08 0 01-.153.077z" fill="#BC5B2F"></path>
    <path d="M48.327 121.257l-.748-1.407a5.4 5.4 0 00.172-.043l.728 1.369c-.05.028-.1.054-.152.081z" fill="#BC5C2F"></path>
    <path d="M48.48 121.176l-.729-1.369c.057-.014.114-.03.17-.046l.709 1.332c-.05.029-.1.056-.15.083" fill="#BC5D2F"></path>
    <path d="M48.63 121.094l-.708-1.333.168-.049.69 1.296-.15.086" fill="#BC5E2F"></path>
    <path d="M48.78 121.008l-.69-1.296c.056-.017.111-.034.167-.053l.67 1.26-.148.089" fill="#BD5F2F"></path>
    <path d="M48.927 120.919l-.67-1.26.166-.055.65 1.223-.146.092" fill="#BD602F"></path>
    <path d="M49.073 120.827l-.65-1.223.163-.058.632 1.186a6.938 6.938 0 01-.145.095z" fill="#BD612F"></path>
    <path d="M49.218 120.732l-.632-1.186.163-.061.611 1.149a6.63 6.63 0 01-.142.098z" fill="#BD622F"></path>
    <path d="M49.36 120.634l-.61-1.149.16-.064.591 1.112a5.971 5.971 0 01-.141.101z" fill="#BD632F"></path>
    <path d="M49.501 120.533l-.591-1.112.16-.066.57 1.074c-.045.035-.092.069-.139.104z" fill="#BD642F"></path>
    <path d="M49.64 120.429l-.57-1.074.08-.035c.026-.011.053-.022.078-.034l.55 1.035-.137.108z" fill="#BD652F"></path>
    <path d="M49.778 120.321l-.55-1.035a7.27 7.27 0 00.157-.071l.529.995-.136.111" fill="#BE652F"></path>
    <path d="M49.914 120.21l-.529-.995.156-.073.507.953-.134.115" fill="#BE672F"></path>
    <path d="M50.048 120.095l-.507-.953.154-.076.485.911a6.01 6.01 0 01-.132.118" fill="#BE6730"></path>
    <path d="M50.18 119.977l-.485-.912c.052-.025.103-.052.153-.078l.462.868a5.793 5.793 0 01-.13.122" fill="#BE6830"></path>
    <path d="M50.31 119.855l-.462-.868.152-.081.438.824a6.067 6.067 0 01-.128.125" fill="#BE6A30"></path>
    <path d="M50.438 119.73l-.438-.824.15-.084.415.778a7.037 7.037 0 01-.127.13z" fill="#BE6A30"></path>
    <path d="M50.565 119.6l-.414-.778.148-.086.39.731-.124.133" fill="#BE6C30"></path>
    <path d="M50.688 119.467l-.389-.731.148-.089.363.683-.122.137" fill="#BE6C30"></path>
    <path d="M50.81 119.33l-.363-.683.146-.092.337.634-.12.141z" fill="#BE6E30"></path>
    <path d="M50.93 119.188l-.337-.633.144-.095.31.583a8.25 8.25 0 01-.117.145" fill="#BE6E30"></path>
    <path d="M51.048 119.043l-.31-.583.142-.098.283.531-.115.15" fill="#BE6F30"></path>
    <path d="M51.163 118.893l-.283-.531.142-.1.253.477a9.384 9.384 0 01-.112.154" fill="#BE7130"></path>
    <path d="M51.275 118.739l-.253-.477.14-.104.224.422-.11.159" fill="#BE7130"></path>
    <path d="M51.386 118.579l-.224-.421.138-.107.194.365c-.036.054-.071.109-.108.163" fill="#BF7330"></path>
    <path d="M51.493 118.416l-.193-.364.137-.11.162.305a9.71 9.71 0 01-.105.169z" fill="#BF7330"></path>
    <path d="M51.598 118.247l-.162-.305.135-.113.13.244a6.855 6.855 0 01-.103.174z" fill="#BF7530"></path>
    <path d="M51.7 118.073l-.129-.244a5.98 5.98 0 00.133-.116l.097.181-.1.179z" fill="#BF7530"></path>
    <path d="M51.8 117.894l-.096-.182c.045-.039.088-.079.132-.119l.061.116a6.766 6.766 0 01-.096.185" fill="#BF7730"></path>
    <path d="M51.897 117.71l-.062-.117.13-.123.026.049a8.85 8.85 0 01-.094.191" fill="#BF7830"></path>
    <path d="M51.991 117.519l-.026-.049.091-.089-.065.138" fill="#C07930"></path>
    <path d="M30.295 120.342a.017.017 0 00.005-.004l.002.004h-.007z" fill="#BC6E7B"></path>
    <path d="M30.302 120.342l-.002-.003.138-.106.044.081-.18.028z" fill="#BC6E7B"></path>
    <path d="M30.482 120.314l-.044-.082.138-.107.087.164-.181.025zm.181-.025l-.087-.165.136-.109.134.25-.183.024z" fill="#BC6E7B"></path>
    <path d="M30.846 120.265l-.134-.25.136-.111.18.34-.182.021zm.183-.021l-.18-.34.134-.112.23.432-.184.02z" fill="#BC6E7B"></path>
    <path d="M31.213 120.224l-.23-.432.134-.115.282.529-.186.018" fill="#BC6E7B"></path>
    <path d="M31.399 120.206l-.282-.529.134-.116.331.623-.007.007-.176.015" fill="#BC6F7B"></path>
    <path d="M31.582 120.185l-.331-.624.132-.117.327.615-.128.126z" fill="#BC6F7B"></path>
    <path d="M31.71 120.059l-.327-.616.132-.118.323.607-.128.127" fill="#BC6F7B"></path>
    <path d="M31.838 119.932l-.323-.607.13-.122.319.6-.126.129" fill="#BC707B"></path>
    <path d="M31.964 119.803l-.319-.6a8.28 8.28 0 00.13-.122l.314.59-.125.132z" fill="#BD707B"></path>
    <path d="M32.089 119.671l-.314-.59.129-.125.309.582a7.804 7.804 0 01-.124.133" fill="#BD707B"></path>
    <path d="M32.213 119.538l-.31-.582.128-.126.305.573a8.3 8.3 0 01-.123.135" fill="#BD707B"></path>
    <path d="M32.336 119.403l-.305-.573.127-.128.3.564c-.04.046-.08.092-.122.137" fill="#BD717B"></path>
    <path d="M32.458 119.266l-.3-.564.126-.13.295.555-.121.139m.121-.139l-.295-.555.125-.131.29.544-.12.142" fill="#BD717B"></path>
    <path d="M32.698 118.985l-.29-.544.125-.134.284.535-.119.143" fill="#BD717B"></path>
    <path d="M32.817 118.842l-.284-.535.122-.135.28.524-.118.146" fill="#BD717B"></path>
    <path d="M32.934 118.696l-.279-.524.122-.138.274.514-.117.148" fill="#BD717B"></path>
    <path d="M33.05 118.548l-.273-.514.121-.139.268.503c-.038.05-.076.101-.115.15zm.116-.15l-.268-.503a.025.025 0 00.004-.005l.18-.014.198.37a9.121 9.121 0 01-.114.152z" fill="#BD727B"></path>
    <path d="M33.28 118.246l-.197-.37.188-.012.122.228a9.228 9.228 0 01-.113.154z" fill="#BD737B"></path>
    <path d="M33.393 118.092l-.122-.228.19-.011.043.083a16.77 16.77 0 01-.111.156m.112-.156l-.044-.083.105-.004-.062.087z" fill="#BD737B"></path>
    <path d="M34.72 118.545c3.574-1.551 6.525-.938 9.146-.324 2.25.526 4.257 1.053 6.204.208 4.212-1.828 2.69-7.723 2.69-7.723s-3.266-5.137-7.479-3.31c-4.212 1.828-3.918 8.266-10.56 11.149" fill="#FFD553"></path>
    <path d="M32.845 120.141c2.565 0 4.692.615 6.677 1.188 2.799.809 5.217 1.507 8.221.204 6.246-2.711 5.22-9.726 5.042-10.712-.621-.852-4.964-6.365-11.266-3.63-3.013 1.308-4.19 3.472-5.553 5.978-1.267 2.328-2.652 4.876-5.671 7.173a16.4 16.4 0 012.55-.201zm11.503 3.349c-1.782 0-3.447-.481-5.168-.978-3.483-1.007-7.431-2.148-13.58.521a.616.616 0 01-.49-1.13c6.157-2.672 8.079-6.205 9.774-9.322 1.41-2.594 2.743-5.043 6.145-6.519 3.157-1.371 6.386-1.078 9.339.844 2.195 1.429 3.451 3.242 3.504 3.318a.612.612 0 01.093.215c.02.09.486 2.245.03 4.825-.612 3.47-2.605 6.028-5.761 7.398-1.388.602-2.665.828-3.886.828z" fill="#371A45"></path>
    <path d="M90.637 73.621s7.997 3.361 9.353 5.44c1.356 2.077-3.615 2.128-3.615 2.128l-5.738-7.567" fill="#fff"></path>
    <path d="M92.882 75.408l3.838 5.06c1.329-.063 2.608-.386 2.79-.725.016-.032-.018-.146-.115-.295-.678-1.04-3.75-2.729-6.513-4.04zm3.493 6.49a.71.71 0 01-.566-.28l-5.738-7.567a.71.71 0 01.84-1.084c.84.353 8.24 3.509 9.674 5.705.503.771.373 1.373.176 1.741-.719 1.344-3.533 1.477-4.379 1.486h-.007" fill="#371A45"></path>
    <path d="M57.064 56c-3.107 2.329-5.954 13.416-5.234 20.025.72 6.608 12.402 7.103 19.082 6.889 6.681-.214 6.658-15.32 6.57-19.367-.136-6.319-15.815-10.996-20.418-7.546" fill="#fff"></path>
    <path d="M59.007 81.265c-3.458-.877-6.163-2.48-6.471-5.317-.047-.43-.078-.88-.094-1.347.306.5.73.89 1.3 1.128.487.204.949.306 1.383.306.466 0 .9-.118 1.298-.352.725-.428 1.29-1.203 1.73-2.425.085.144.183.283.294.419a26.537 26.537 0 00-.109 2.892c.022.879.092 1.76.217 2.637.11.69.254 1.379.452 2.059zm.025-12.145c.029-.234.057-.476.084-.724a1.858 1.858 0 00-1.163-1.922l-.292-.116c.944-3.203 2.079-5.58 3.19-7.334.687.25 1.373.503 2.05.766-.3.558-.588 1.121-.875 1.684a36.955 36.955 0 00-2.748 7.393c-.05.047-.138.133-.246.253zm4.23-9.988a92.932 92.932 0 00-1.877-.909c.821-1.166 1.609-2 2.273-2.588.566.06 1.148.147 1.739.26-.273.344-.535.699-.788 1.058-.488.702-.93 1.433-1.348 2.179z" fill="#CDC6D0"></path>
    <path d="M57.064 56h.002-.002zm4.74-.468c-1.838 0-3.379.336-4.314 1.037-2.869 2.15-5.647 13.016-4.954 19.379.646 5.935 11.777 6.467 18.354 6.257 5.829-.188 5.977-14.317 5.883-18.642-.043-1.972-2.002-4.044-5.377-5.687-3.134-1.526-6.724-2.344-9.592-2.344zm6.78 28.13c-8.073 0-16.794-1.442-17.46-7.56-.696-6.394 1.953-18 5.514-20.67 3.158-2.366 10.442-1.237 15.38 1.167 3.926 1.912 6.12 4.373 6.175 6.933.16 7.412-.57 19.877-7.258 20.092-.772.025-1.559.038-2.351.038" fill="#371A45"></path>
    <path d="M57.72 67.09l-2.965-1.183a1.2 1.2 0 00-1.606.811c-.623 2.403-1.582 7.383.836 8.402 2.93 1.236 3.969-2.144 4.484-6.788a1.198 1.198 0 00-.75-1.243" fill="#fff"></path>
    <path d="M55.118 74.72c-.259 0-.547-.067-.869-.202-.684-.286-1.023-1.113-1.124-2.218.119.085.248.158.39.217.411.172.786.254 1.126.254 1.694 0 2.555-2.018 3.05-4.916.09.11.136.252.12.4-.146 1.343-.59 5.433-2.054 6.297-.19.112-.402.168-.64.168" fill="#CDC6D0"></path>
    <path d="M54.3 66.48a.54.54 0 00-.246.06.535.535 0 00-.278.346c-.833 3.245-1.147 6.954.473 7.632.616.258 1.109.269 1.507.034 1.465-.864 1.91-4.954 2.055-6.298a.542.542 0 00-.34-.56l-2.969-1.175a.549.549 0 00-.201-.04zm.825 9.555c-.434 0-.896-.102-1.383-.306-2.68-1.123-2.152-5.606-1.237-9.17a1.853 1.853 0 012.48-1.26l2.969 1.175a1.858 1.858 0 011.162 1.922c-.463 4.267-1.269 6.447-2.693 7.287a2.514 2.514 0 01-1.298.352m1.505-20.02l3.493 1.614c1.162.546 2.322 1.086 3.476 1.674a.355.355 0 01-.29.647l-.006-.003c-1.177-.467-2.385-.9-3.586-1.333L56.1 57.333l-.006-.002a.71.71 0 11.535-1.316" fill="#371A45"></path>
    <path d="M110.302 53.878c-1.152 3.93-9.901 11.207-22.452 11.571a33.775 33.775 0 01-3.746-.096l-1.12-4.783-.896-3.829s1.949-.355 4.613-1.063c2.105-.557 4.656-1.335 7.047-2.329 2.254-.937 4.368-2.068 5.827-3.39 0 0 .08-3.937 1.197-4.338 1.363-.49 2.373 2.279 2.373 2.279s3.099-3.19 4.908-2.881c2.689.458 3.514 4.55 2.249 8.86" fill="#fff"></path>
    <path d="M88.427 64.718a40.973 40.973 0 00-.763-3.33c1.3.27 2.58.392 3.833.393 8.5 0 15.704-5.664 18.474-9.587-.087.489-.204.986-.35 1.483-1.002 3.415-9.166 10.467-21.194 11.041z" fill="#B9AFBE"></path>
    <path d="M86.862 66.175c-.921 0-1.858-.036-2.814-.113a.71.71 0 11.114-1.415c14.334 1.154 24.343-7.166 25.459-10.97.796-2.715.719-5.418-.199-6.887-.379-.607-.88-.968-1.488-1.072-.991-.168-3.1 1.464-4.28 2.677l-.788.811-.388-1.062c-.312-.85-1.03-1.988-1.455-1.859-.352.251-.703 2-.738 3.688l-.007.306-.227.205c-5.057 4.58-17.316 6.861-17.835 6.956a.71.71 0 01-.255-1.397c.121-.022 12.007-2.233 16.913-6.414.056-1.457.337-4.201 1.657-4.676 1.34-.483 2.314.776 2.842 1.743 1.136-1.03 3.212-2.647 4.8-2.377 1.01.172 1.859.766 2.454 1.719 1.139 1.824 1.276 4.905.356 8.04-1.288 4.39-10.785 12.097-24.121 12.097" fill="#371A45"></path>
    <path d="M97.272 82.37s-17.575 6.796-23.742 6.31c-6.164-.487-12.805-1.463-13.169-13.16-.225-7.27 3.371-14.423 6.126-18.793 1.677-2.662 3.042-4.294 3.042-4.294l16.97.867s.066.894.202 2.378c.085.926.199 2.082.343 3.392.206 1.881.472 4.08.806 6.38.51 3.521 1.18 7.273 2.023 10.465.364 1.381 6.158 1.76 7.398 6.454" fill="#fff"></path>
    <path d="M87.468 60.714c.634 2.07.998 4.163 1.366 6.254.373 2.089.706 4.182 1.138 6.251a74.2 74.2 0 00.347 1.545l.19.767.047.191.003.012.001-.002v-.005l-.002-.009-.006-.006.005.003c.004.003.002.005.005.011.01.008.019.017.027.027.009.017.053.045.078.07.132.108.343.227.56.337.218.112.453.22.694.33.48.217.98.44 1.474.69.988.498 1.976 1.107 2.804 1.949a6.96 6.96 0 011.08 1.41c.3.518.526 1.076.68 1.649l.165.617-.596.226a187.166 187.166 0 01-8.436 2.978c-2.836.922-5.696 1.78-8.618 2.47-1.463.34-2.938.647-4.462.818-.76.087-1.532.145-2.341.099-.208-.006-.386-.025-.574-.04l-.56-.048a36.03 36.03 0 01-1.125-.116c-1.502-.176-3.029-.442-4.506-.986a11.1 11.1 0 01-2.131-1.046 9.498 9.498 0 01-1.847-1.536 9.921 9.921 0 01-1.393-1.943 11.998 11.998 0 01-.938-2.162l-.093-.278-.079-.28-.155-.562-.127-.565-.063-.283-.05-.285-.099-.568c-.03-.19-.05-.38-.076-.57a18.9 18.9 0 01-.119-1.14 24.225 24.225 0 01.04-4.578c.158-1.52.454-3.018.85-4.483.794-2.934 1.993-5.725 3.403-8.385.706-1.33 1.41-2.666 2.267-3.907.856-1.239 1.804-2.422 3.052-3.353a.243.243 0 01.367.295l-.004.009c-.624 1.375-1.385 2.625-2.158 3.868-.76 1.25-1.58 2.465-2.268 3.758-1.376 2.58-2.529 5.283-3.288 8.087-.38 1.4-.66 2.825-.809 4.259a22.781 22.781 0 00-.037 4.315c.03.36.06.72.112 1.075.024.177.044.357.072.534l.092.528.046.264.058.26.117.522.141.511.072.256.085.25c.212.672.496 1.313.83 1.918a8.54 8.54 0 001.194 1.668c.926 1.002 2.116 1.735 3.429 2.215 1.313.485 2.733.74 4.177.907.36.044.724.08 1.09.113l.549.047c.181.014.373.034.537.037.171.003.337.022.513.013l.524-.012c.354-.027.707-.046 1.066-.093 1.428-.16 2.867-.457 4.295-.789 2.858-.674 5.692-1.525 8.503-2.438a185.094 185.094 0 008.363-2.952l-.43.844a5.388 5.388 0 00-1.397-2.425c-.671-.684-1.52-1.219-2.434-1.678-.457-.232-.932-.444-1.423-.667a18.17 18.17 0 01-.751-.356 4.697 4.697 0 01-.804-.495c-.074-.065-.141-.112-.217-.199l-.109-.12a2.656 2.656 0 01-.106-.156c-.067-.088-.128-.266-.161-.37l-.051-.196-.204-.784a73.764 73.764 0 01-.376-1.573c-.24-1.05-.47-2.1-.671-3.156a63.95 63.95 0 01-.522-3.177c-.293-2.124-.495-4.262-.363-6.43a.24.24 0 01.47-.055" fill="#371A45"></path>
    <path d="M62.065 118.102l-3.041.473a3.787 3.787 0 01-3.6-1.454 22.728 22.728 0 01-4.486-11.357 3.786 3.786 0 011.633-3.522l2.544-1.733 6.95 17.593z" fill="#0AF"></path>
    <path d="M51.653 105.766l-.009-.076a3.071 3.071 0 011.327-2.861l1.49-1.015c.027.395.062.789.105 1.181l-1.43.974a4.192 4.192 0 00-1.483 1.797" fill="#9DF"></path>
    <path d="M58.065 117.12c-.87 0-1.71-.3-2.381-.843a22.01 22.01 0 01-2.082-3.543 3.778 3.778 0 002.65.572l1.437-.224a27.794 27.794 0 002.417 3.766l-1.458.227c-.195.03-.39.045-.583.045" fill="#1378BE"></path>
    <path d="M62.602 95.836c-1.58-3.097-6.998-7.196-17.655-.434a.183.183 0 00.065.334c1.774.316 10.116 1.737 11.643 6.075l5.947-5.975" fill="#EC1C24"></path>
    <path d="M47.444 95.504a43.203 43.203 0 00-.953-.209c3.246-1.88 6.227-2.841 8.789-2.841.824 0 1.605.099 2.337.3a7.33 7.33 0 012.103.937c-.15.148-.297.295-.441.44-1.08-.526-2.399-.866-3.979-.866-2.131 0-4.735.62-7.856 2.239" fill="#F7A4A7"></path>
    <path d="M56.655 102.522a.71.71 0 01-.67-.475c-.51-1.45-2.62-4.106-11.013-5.598l-.084-.014a.887.887 0 01-.718-.707.886.886 0 01.397-.925c5.18-3.288 9.697-4.438 13.424-3.42 3.29.899 4.763 3.188 5.244 4.13a.71.71 0 01-1.265.646c-.395-.774-1.61-2.657-4.353-3.406-3.01-.823-6.836.056-11.126 2.542 7.647 1.582 10.123 4.26 10.834 6.281a.71.71 0 01-.67.946" fill="#371A45"></path>
    <path d="M70.591 116.058c.963 3.341-.12 10.217-12.52 12.563a.182.182 0 01-.18-.288c1.078-1.442 6.12-8.373 4.27-12.584l8.43.309" fill="#D25658"></path>
    <path d="M58.07 128.622a.183.183 0 01-.18-.289c.553-.739 2.145-2.918 3.318-5.434 1.11-2.377 1.844-5.056.972-7.105l-.02-.045.052.002 8.378.306c.27.938.38 2.155.122 3.472-.657 3.373-3.72 7.404-12.642 9.093" fill="#EC1C24"></path>
    <path d="M62.02 122.825c.535-1.209.959-2.47 1.146-3.693 1.33.305 3.62.706 6.723.795a7.621 7.621 0 01-.088.298c-1.832 1.26-4.356 2.232-7.781 2.6z" fill="#AD1B30"></path>
    <path d="M57.938 127.924zm.095 1.411a.888.888 0 01-.753-.42.887.887 0 01.042-1.007c1.39-1.859 5.799-8.21 4.19-11.873a.71.71 0 011.3-.572c1.637 3.728-1.465 9.163-3.553 12.183 4.765-1.107 8.128-3.081 9.77-5.748 1.583-2.575 1.073-4.971.88-5.644a.71.71 0 011.364-.393c.3 1.044.802 3.794-1.035 6.781-2.033 3.304-6.082 5.55-12.035 6.677a.885.885 0 01-.17.016" fill="#371A45"></path>
    <path d="M120.689 84.693s-2.786 17.727-25.747 28.677c-19.56 9.328-33.084 4.732-33.084 4.732a27.247 27.247 0 01-6.95-17.594s3.004-5.623 11.158-11.31c.28-.196.568-.393.861-.588 3.185-2.126 7.099-4.237 11.856-6.037a67.433 67.433 0 013.653-1.264c4.913-1.55 9.409-2.327 13.454-2.586.13-.009.258-.016.386-.023 15.613-.873 24.413 5.993 24.413 5.993" fill="#fff"></path>
    <path d="M108.982 104.152a65.666 65.666 0 00-10.084-25.525c14.101-.094 21.997 6.066 21.997 6.066s-1.555 9.891-11.913 19.459" fill="#EC1C24"></path>
    <path d="M118.663 84.596c-3.073-1.704-9.249-4.379-18.063-4.637a26.375 26.375 0 00-.154-.245l-.012-.02-.013-.02-.017-.027a.25.25 0 00-.006-.01l-.022-.034-.004-.007-.024-.038-.002-.003-.132-.209c9.432.203 15.849 3.231 18.633 4.86l-.184.39" fill="#F7A4A7"></path>
    <path d="M100.214 79.346a65.902 65.902 0 019.237 23.382c7.202-7.039 9.695-14.078 10.445-16.856a1.214 1.214 0 00-.536-1.358c-2.446-1.516-9.078-4.952-19.146-5.168zm8.285 26.219l-.217-1.296a64.545 64.545 0 00-9.975-25.25l-.728-1.094 1.315-.008c11.177-.078 18.558 3.744 21.214 5.39 1 .62 1.466 1.799 1.159 2.935-.814 3.016-3.595 10.85-11.803 18.432l-.965.891" fill="#371A45"></path>
    <path d="M62.463 117.482c.751.222 3.936 1.07 8.882 1.042 5.227-.024 13.547-1.049 23.496-5.794 5.102-2.433 9.601-5.405 13.377-8.838a64.52 64.52 0 00-9.699-24.551c-5.103.075-10.418.98-15.806 2.69C63.8 88.037 56.682 99.24 55.83 100.689a26.417 26.417 0 001.843 8.978 26.43 26.43 0 004.79 7.815zm8.68 2.462c-5.797 0-9.166-1.122-9.307-1.17l-.176-.06-.125-.138a27.86 27.86 0 01-5.184-8.388 27.828 27.828 0 01-1.947-9.664l-.004-.186.088-.164c.071-.132 1.788-3.3 6.09-7.303 3.944-3.67 10.912-8.766 21.706-12.194 5.659-1.797 11.247-2.725 16.61-2.76l.383-.003.213.32a65.956 65.956 0 0110.181 25.735l.141.383-.347.323c-3.939 3.64-8.653 6.781-14.013 9.337-10.222 4.875-18.79 5.916-24.18 5.932h-.129" fill="#371A45"></path>
    <path d="M58.439 119.33a4.486 4.486 0 01-3.58-1.781 23.429 23.429 0 01-4.627-11.712 4.49 4.49 0 011.94-4.182l2.543-1.733a.71.71 0 01.8 1.174l-2.544 1.733a3.07 3.07 0 00-1.327 2.861 22.01 22.01 0 004.346 11.002 3.07 3.07 0 002.924 1.181l3.042-.473a.711.711 0 01.218 1.404l-3.041.473a4.519 4.519 0 01-.694.053" fill="#371A45"></path>
    <path d="M92.107 106.957a9.8 9.8 0 01-6.62-2.584l.013-.043c.158-.485.217-.978.23-1.456v-.053a9.501 9.501 0 002.813 1.869 9.477 9.477 0 003.774.789c1.18 0 2.36-.224 3.49-.67a9.427 9.427 0 005.222-5.052 9.478 9.478 0 00.787-3.62c.464 4.264-1.942 8.482-6.124 10.134a9.749 9.749 0 01-3.585.686" fill="#B9AFBE"></path>
    <path d="M95.546 104.149a8.782 8.782 0 01-11.395-4.942 8.782 8.782 0 1116.337-6.453 8.783 8.783 0 01-4.942 11.395z" fill="#EC1C24"></path>
    <path d="M85.958 91.472l.022-.093c.041-.178.076-.356.107-.535a8.03 8.03 0 013.267-2.371 8.067 8.067 0 012.968-.57c1.09 0 2.179.225 3.21.671a8.045 8.045 0 012.8 2.013 8.815 8.815 0 00-5.746-2.138 8.756 8.756 0 00-3.224.617 8.744 8.744 0 00-3.404 2.406" fill="#F7A4A7"></path>
    <path d="M92.318 104.058c-1.09 0-2.18-.224-3.21-.671a8.01 8.01 0 01-3.85-3.494 17.326 17.326 0 00-.807-2.103 8.223 8.223 0 01-.086-.419 8.788 8.788 0 007.927 4.997 8.749 8.749 0 003.224-.617 8.75 8.75 0 004.794-4.594 8.118 8.118 0 01-.584 2.035 8.015 8.015 0 01-4.44 4.296 8.06 8.06 0 01-2.968.57" fill="#AD1B30"></path>
    <path d="M92.322 87.904a8.08 8.08 0 00-2.968.569 8.019 8.019 0 00-4.44 4.296 8.02 8.02 0 00-.102 6.178 8.02 8.02 0 004.296 4.44 8.016 8.016 0 006.178.101 8.015 8.015 0 004.44-4.296 8.02 8.02 0 00.102-6.177 8.02 8.02 0 00-4.296-4.44 8.058 8.058 0 00-3.21-.671zm-.005 17.575a9.478 9.478 0 01-3.774-.789 9.433 9.433 0 01-5.052-5.222 9.431 9.431 0 01.12-7.264 9.43 9.43 0 015.221-5.052 9.43 9.43 0 017.264.12 9.432 9.432 0 015.053 5.221 9.436 9.436 0 01-.12 7.264 9.427 9.427 0 01-5.221 5.052 9.496 9.496 0 01-3.49.67" fill="#371A45"></path>
    <path d="M94.431 101.042a5.588 5.588 0 11-4.104-10.394 5.588 5.588 0 014.104 10.394z" fill="#6BD6F0"></path>
    <path d="M92.38 101.434c.683 0 1.378-.126 2.051-.393a5.576 5.576 0 000 .001 5.575 5.575 0 01-2.05.392zm-5.276-3.745zm10.649-.315l.002-.008-.002.008zm.002-.008l.002-.008-.002.008zm.002-.008l.003-.008-.003.008zm.003-.008l.002-.008-.002.008zm.002-.009zm.002-.008l.002-.007-.002.007zm.003-.008l.001-.007-.001.007zm.002-.008c0-.002 0-.004.002-.006l-.002.006zm.002-.009l.002-.006-.002.006zm.002-.008l.002-.005-.002.005zm.002-.008l.002-.007c0 .003 0 .005-.002.007zm.003-.007l.001-.007-.001.007zm.002-.009l.001-.006-.001.006zm.002-.008l.001-.006-.001.006zm.002-.008l.002-.006-.002.006zm.002-.008l.001-.005v.005zm.002-.008l.001-.005v.004zm.002-.008l.002-.005-.002.005zm.002-.008l.002-.007c0 .002 0 .004-.002.007zm.003-.008v-.005.005zm.015-.064zm.004-.016z" fill="#F26166"></path>
    <path d="M92.38 101.434a5.603 5.603 0 01-4.32-2.04 5.597 5.597 0 01-.916-1.596 5.54 5.54 0 01.084-.855 5.595 5.595 0 004.828 2.774c.683 0 1.378-.126 2.051-.392a5.582 5.582 0 003.451-4.225 5.622 5.622 0 01.408.864c-.009.399-.06.793-.151 1.176l-.005.015v.001l-.014.06-.001.004v.001c-.002.002-.002.004-.003.007v.003l-.002.005v.003l-.002.004v.004l-.002.005v.002l-.002.006v.002l-.002.006v.002l-.002.006v.002l-.002.007-.003.007v.002l-.002.007v.001l-.002.006v.003l-.002.006v.001l-.002.007v.001l-.003.007-.002.008v.001l-.002.008-.003.008-.002.008-.002.008a5.58 5.58 0 01-3.322 3.668 5.575 5.575 0 01-2.05.392zm-5.262-3.706l-.014-.039a5.584 5.584 0 01-.311-1.684l.06.161c.013.52.1 1.045.265 1.562zm10.578-3.598a7.822 7.822 0 00-.054-.145v-.016c.018.054.037.107.054.161" fill="#98E2F5"></path>
    <path d="M87.144 97.806c-.01-.026-.017-.051-.026-.077l.026.07v.007zm10.882-1.672a6.944 6.944 0 00-.06-.17 5.556 5.556 0 00-.267-1.824 5.52 5.52 0 01.327 1.993" fill="#AD1B30"></path>
    <path d="M87.144 97.799a5.39 5.39 0 01-.026-.071l.026.07zm.084-.856a5.694 5.694 0 01-.37-.762l-.005-.015a5.59 5.59 0 015.586-5.73 5.587 5.587 0 015.197 3.535l.006.014a5.6 5.6 0 01-.084 1.115 5.596 5.596 0 00-4.83-2.775 5.57 5.57 0 00-2.05.393 5.58 5.58 0 00-3.45 4.225zm10.738-.979a5.565 5.565 0 00-.27-1.834l.003.01c.195.603.28 1.22.267 1.824" fill="#5994B4"></path>
    <path d="M87.144 97.799c-.01-.024-.017-.048-.026-.071a5.568 5.568 0 01-.265-1.562l.005.015c.106.267.23.521.37.762-.05.281-.078.567-.084.856zm10.822-1.835a5.616 5.616 0 00-.408-.864 5.6 5.6 0 00.084-1.115 8.1 8.1 0 01.054.145c.197.607.283 1.226.27 1.834" fill="#769CB8"></path>
    <path d="M92.373 90.968c-.595 0-1.2.109-1.786.34a4.883 4.883 0 00-2.744 6.329 4.846 4.846 0 002.595 2.683 4.847 4.847 0 003.733.061 4.883 4.883 0 002.744-6.328 4.886 4.886 0 00-4.542-3.085zm.004 11.178c-.85 0-1.7-.175-2.504-.524a6.255 6.255 0 01-3.351-3.463 6.305 6.305 0 013.543-8.171 6.305 6.305 0 018.17 3.543 6.305 6.305 0 01-5.858 8.615" fill="#371A45"></path>
    <path d="M109.572 84.68c-1.024 0-2.527-.536-3.19-.561-1.504-.057-2.768-.444-2.759-1.542.007-.786.985-1.066 2.608-1.079h.028c1.573 0 4.312 1.041 4.354 2.367.02.62-.424.815-1.041.815m4.734 1.516c-.491 0-1.322-.624-1.665-.69-.733-.144-1.366-.557-1.416-1.506-.03-.573.292-.792.867-.792.107 0 .222.008.345.022.761.087 2.159 1.164 2.246 2.32.036.483-.126.646-.377.646z" fill="#F04950"></path>
    <path d="M70.769 117.921c-4.842 0-7.97-.803-8.835-1.056a26.408 26.408 0 01-2.966-4.401 9.4 9.4 0 001.762-.496c1.106-.436 2.05-1.09 2.836-1.808a16.389 16.389 0 008.79 2.287c5.755-.145 13.645-1.445 22.881-5.849 4.819-2.298 8.748-4.894 11.95-7.562.354 1.404.663 2.823.924 4.259-3.434 3.086-7.798 6.121-13.338 8.763-9.852 4.698-18.172 5.863-24.004 5.863z" fill="#B9AFBE"></path>
    <path d="M109.34 102.151a66.943 66.943 0 00-.952-4.148c5.348-4.754 8.474-9.643 10.275-13.407.503.28.924.532 1.259.745.019.113.023.23.01.347-1.051 3.364-3.815 9.932-10.592 16.463" fill="#AD1B30"></path>
    <path d="M119.922 85.34a25.178 25.178 0 00-1.259-.744c.063-.132.125-.262.184-.39.188.109.359.212.513.308.306.19.503.492.562.827z" fill="#B47485"></path>
    <path d="M108.111 103.295a64.838 64.838 0 00.001 0h-.001zm11.821-17.607a1.215 1.215 0 00-.572-1.174 21.28 21.28 0 00-.513-.308c.103-.221.201-.439.294-.65a21.193 21.193 0 011.183.734c-.09.368-.217.838-.392 1.398m-57.998 31.177c-.162-.048-.245-.076-.245-.076a27.137 27.137 0 01-3.128-4.258c.136-.02.272-.042.407-.067a26.408 26.408 0 002.966 4.401zm46.178-13.57a65.641 65.641 0 00-.925-4.259c.412-.343.813-.688 1.201-1.033a66.87 66.87 0 01.952 4.148c-.395.382-.805.764-1.228 1.144" fill="#371A45"></path>
    <path d="M56.622 106.411a26.428 26.428 0 01-.793-5.722c.064-.108.163-.272.3-.484a22.931 22.931 0 00.184.658 16.02 16.02 0 002.21 4.612 7.923 7.923 0 00-.313.116c-.556.22-1.087.5-1.588.82z" fill="#B9AFBE"></path>
    <path d="M56.007 106.831a6.742 6.742 0 01-.036-.112 27.174 27.174 0 01-.825-5.372l.369-.251a.71.71 0 00-.036-1.197 21.234 21.234 0 01.39-.59l.035.125.034.116c.035.118.075.234.112.351l.079.304c-.137.212-.236.376-.3.484.055 1.94.32 3.854.793 5.722-.21.134-.416.274-.615.42" fill="#371A45"></path>
    <path d="M55.146 101.347a27.16 27.16 0 01-.031-.838s.116-.218.364-.61a.71.71 0 01.036 1.197l-.369.251" fill="#371A45"></path>
    <path d="M60.73 111.968c-4.027 1.59-9.25-.031-9.25-.031l.03-.05c.303-.516 2.92-4.8 6.7-6.296 3.628-1.434 7.58.038 8.283.325.073.03.11.047.11.047s-1.873 4.428-5.873 6.005" fill="#EC1C24"></path>
    <path d="M51.806 112.165a4.832 4.832 0 01-.14-.04l.03-.051.039-.064.01.002.06.153z" fill="#FFEEBA"></path>
    <path d="M52.404 112.319a15.522 15.522 0 01-.598-.154l-.061-.153c.173.047.426.112.743.183-.03.042-.057.084-.084.124" fill="#AFA3B5"></path>
    <path d="M66.446 106.848a11.675 11.675 0 00-.245-.082c.183-.332.302-.582.36-.71l.12.048.11.045s-.114.27-.345.699z" fill="#fff"></path>
    <path d="M51.91 111.727c.75-1.176 3.17-4.636 6.488-5.948 1.153-.456 2.339-.618 3.443-.618 1.995 0 3.722.53 4.504.814l-1.224.488a13.101 13.101 0 00-3.008-.369c-1.104 0-2.29.162-3.444.619-2.379.94-4.296 2.985-5.467 4.5l-1.292.514" fill="#F7A4A7"></path>
    <path d="M56.596 112.667c-1.657 0-3.165-.262-4.108-.472.192-.282.43-.616.714-.982l11.919-4.75c.417.1.782.206 1.08.303-.745 1.351-2.535 4.044-5.47 5.202a9.419 9.419 0 01-1.763.496 12.559 12.559 0 01-1.51.178c-.29.017-.578.025-.862.025zm-4.861-.657c-.165-.045-.255-.073-.255-.073l.03-.05.4-.16c-.076.119-.134.215-.175.283zm14.827-5.954c-.061-.023-.133-.051-.217-.081l.148-.059c.073.03.11.047.11.047s-.013.032-.041.093" fill="#AD1B30"></path>
    <path d="M52.487 112.195a17.247 17.247 0 01-.752-.185c.04-.068.1-.164.175-.283l1.292-.514c-.283.366-.523.701-.715.982zm13.714-5.429a14.657 14.657 0 00-1.08-.303l1.224-.488c.084.03.156.058.217.081-.059.128-.178.378-.361.71" fill="#B47485"></path>
    <path d="M51.48 111.937h.001-.002zm1.125-.445c1.621.363 5.087.913 7.864-.183 2.779-1.097 4.475-3.719 5.147-4.956-1.338-.442-4.376-1.196-7.145-.101-2.782 1.1-4.932 3.867-5.866 5.24zm3.979 1.888c-2.803 0-5.168-.719-5.315-.765l-.844-.262.437-.767c.116-.203 2.878-4.99 7.087-6.655 4.228-1.671 8.752.298 8.942.383l.637.283-.271.642c-.082.192-2.038 4.721-6.267 6.39-1.424.563-2.973.751-4.406.751" fill="#371A45"></path>
    <path d="M77.848 108.812c-2.25 0-4.628-.993-6.185-3.091-1.748-2.359-2.103-5.078-2.004-7.158.117-2.43.552-4.749-.66-6.568-.522-.785-1.316-1.5-2.246-2.251.352-.245.714-.49 1.085-.735.492.234.966.479 1.393.752.323.21.612.44.82.683.056.06.093.119.141.185l.138.23c.048.075.08.16.12.239.042.08.075.163.106.249.266.672.338 1.452.339 2.256-.002.809-.077 1.647-.132 2.508l-.038.65c-.008.225-.016.45-.014.674 0 .449.02.899.068 1.347.085.897.279 1.788.563 2.651a11 11 0 001.193 2.458c.134.186.254.378.4.559l.446.538c.153.176.329.33.493.495.161.17.347.31.53.454.733.574 1.555 1.044 2.439 1.337.88.3 1.806.459 2.737.465h.054c.827 0 1.659-.12 2.456-.38l-.038.033c-1.12.933-2.63 1.42-4.204 1.42" fill="#CDC6D0"></path>
    <path d="M66.753 89.744c-.222-.18-.451-.361-.687-.546.28-.196.569-.393.861-.588l.02-.013.105.047c.264.12.528.241.786.365-.371.244-.732.49-1.085.735z" fill="#371A45"></path>
    <path d="M82.514 95.708c.559.803 4.421 7.319 1.313 9.909-2.721 2.268-7.743 1.895-10.389-1.671-1.748-2.359-2.103-5.078-2.004-7.159.117-2.43.552-4.748-.66-6.567-1.38-2.073-6.761-2.847-9.438-5.916-1.578-1.807-2.423-5.09-2.28-9.11a28.32 28.32 0 01.414-3.85c.994-5.683 3.774-12.22 8.893-18.01 0 0 2.034 8.137 4.166 15.367 1.486 5.04 3.02 9.639 3.94 10.727.123.145.235.227.335.241 1.212.169 2.401.508 3.528 1.023 1.008.461 1.983 1.068 2.79 1.867 2.947 2.923 3.029 8.792 1.028 11.17-.788.938-1.636 1.98-1.636 1.98" fill="#fff"></path>
    <path d="M80.794 79.534l-4.324-.106c-.198-.234-.424-.63-.672-1.156l1.406.088c.09.012.181.02.274.02a43.323 43.323 0 001.27.001 35.774 35.774 0 001.965.958l.08.195" fill="#CDC6D0"></path>
    <path d="M79.636 106.32l-.05-.001a7.259 7.259 0 01-2.279-.387 6.734 6.734 0 01-2.023-1.11c-1.222-.936-2.08-2.348-2.596-3.842-.248-.755-.42-1.54-.496-2.34-.043-.4-.06-.803-.061-1.206-.002-.202.006-.403.013-.605l.036-.626c.053-.84.132-1.7.135-2.598a9.791 9.791 0 00-.084-1.373 5.97 5.97 0 00-.493-1.734c-.056-.11-.103-.225-.168-.331l-.191-.319c-.075-.106-.158-.226-.245-.323a5.167 5.167 0 00-1.132-.956c-.786-.501-1.582-.86-2.364-1.218-1.56-.704-3.098-1.367-4.403-2.298-.644-.464-1.235-.998-1.671-1.605-.447-.616-.784-1.339-1.04-2.095a14.366 14.366 0 01-.565-2.358 21.07 21.07 0 01-.2-2.456 23.3 23.3 0 01.034-1.792c2.017 1.103 5.036 1.303 6.948 1.303l.162-.001c1.78-.01 3.882-.206 5.484-.607l.025.813a1.976 1.976 0 001.86 1.92l1.526.097c.248.526.474.922.672 1.156l-3.252-.08a1.36 1.36 0 01-1.273-1.315l-.04-1.351c-1.408.315-3.273.515-5.167.515-1.933 0-3.896-.208-5.436-.716.228 2.808 1.01 5.077 2.224 6.469 2.677 3.069 6.69 1.421 9.406 4.588 1.697 1.98.81 5.465.692 7.895-.099 2.08-.903 5.132.844 7.489 1.271 1.715 3.356 2.402 5.48 2.402 1.334 0 2.684-.27 3.858-.728a2.14 2.14 0 01-.135.173l-.079.095c-.027.03-.06.057-.09.085-.064.056-.11.116-.193.169-.152.106-.295.225-.452.325-.165.09-.325.187-.49.275l-.522.224a6.466 6.466 0 01-2.209.378m7.408-47.25c-.049-.44-.094-.863-.135-1.266a19.437 19.437 0 004.178-2.694 48.285 48.285 0 001.78-.642 18.875 18.875 0 01-5.823 4.602z" fill="#CDC6D0"></path>
    <path d="M91.087 55.11a19.851 19.851 0 001.34-1.238c.443-.167.885-.341 1.321-.523-.28.384-.574.758-.881 1.12a48.23 48.23 0 01-1.78.64z" fill="#371A45"></path>
    <path d="M78.535 61.1l-.13-.001a18.708 18.708 0 01-7.845-1.771 4.723 4.723 0 00-.714-.267c-.152-.576-.297-1.123-.43-1.635a19.417 19.417 0 008.983 2.254h.143c2.94 0 5.784-.647 8.367-1.876.041.403.086.826.135 1.266a18.671 18.671 0 01-4.06 1.5 18.81 18.81 0 01-4.449.53" fill="#CDC6D0"></path>
    <path d="M61.793 69.276c-.443-.11-.801-.213-1.078-.3a35.591 35.591 0 012.583-6.87c.732-1.506 1.652-2.909 2.567-4.305.398-.616.806-1.223 1.207-1.84a19.375 19.375 0 002.343 1.465l.431 1.635a4.642 4.642 0 00-1.27-.177 4.742 4.742 0 00-4.315 2.784 35.177 35.177 0 00-2.468 7.608" fill="#CDC6D0"></path>
    <path d="M77.144 79.481a9.076 9.076 0 012.741.408 9.7 9.7 0 012.562 1.188c.399.267.782.565 1.14.899.359.34.683.722.966 1.122.567.806.96 1.704 1.234 2.621.263.921.412 1.866.442 2.815.039.948-.033 1.903-.249 2.844-.217.937-.559 1.882-1.21 2.711l-1.706 2.067.032-.854c.142.209.253.393.368.587a21.25 21.25 0 01.921 1.76c.374.799.697 1.627.946 2.492.243.866.421 1.772.398 2.733a5.1 5.1 0 01-.229 1.456 3.963 3.963 0 01-.744 1.356l-.128.149c-.044.048-.094.091-.14.137-.095.085-.191.187-.287.251-.195.141-.384.293-.586.42-.207.118-.413.241-.624.35l-.654.281a7.885 7.885 0 01-2.757.465 8.667 8.667 0 01-2.737-.465 8.127 8.127 0 01-2.438-1.337c-.183-.144-.37-.284-.53-.454-.165-.165-.341-.319-.494-.495l-.445-.538c-.147-.181-.267-.373-.4-.559a11 11 0 01-1.194-2.458 12.143 12.143 0 01-.563-2.651 12.943 12.943 0 01-.068-1.347c-.002-.225.007-.45.014-.673l.038-.65c.055-.862.13-1.7.132-2.509-.001-.804-.073-1.584-.34-2.256a1.847 1.847 0 00-.105-.249c-.04-.08-.072-.164-.12-.24l-.138-.229c-.048-.066-.085-.124-.14-.185a3.826 3.826 0 00-.82-.683c-.653-.417-1.413-.767-2.18-1.117-1.54-.698-3.164-1.385-4.644-2.437-.735-.531-1.433-1.148-1.995-1.928-.555-.767-.941-1.61-1.233-2.465a15.803 15.803 0 01-.625-2.608 22.574 22.574 0 01-.217-2.637 28.51 28.51 0 01.413-5.226c.597-3.437 1.732-6.759 3.276-9.869.785-1.546 1.59-3.092 2.582-4.521 1-1.419 2.132-2.76 3.577-3.775a.243.243 0 01.356.311l-.001.003c-.808 1.544-1.767 2.903-2.676 4.31-.915 1.395-1.835 2.798-2.567 4.304-1.487 2.995-2.577 6.193-3.147 9.477a27.077 27.077 0 00-.393 4.956c.02.825.086 1.645.201 2.456.128.806.308 1.6.564 2.358.257.756.594 1.48 1.04 2.095.437.608 1.028 1.14 1.672 1.605 1.305.931 2.842 1.594 4.403 2.298.781.358 1.578.717 2.364 1.218.391.255.784.552 1.132.956.087.097.17.217.245.323l.191.319c.065.106.112.22.168.33a5.97 5.97 0 01.493 1.735c.061.465.088.925.084 1.373-.003.897-.082 1.758-.135 2.597l-.036.627c-.007.202-.015.403-.013.605.001.403.017.806.06 1.205.076.8.249 1.586.497 2.341.516 1.494 1.374 2.906 2.596 3.842a6.737 6.737 0 002.023 1.11 7.259 7.259 0 002.28.387 6.455 6.455 0 002.258-.377l.521-.224c.166-.088.326-.185.49-.275.158-.1.301-.219.453-.325.083-.053.129-.114.193-.169.03-.029.063-.055.09-.085l.08-.095c.426-.495.627-1.182.638-1.931.02-.747-.126-1.536-.344-2.307a15.79 15.79 0 00-.868-2.284 20.083 20.083 0 00-.857-1.637 9.41 9.41 0 00-.31-.496l-.305-.446.337-.409 1.697-2.055c.454-.575.758-1.342.931-2.136.345-1.602.23-3.34-.257-4.91-.249-.785-.586-1.536-1.034-2.196a6.625 6.625 0 00-.75-.921 7.538 7.538 0 00-.92-.8 14 14 0 00-2.155-1.298 22.93 22.93 0 00-2.407-.995h-.002a.24.24 0 01.078-.467" fill="#371A45"></path>
    <path d="M71.498 92.657a.532.532 0 01-.527-.461c-.828-6.128 2.8-9.024 4.399-9.986 2.65-1.592 5.844-1.741 7.766-.361a.533.533 0 11-.62.865c-1.563-1.121-4.337-.95-6.597.41-1.418.852-4.636 3.429-3.892 8.93a.533.533 0 01-.529.603m11.992 2.962c-.074.072-.125.114-.187.167-.06.05-.12.096-.181.143a5.946 5.946 0 01-.374.26 6.597 6.597 0 01-.798.432 5.934 5.934 0 01-1.763.495c-.612.067-1.25.04-1.835-.162-.583-.195-1.104-.54-1.469-1.002.582.102 1.102.18 1.612.154.251-.002.498-.028.74-.064.242-.034.482-.084.716-.157.47-.14.924-.335 1.361-.572.222-.112.435-.244.648-.372l.313-.202.288-.194.044-.029a.71.71 0 01.886 1.103" fill="#371A45"></path>
    <path d="M97.08 44.898a.383.383 0 01-.406-.358l-.704-11.01a.383.383 0 01.358-.406 4.019 4.019 0 014.266 3.753l.24 3.754a4.018 4.018 0 01-3.754 4.266" fill="#fff"></path>
    <path d="M96.59 33.193c-.086 0-.171.002-.257.008a.305.305 0 00-.287.325l.704 11.009c.01.169.157.3.326.287a3.916 3.916 0 002.707-1.33 3.915 3.915 0 00.975-2.855l-.24-3.754a3.915 3.915 0 00-1.33-2.708 3.912 3.912 0 00-2.598-.982zm.49 11.705h.002-.002zm-.024.076a.46.46 0 01-.458-.43l-.704-11.008a.46.46 0 01.429-.487 4.099 4.099 0 014.347 3.824l.24 3.754a4.072 4.072 0 01-1.012 2.966 4.067 4.067 0 01-2.813 1.38l-.029.002z" fill="#371A45"></path>
    <path d="M97.654 44.09c.163-.802.276-1.618.337-2.445a4.008 4.008 0 002.101-1.48l.033.512a3.312 3.312 0 01-2.47 3.413z" fill="#B9AFBE"></path>
    <path d="M96.7 33.828l.66 10.324a3.312 3.312 0 002.765-3.475l-.24-3.754a3.285 3.285 0 00-1.116-2.272 3.284 3.284 0 00-2.069-.823zm.38 11.07h.002-.002zm-.025.71c-.57 0-1.053-.445-1.09-1.023l-.704-11.008a1.094 1.094 0 011.022-1.16 4.694 4.694 0 013.424 1.168 4.694 4.694 0 011.595 3.248l.24 3.754a4.695 4.695 0 01-1.168 3.424 4.699 4.699 0 01-3.319 1.598" fill="#371A45"></path>
    <path d="M59.992 35.448a.383.383 0 01.406.357l.704 11.009a.382.382 0 01-.358.406 4.017 4.017 0 01-4.266-3.753l-.24-3.753a4.018 4.018 0 013.754-4.266" fill="#fff"></path>
    <path d="M59.996 35.524a3.916 3.916 0 00-2.707 1.33 3.915 3.915 0 00-.974 2.855l.24 3.753a3.916 3.916 0 001.33 2.708 3.914 3.914 0 002.855.975.305.305 0 00.286-.326l-.704-11.009a.306.306 0 00-.326-.286zm.486 11.781a4.065 4.065 0 01-2.698-1.02 4.07 4.07 0 01-1.382-2.813l-.24-3.754a4.067 4.067 0 011.012-2.965 4.067 4.067 0 012.813-1.381.46.46 0 01.487.428l.704 11.009a.456.456 0 01-.429.488c-.09.005-.178.008-.267.008z" fill="#371A45"></path>
    <path d="M60.072 46.494a3.283 3.283 0 01-1.769-.8 3.284 3.284 0 01-1.116-2.272l-.033-.515a4.012 4.012 0 002.246 1.075c.168.854.393 1.693.672 2.512" fill="#B9AFBE"></path>
    <path d="M59.712 36.193a3.312 3.312 0 00-2.765 3.475l.24 3.754a3.285 3.285 0 001.116 2.272c.58.511 1.306.797 2.069.823l-.66-10.324zm.772 11.746a4.734 4.734 0 01-4.714-4.426l-.24-3.754a4.698 4.698 0 011.169-3.425 4.695 4.695 0 013.247-1.595 1.093 1.093 0 011.16 1.021l.704 11.009c.02.29-.077.572-.27.791-.193.22-.46.35-.75.37a6.288 6.288 0 01-.306.009z" fill="#371A45"></path>
    <path d="M97.335 40.307c-.074 10.381-8.55 18.737-18.931 18.662-10.381-.074-18.737-8.55-18.663-18.931.075-10.381 8.55-18.737 18.932-18.663 10.381.075 18.737 8.55 18.662 18.932" fill="#fff"></path>
    <path d="M78.534 21.451c-4.949 0-9.61 1.91-13.139 5.39a18.599 18.599 0 00-5.578 13.198c-.035 5 1.878 9.716 5.389 13.277a18.597 18.597 0 0013.198 5.577 18.61 18.61 0 0013.277-5.388 18.6 18.6 0 005.578-13.199 18.6 18.6 0 00-5.388-13.276 18.6 18.6 0 00-13.2-5.579h-.137zm.006 37.595h-.137c-10.407-.075-18.812-8.602-18.738-19.008.074-10.36 8.527-18.74 18.871-18.74a18.749 18.749 0 0113.443 5.624 18.75 18.75 0 015.432 13.386c-.074 10.36-8.527 18.738-18.87 18.738" fill="#371A45"></path>
    <path d="M78.519 58.26h-.11a17.953 17.953 0 01-10.603-3.523c2.809 1.349 6.486 2.443 10.412 2.443l.355-.003c4.287-.073 8.021-1.188 10.824-2.535-3.122 2.352-6.9 3.618-10.878 3.618z" fill="#B9AFBE"></path>
    <path d="M78.535 22.085a17.966 17.966 0 00-12.695 5.207 17.968 17.968 0 00-5.389 12.751 17.97 17.97 0 005.206 12.828A17.97 17.97 0 0078.41 58.26c4.837.028 9.387-1.815 12.827-5.206a17.97 17.97 0 005.39-12.752 17.97 17.97 0 00-5.207-12.828 17.969 17.969 0 00-12.751-5.388h-.133zm.007 37.595H78.4a19.381 19.381 0 01-13.753-5.812 19.379 19.379 0 01-5.615-13.835 19.38 19.38 0 015.812-13.753 19.376 19.376 0 0113.834-5.614 19.38 19.38 0 0113.753 5.812 19.379 19.379 0 015.615 13.834 19.378 19.378 0 01-5.812 13.753 19.377 19.377 0 01-13.69 5.615" fill="#371A45"></path>
    <path d="M97.272 40.79c.03 3.678-1.138 7.102-3.157 9.944-1.514 2.13-7.778 5.888-15.55 6.02-7.204.121-13.79-3.668-15.339-5.775-2.064-2.809-3.285-6.214-3.315-9.892-.077-9.734 8.254-13.836 18.571-13.918 10.317-.082 18.712 3.887 18.79 13.62" fill="#371A45"></path>
    <path d="M78.763 27.591c-.094 0-.187 0-.277.002-5.49.043-18.247 1.445-18.15 13.49.027 3.47 1.145 6.805 3.232 9.645 1.46 1.987 7.736 5.604 14.657 5.605l.334-.003c7.814-.133 13.854-3.932 15.21-5.841 2.042-2.874 3.107-6.226 3.08-9.696-.095-11.846-12.456-13.202-18.086-13.202zm-.546 29.589c-7.297 0-13.74-3.783-15.332-5.95-2.193-2.984-3.368-6.491-3.397-10.14-.038-4.752 1.838-8.43 5.575-10.934 3.266-2.187 7.905-3.367 13.416-3.41 5.512-.046 10.168 1.061 13.468 3.197 3.777 2.443 5.71 6.091 5.748 10.843.03 3.65-1.09 7.174-3.235 10.193-1.487 2.093-7.674 6.059-15.887 6.198-.118.002-.237.003-.355.003z" fill="#371A45"></path>
    <path d="M90.926 42.82c-.1 0-.202-.01-.303-.027-1.312-.227-2.121-1.878-1.808-3.689.29-1.67 1.433-2.892 2.64-2.892.1 0 .201.008.302.025 1.06.184 1.792 1.297 1.87 2.674a21.236 21.236 0 01-.543 2.399c-.512.92-1.32 1.51-2.158 1.51zm-2.754 4.817c-.116 0-.233-.018-.348-.055-.689-.22-1.04-1.05-.782-1.853.214-.67.783-1.11 1.365-1.11.117 0 .234.018.348.055.69.22 1.04 1.05.783 1.854-.215.67-.783 1.109-1.366 1.109z" fill="#C3BAC7"></path>
    <path d="M78.225 56.333c-2.165 0-4.266-.355-6.177-.902 8.983-.684 16.058-5.02 17.856-7.551a21.713 21.713 0 003.18-6.57c.225-.405.393-.873.481-1.384.06-.347.08-.689.061-1.015.197-1.19.295-2.41.284-3.652a19.38 19.38 0 00-.224-2.84c1.879 1.937 3.133 4.632 3.162 8.374.028 3.47-1.037 6.822-3.079 9.696-1.356 1.909-7.396 5.708-15.21 5.84a19.66 19.66 0 01-.334.004" fill="#2A1A3B"></path>
    <path d="M78.22 56.757c-2.62 0-5.149-.51-7.372-1.257a31.86 31.86 0 001.2-.069c1.91.547 4.012.902 6.177.902l.334-.003c7.814-.133 13.854-3.932 15.21-5.841 2.042-2.874 3.107-6.226 3.08-9.696-.03-3.742-1.285-6.437-3.163-8.373-.036-.23-.076-.458-.12-.683 2.301 2.162 3.674 5.142 3.706 9.052.029 3.679-1.139 7.103-3.157 9.945-1.514 2.13-7.779 5.887-15.55 6.02a18.1 18.1 0 01-.345.003" fill="#2A1A3B"></path>
    <path d="M93.084 41.31c.225-.784.407-1.584.542-2.4a4.516 4.516 0 01-.542 2.4" fill="#858290"></path>
    <path d="M61.253 32.775h.002-.002zm.56.436l-1.114-.88.523.42-.558-.373c3.3-4.94 9.749-7.811 17.692-7.874 7.893-.06 14.372 2.609 17.804 7.33a.709.709 0 11-1.14.846c-3.157-4.352-9.229-6.819-16.653-6.756-7.465.059-13.487 2.699-16.522 7.243a.538.538 0 01-.032.044" fill="#371A45"></path>
    <path d="M64.153 46.844s-3.092-9.579 2.053-13.447c3.837-2.884 8.954-3.642 11.237-3.642.778 0 1.226.088 1.183.21 0 0-8.227 2.061-11.4 8.603-2.447 5.044-3.073 8.276-3.073 8.276z" fill="#C3BAC7"></path>
    <path d="M90.4 67.722l.508 3.925.396 3.053c.108.83-.442 1.6-1.264 1.768-.528.108-1.184.234-1.939.364-2.686.464-6.64.982-10.613.921a1.595 1.595 0 01-1.567-1.555l-.205-8.105a1.595 1.595 0 011.635-1.635c2.76.071 8.26.162 11.325-.12a1.591 1.591 0 011.723 1.384z" fill="#fff"></path>
    <path d="M77.229 66.46l-3.222.344a1.358 1.358 0 00-1.214 1.392l.246 8.04c.021.701.573 1.27 1.272 1.314l2.978.187-.06-11.277" fill="#fff"></path>
    <path d="M75.456 76.994l-1.105-.07a.728.728 0 01-.686-.707l-.035-1.172a28.714 28.714 0 001.668 1.25c.015.246.07.481.157.699" fill="#CDC6D0"></path>
    <path d="M77.31 67.084c-.258 0-.5.1-.683.284a.959.959 0 00-.284.71l.205 8.104c.013.522.43.937.949.945 4.982.075 9.92-.765 12.419-1.273a.972.972 0 00.766-1.074l-.904-6.978a.962.962 0 00-1.044-.84c-3.06.281-8.455.198-11.399.123h-.025zm.832 11.301c-.221 0-.443-.001-.664-.004a2.214 2.214 0 01-2.183-2.167l-.205-8.105a2.202 2.202 0 01.65-1.628 2.207 2.207 0 011.627-.65c2.916.075 8.255.158 11.252-.118a2.213 2.213 0 012.402 1.928l.904 6.978a2.23 2.23 0 01-1.759 2.463c-2.438.496-7.153 1.303-12.024 1.303z" fill="#371A45"></path>
    <path d="M77.289 78.364c-.013 0-.026 0-.04-.002l-2.977-.186a1.976 1.976 0 01-1.86-1.921l-.245-8.04a1.994 1.994 0 011.774-2.034l3.222-.344a.627.627 0 01.133 1.246l-3.222.344a.735.735 0 00-.654.75l.245 8.04a.73.73 0 00.686.708l2.977.186a.627.627 0 01-.039 1.253m6.795-.276a.627.627 0 01-.625-.59l-.24-4.106-2.08-1.403a.628.628 0 01-.274-.477l-.34-4.945a.627.627 0 011.25-.086l.32 4.64 2.082 1.405a.63.63 0 01.276.483l.257 4.416a.627.627 0 01-.626.663" fill="#371A45"></path>
    <path d="M89.931 71.47c.026.25-.115 2.293-.115 2.293l-1.417.148c-.976.1-1.871-.827-2.001-2.073-.13-1.246.556-2.338 1.532-2.44l1.417-.147s.542 1.814.584 2.22z" fill="#22A7F0"></path>
    <path d="M89.93 71.47c.027.25-.114 2.293-.114 2.293l-.046.005c.036-.59.073-1.29.059-1.43-.042-.405-.584-2.22-.584-2.22l-1.417.148c-.681.07-1.223.627-1.443 1.38-.046-1.165.62-2.152 1.545-2.248l1.417-.147s.542 1.814.584 2.22" fill="#fff"></path>
    <path d="M88.96 69.826l-.975.102c-.67.07-1.155.919-1.058 1.855.098.936.748 1.665 1.417 1.598l.97-.101c.074-1.135.093-1.655.087-1.758-.016-.139-.14-.655-.44-1.696zm-.705 4.625c-1.186 0-2.235-1.102-2.387-2.558-.16-1.536.74-2.893 2.007-3.025l.989-.102c.506-.054.974.263 1.115.75.443 1.528.472 1.807.481 1.9.008.073.026.246-.084 1.948a1.046 1.046 0 01-.938.974l-.984.102c-.066.007-.133.01-.199.01z" fill="#371A45"></path>
    <path d="M91.348 71.323c.13 1.246-.556 2.339-1.532 2.44-.976.102-1.872-.826-2.001-2.072-.13-1.246.556-2.339 1.532-2.44.975-.102 1.871.826 2 2.072z" fill="#22A7F0"></path>
    <path d="M91.347 71.323c.016.15.02.3.012.444-.27-1.016-1.063-1.72-1.92-1.632-.858.09-1.491.945-1.543 1.997a2.868 2.868 0 01-.082-.442c-.13-1.246.557-2.338 1.533-2.44.975-.101 1.87.827 2 2.073" fill="#fff"></path>
    <path d="M89.492 69.775c-.03 0-.06.002-.09.005-.306.032-.584.225-.785.544-.226.361-.323.827-.273 1.311.051.485.242.921.537 1.227.262.272.575.404.88.372.305-.032.584-.226.784-.545.227-.36.323-.826.273-1.31-.05-.486-.24-.921-.537-1.227-.236-.245-.513-.377-.79-.377zm.174 4.529c-.566 0-1.11-.245-1.551-.702-.46-.477-.755-1.136-.83-1.856-.075-.72.078-1.426.43-1.988.379-.602.938-.97 1.577-1.037.638-.067 1.261.179 1.755.69.46.477.756 1.137.83 1.857.075.72-.077 1.427-.43 1.987-.378.603-.938.971-1.576 1.038a1.99 1.99 0 01-.205.01" fill="#371A45"></path>
    <path d="M59.74 69.293s4.239 1.918 14.32 1.572c0 0 1.847 1.77 0 3.232-1.847 1.462-12.242 2.303-15.019-.693-1.758-1.897.7-4.111.7-4.111" fill="#fff"></path>
    <path d="M66.666 74.785c-2.938 0-5.934-.478-7.165-1.807-.33-.357-.483-.737-.465-1.16.007-.165.038-.326.086-.484 1.409 1.41 4.554 1.935 7.62 1.935 1.617 0 3.211-.145 4.519-.384.414.427.836.833 1.265 1.219-1.367.397-3.597.681-5.86.681" fill="#CDC6D0"></path>
    <path d="M59.901 70.028c-.323.367-.834 1.06-.865 1.79-.018.423.134.803.465 1.16 2.544 2.745 12.61 1.861 14.17.627.375-.297.566-.607.582-.948.02-.44-.256-.894-.464-1.157-8.281.253-12.594-1.006-13.888-1.472zm6.84 6.022c-2.354 0-6.382-.302-8.16-2.22-.563-.609-.832-1.306-.797-2.073.071-1.592 1.477-2.876 1.537-2.93l.304-.275.372.169c.065.028 4.299 1.852 14.041 1.517l.264-.01.191.184c.11.105 1.07 1.063 1.012 2.305-.023.49-.226 1.213-1.056 1.87-1.239.981-4.78 1.446-7.546 1.462h-.162" fill="#371A45"></path>
    <path d="M89.62 86.79c-.959 0-1.864-.193-2.594-.651a5.723 5.723 0 01-1.655-1.57 8.27 8.27 0 00-.818-1.47 7.635 7.635 0 00-.966-1.123 8.966 8.966 0 00-.178-.162 61.671 61.671 0 011.522-.443c.83.825 1.239 1.726 2.407 2.668.238.192.508.386.82.581.73.458 1.534.65 2.346.65 1.074 0 2.163-.337 3.117-.843.912-.484 1.701-1.122 2.236-1.769.564-.682.98-1.292 1.116-1.933.335 1.29-.099 2.432-.942 3.453-.779.94-2.439 1.864-4.224 2.32a9.417 9.417 0 00-1.833.283 7.397 7.397 0 01-.354.009" fill="#CDC6D0"></path>
    <path d="M83.409 81.814a8.99 8.99 0 00-.734-.58 64.65 64.65 0 011.54-.458.542.542 0 01.067.04c.248.18.46.366.65.555-.508.14-1.015.288-1.523.444m6.565 4.966a9.41 9.41 0 011.833-.284 9.274 9.274 0 01-1.833.284z" fill="#371A45"></path>
    <path d="M85.37 84.57c-.757-1.055-1.136-2.153-2.154-2.893-.09-.066-.363-.185-.78-.368l.239-.075a8.987 8.987 0 01.912.742c.359.34.682.722.966 1.122.327.465.596.96.818 1.472" fill="#371A45"></path>
    <path d="M74.88 60.976c5.49 6.849 14.547 11.048 19.958 15.93 2.965 2.675 2.498 3.962 1.02 5.752-1.517 1.834-5.08 3.604-7.7 1.962-2.188-1.371-2.324-2.674-3.875-3.804-.612-.446-10.454-3.057-15.918-11.573l6.516-8.267" fill="#fff"></path>
    <path d="M96.973 80.725a2.15 2.15 0 00-.016-.966v-.001c.082.338.082.656.016.967z" fill="#CDC6D0"></path>
    <path d="M79.923 78.97zm-4.624-2.675z" fill="#A79BAD"></path>
    <path d="M78.748 78.381zm-2.3-1.325zm1.442.859z" fill="#371A45"></path>
    <path d="M68.365 69.243l.112-.142-.112.142" fill="#CDC6D0"></path>
    <path d="M93.62 84.427c.913-.484 1.702-1.123 2.237-1.77.564-.682.981-1.291 1.116-1.933v.001c-.135.641-.552 1.25-1.116 1.933-.535.647-1.324 1.285-2.236 1.77zm-6.282-.388c-1.168-.942-1.578-1.843-2.407-2.668h.001c.828.825 1.238 1.726 2.406 2.668z" fill="#A79BAD"></path>
    <path d="M84.931 81.37a5.497 5.497 0 00-.65-.554.54.54 0 01.001 0c.249.18.46.366.65.555" fill="#371A45"></path>
    <path d="M90.504 85.27c-.812 0-1.615-.193-2.346-.65a8.513 8.513 0 01-.82-.581c-1.168-.942-1.577-1.843-2.406-2.668a5.477 5.477 0 00-.65-.555.54.54 0 00-.067-.04 3.373 3.373 0 00-.235-.105c-.64-.262-2.15-.786-4.057-1.7a35.974 35.974 0 01-2.033-1.056 32.77 32.77 0 01-2.591-1.62 29.503 29.503 0 01-.774-.556c-2.204-1.64-4.407-3.765-6.16-6.496l.112-.142c6.094 6.406 12.445 6.79 16.664 10.036 1.52 1.17 1.652 1.558 3.841 2.928.73.458 1.534.65 2.346.65 2.101 0 4.26-1.289 5.352-2.61.098-.118.19-.233.277-.346.081.337.082.655.017.965-.136.642-.553 1.251-1.117 1.934-.535.646-1.324 1.285-2.236 1.77-.954.505-2.043.842-3.117.842" fill="#CDC6D0"></path>
    <path d="M75.065 60.828c1.166.822 2.127 1.757 3.156 2.653 1.01.907 2.047 1.792 3.094 2.672a58.32 58.32 0 003.3 2.465c1.125.796 2.272 1.569 3.418 2.349 1.146.782 2.3 1.558 3.434 2.378.285.2.568.407.848.619.28.21.564.417.842.631.552.44 1.11.868 1.641 1.34.54.453 1.073.946 1.572 1.495.122.144.245.283.364.43.115.158.232.31.34.474l.156.258.077.13c.024.045.045.094.068.142l.13.286c.038.1.068.208.101.313.12.42.168.907.069 1.354-.09.445-.266.847-.47 1.188a8.15 8.15 0 01-.66.929 7.242 7.242 0 01-.37.431c-.126.15-.27.274-.407.409a8.652 8.652 0 01-1.85 1.295 8.119 8.119 0 01-2.137.773 5.95 5.95 0 01-2.344.029l-.295-.069a1.692 1.692 0 01-.29-.085c-.188-.073-.384-.131-.564-.223-.178-.095-.362-.19-.532-.29-.156-.104-.314-.201-.466-.313a8.429 8.429 0 01-1.643-1.547c-.468-.571-.842-1.118-1.28-1.53-.052-.056-.112-.103-.168-.153-.055-.05-.112-.1-.173-.145l-.09-.07-.044-.035-.023-.017c-.01-.009 0 .002-.001.001a.026.026 0 00.013.008l-.037-.017c-.03-.012-.053-.024-.093-.04-.291-.12-.626-.245-.95-.37a47.76 47.76 0 01-1.951-.8c-2.584-1.132-5.066-2.54-7.304-4.295a29.161 29.161 0 01-1.632-1.373c-.52-.485-1.057-.956-1.55-1.473a9.252 9.252 0 01-.71-.805 5.56 5.56 0 01-.325-.426 7.507 7.507 0 01-.819-1.39 5.74 5.74 0 01-.344-1.043.252.252 0 01.386-.263l.012.007c.31.209.564.446.821.68.262.228.49.478.729.718.117.122.231.246.343.371.111.126.23.245.342.37.115.123.227.248.336.375.114.124.227.248.338.374.442.505.906.996 1.4 1.455.5.451 1.013.891 1.548 1.305 2.128 1.668 4.506 3.02 6.998 4.111.623.274 1.255.53 1.895.778.323.125.638.241.988.385.04.016.096.042.145.064.027.013.045.02.08.038a2.3 2.3 0 01.126.073l.054.035.03.022.057.045.116.09c.154.119.3.252.441.386.57.544.98 1.154 1.392 1.651.41.503.856.926 1.374 1.295.127.094.265.178.396.268l.382.206c.127.068.268.103.4.159.067.03.137.046.209.06l.212.05c.57.113 1.18.094 1.783-.029 1.204-.25 2.385-.878 3.305-1.72.11-.108.23-.21.327-.326.1-.112.203-.223.306-.357.21-.256.39-.511.544-.764a2.37 2.37 0 00.299-.732c.054-.233.026-.457-.04-.7-.14-.484-.498-1.002-.929-1.475a14.834 14.834 0 00-1.44-1.366c-.505-.45-1.048-.865-1.58-1.29-.27-.208-.548-.41-.821-.615-.273-.207-.55-.41-.831-.607-1.113-.804-2.26-1.576-3.404-2.357-1.146-.78-2.298-1.556-3.437-2.362-1.144-.795-2.262-1.638-3.39-2.473-1.11-.859-2.22-1.733-3.203-2.755-1.01-.985-1.896-2.125-2.51-3.427a.243.243 0 01.36-.303l.01.007" fill="#371A45"></path>
    <path d="M75.307 76.927a.627.627 0 01-.61-.775c.086-.35 2.146-8.522 7.837-8.522h.093a.627.627 0 01.617.637.621.621 0 01-.636.617h-.07c-4.723 0-6.604 7.489-6.623 7.565a.627.627 0 01-.608.478m23.21-12.953a.625.625 0 01-.306-.08c-3.16-1.776-3.391-10.319-3.407-11.287a.627.627 0 01.616-.637h.01c.342 0 .621.273.627.616.04 2.431.617 9.007 2.768 10.214a.627.627 0 01-.308 1.174m5.189-16.032c.007.039.01.112.014.172l.012.192c.011.13.015.26.028.39.017.264.05.526.088.79.036.266.092.53.144.805.041.283.112.56.147.897a2.181 2.181 0 01-.759-.597 2.9 2.9 0 01-.276-.394c-.073-.14-.152-.282-.211-.43a4.024 4.024 0 01-.331-1.643 2.3 2.3 0 01.022-.265.56.56 0 011.106-.016l.016.099" fill="#371A45"></path>
  </symbol>
</svg>