<svg width="706" height="706" viewBox="0 0 706 706" fill="none" xmlns="http://www.w3.org/2000/svg">
<path d="M353 631C513.715 631 644 500.715 644 340C644 179.285 513.715 49 353 49C192.285 49 62 179.285 62 340C62 500.715 192.285 631 353 631Z" fill="#ECAD7A"/>
<mask id="mask0" mask-type="alpha" maskUnits="userSpaceOnUse" x="62" y="49" width="582" height="582">
<path d="M353 631C513.715 631 644 500.715 644 340C644 179.285 513.715 49 353 49C192.285 49 62 179.285 62 340C62 500.715 192.285 631 353 631Z" fill="white"/>
</mask>
<g mask="url(#mask0)">
<path fill-rule="evenodd" clip-rule="evenodd" d="M100 343C106.627 343 112 348.373 112 355C112 361.627 106.627 367 100 367H-56C-62.627 367 -68 361.627 -68 355C-68 348.373 -62.627 343 -56 343H100ZM320 343C326.627 343 332 348.373 332 355C332 361.627 326.627 367 320 367H242V367.01C235.605 367.272 230.5 372.54 230.5 379C230.5 385.46 235.605 390.728 242 390.99V391H402C408.627 391 414 396.373 414 403C414 409.627 408.627 415 402 415H145C138.373 415 133 409.627 133 403C133 396.373 138.373 391 145 391H194C200.627 391 206 385.627 206 379C206 372.373 200.627 367 194 367H164C157.373 367 152 361.627 152 355C152 348.373 157.373 343 164 343H320ZM115 439C121.627 439 127 444.373 127 451C127 457.627 121.627 463 115 463H42C35.373 463 30 457.627 30 451C30 444.373 35.373 439 42 439H115ZM402 439C408.627 439 414 444.373 414 451C414 457.627 408.627 463 402 463H329C322.373 463 317 457.627 317 451C317 444.373 322.373 439 329 439H402ZM666 451C666 444.373 660.627 439 654 439H488C481.373 439 476 444.373 476 451C476 457.627 481.373 463 488 463H654C660.627 463 666 457.627 666 451ZM476 367C482.627 367 488 372.373 488 379C488 385.627 482.627 391 476 391H467C460.373 391 455 396.373 455 403C455 409.627 460.373 415 467 415H724C730.627 415 736 409.627 736 403C736 396.373 730.627 391 724 391H524V390.99C517.605 390.728 512.5 385.46 512.5 379C512.5 372.54 517.605 367.272 524 367.01V367H548C554.627 367 560 361.627 560 355C560 348.373 554.627 343 548 343H392C385.373 343 380 348.373 380 355C380 361.627 385.373 367 392 367H476ZM774 355C774 348.373 768.627 343 762 343H606C599.373 343 594 348.373 594 355C594 361.627 599.373 367 606 367H762C768.627 367 774 361.627 774 355Z" fill="#F0D29F"/>
</g>
<mask id="mask1" mask-type="alpha" maskUnits="userSpaceOnUse" x="62" y="49" width="582" height="582">
<path d="M353 631C513.715 631 644 500.715 644 340C644 179.285 513.715 49 353 49C192.285 49 62 179.285 62 340C62 500.715 192.285 631 353 631Z" fill="white"/>
</mask>
<g mask="url(#mask1)">
<path d="M221 451C221 444.373 215.627 439 209 439H180C173.373 439 168 433.627 168 427C168 420.373 173.373 415 180 415H281C287.627 415 293 420.373 293 427C293 433.627 287.627 439 281 439H278L277.999 439.01C271.604 439.273 266.5 444.54 266.5 451C266.5 457.46 271.604 462.727 277.999 462.99L278 463H281C287.627 463 293 468.373 293 475C293 481.627 287.627 487 281 487H205C198.373 487 193 481.627 193 475C193 468.373 198.373 463 205 463H209C215.627 463 221 457.627 221 451Z" fill="#D86534"/>
</g>
<mask id="mask2" mask-type="alpha" maskUnits="userSpaceOnUse" x="62" y="49" width="582" height="582">
<path d="M353 631C513.715 631 644 500.715 644 340C644 179.285 513.715 49 353 49C192.285 49 62 179.285 62 340C62 500.715 192.285 631 353 631Z" fill="white"/>
</mask>
<g mask="url(#mask2)">
<path fill-rule="evenodd" clip-rule="evenodd" d="M528 103C521.373 103 516 108.373 516 115C516 121.627 521.373 127 528 127H684C690.627 127 696 121.627 696 115C696 108.373 690.627 103 684 103H528ZM308 103C301.373 103 296 108.373 296 115C296 121.627 301.373 127 308 127H386V127.01C392.395 127.272 397.5 132.54 397.5 139C397.5 145.46 392.395 150.728 386 150.99V151H226C219.373 151 214 156.373 214 163C214 169.627 219.373 175 226 175H483C489.627 175 495 169.627 495 163C495 156.373 489.627 151 483 151H434C427.373 151 422 145.627 422 139C422 132.373 427.373 127 434 127H464C470.627 127 476 121.627 476 115C476 108.373 470.627 103 464 103H308ZM513 199C506.373 199 501 204.373 501 211C501 217.627 506.373 223 513 223H586C592.627 223 598 217.627 598 211C598 204.373 592.627 199 586 199H513ZM226 199C219.373 199 214 204.373 214 211C214 217.627 219.373 223 226 223H299C305.627 223 311 217.627 311 211C311 204.373 305.627 199 299 199H226ZM-38 211C-38 204.373 -32.627 199 -26 199H140C146.627 199 152 204.373 152 211C152 217.627 146.627 223 140 223H-26C-32.627 223 -38 217.627 -38 211ZM152 127C145.373 127 140 132.373 140 139C140 145.627 145.373 151 152 151H161C167.627 151 173 156.373 173 163C173 169.627 167.627 175 161 175H-96C-102.627 175 -108 169.627 -108 163C-108 156.373 -102.627 151 -96 151H104V150.99C110.395 150.728 115.5 145.46 115.5 139C115.5 132.54 110.395 127.272 104 127.01V127H80C73.373 127 68 121.627 68 115C68 108.373 73.373 103 80 103H236C242.627 103 248 108.373 248 115C248 121.627 242.627 127 236 127H152ZM-146 115C-146 108.373 -140.627 103 -134 103H22C28.627 103 34 108.373 34 115C34 121.627 28.627 127 22 127H-134C-140.627 127 -146 121.627 -146 115Z" fill="#DC8E61"/>
</g>
<mask id="mask3" mask-type="alpha" maskUnits="userSpaceOnUse" x="62" y="49" width="582" height="582">
<path d="M353 631C513.715 631 644 500.715 644 340C644 179.285 513.715 49 353 49C192.285 49 62 179.285 62 340C62 500.715 192.285 631 353 631Z" fill="white"/>
</mask>
<g mask="url(#mask3)">
<path fill-rule="evenodd" clip-rule="evenodd" d="M686 487C679.373 487 674 492.373 674 499C674 505.627 679.373 511 686 511H842C848.627 511 854 505.627 854 499C854 492.373 848.627 487 842 487H686ZM466 487C459.373 487 454 492.373 454 499C454 505.627 459.373 511 466 511H544V511.01C550.395 511.272 555.5 516.54 555.5 523C555.5 529.46 550.395 534.728 544 534.99V535H384C377.373 535 372 540.373 372 547C372 553.627 377.373 559 384 559H641C647.627 559 653 553.627 653 547C653 540.373 647.627 535 641 535H592C585.373 535 580 529.627 580 523C580 516.373 585.373 511 592 511H622C628.627 511 634 505.627 634 499C634 492.373 628.627 487 622 487H466ZM671 583C664.373 583 659 588.373 659 595C659 601.627 664.373 607 671 607H744C750.627 607 756 601.627 756 595C756 588.373 750.627 583 744 583H671ZM384 583C377.373 583 372 588.373 372 595C372 601.627 377.373 607 384 607H457C463.627 607 469 601.627 469 595C469 588.373 463.627 583 457 583H384ZM120 595C120 588.373 125.373 583 132 583H298C304.627 583 310 588.373 310 595C310 601.627 304.627 607 298 607H132C125.373 607 120 601.627 120 595ZM310 511C303.373 511 298 516.373 298 523C298 529.627 303.373 535 310 535H319C325.627 535 331 540.373 331 547C331 553.627 325.627 559 319 559H62C55.373 559 50 553.627 50 547C50 540.373 55.373 535 62 535H262V534.99C268.395 534.728 273.5 529.46 273.5 523C273.5 516.54 268.395 511.272 262 511.01V511H238C231.373 511 226 505.627 226 499C226 492.373 231.373 487 238 487H394C400.627 487 406 492.373 406 499C406 505.627 400.627 511 394 511H310ZM12 499C12 492.373 17.373 487 24 487H180C186.627 487 192 492.373 192 499C192 505.627 186.627 511 180 511H24C17.373 511 12 505.627 12 499Z" fill="#D89D6D"/>
</g>
<mask id="mask4" mask-type="alpha" maskUnits="userSpaceOnUse" x="62" y="49" width="582" height="582">
<path d="M353 631C513.715 631 644 500.715 644 340C644 179.285 513.715 49 353 49C192.285 49 62 179.285 62 340C62 500.715 192.285 631 353 631Z" fill="white"/>
</mask>
<g mask="url(#mask4)">
<path fill-rule="evenodd" clip-rule="evenodd" d="M239 271C245.627 271 251 276.373 251 283C251 289.627 245.627 295 239 295H229C222.373 295 217 300.373 217 307C217 313.627 222.373 319 229 319H318C324.627 319 330 313.627 330 307C330 300.373 324.627 295 318 295H308L307.999 294.99C301.604 294.727 296.5 289.46 296.5 283C296.5 276.54 301.604 271.273 307.999 271.01L308 271H373C379.627 271 385 265.627 385 259C385 252.373 379.627 247 373 247H174C167.373 247 162 252.373 162 259C162 265.627 167.373 271 174 271H239ZM193 307C193 300.373 187.627 295 181 295H119C112.373 295 107 300.373 107 307C107 313.627 112.373 319 119 319H181C187.627 319 193 313.627 193 307ZM71 295C77.627 295 83 300.373 83 307C83 313.627 77.627 319 71 319H43C36.373 319 31 313.627 31 307C31 300.373 36.373 295 43 295H71ZM546 307C546 300.373 540.627 295 534 295H366C359.373 295 354 300.373 354 307C354 313.627 359.373 319 366 319H534C540.627 319 546 313.627 546 307ZM610 295C616.627 295 622 300.373 622 307C622 313.627 616.627 319 610 319H582C575.373 319 570 313.627 570 307C570 300.373 575.373 295 582 295H610ZM575 259C575 252.373 569.627 247 563 247H421C414.373 247 409 252.373 409 259C409 265.627 414.373 271 421 271H563C569.627 271 575 265.627 575 259ZM661 247C667.627 247 673 252.373 673 259C673 265.627 667.627 271 661 271H611C604.373 271 599 265.627 599 259C599 252.373 604.373 247 611 247H661ZM114 259C114 252.373 108.627 247 102 247H74C67.373 247 62 252.373 62 259C62 265.627 67.373 271 74 271H102C108.627 271 114 265.627 114 259Z" fill="#D89D6D"/>
</g>
<mask id="mask5" mask-type="alpha" maskUnits="userSpaceOnUse" x="62" y="49" width="582" height="582">
<path d="M353 631C513.715 631 644 500.715 644 340C644 179.285 513.715 49 353 49C192.285 49 62 179.285 62 340C62 500.715 192.285 631 353 631Z" fill="white"/>
</mask>
<g mask="url(#mask5)">
<path opacity="0.078" d="M353 49H645V631H353V49Z" fill="black"/>
</g>
<path d="M522.294 55.7478L441.266 126.646C438.054 129.458 435.65 133.075 434.3 137.125L426.562 160.341C425.747 162.788 424.542 165.089 422.993 167.152L402.428 194.564C399.449 198.536 397.775 203.335 397.637 208.299C397.5 213.263 398.905 218.148 401.659 222.28L432.066 267.892C434.859 272.081 438.898 275.286 443.612 277.054L513.098 303.115C516.661 304.452 520.492 304.921 524.273 304.486C528.053 304.051 531.677 302.722 534.843 300.611L542.449 295.541C546.831 292.62 550.131 288.339 551.84 283.357C553.549 278.376 553.572 272.971 551.907 267.975L542.958 241.129C540.993 235.236 541.389 228.81 544.064 223.202C546.738 217.594 551.482 213.242 557.299 211.059L612.375 190.406C615.939 189.07 619.769 188.6 623.55 189.036C627.331 189.471 630.954 190.799 634.12 192.91L634.356 193.068C637.188 194.955 640.39 196.219 643.748 196.776C647.106 197.332 650.544 197.168 653.834 196.294C657.124 195.421 660.19 193.857 662.83 191.708C665.47 189.559 667.622 186.873 669.145 183.829L681.397 159.322C683.853 154.408 684.55 148.8 683.37 143.435C682.191 138.07 679.207 133.271 674.917 129.841L650.078 109.968C645.788 106.537 642.804 101.738 641.625 96.3732C640.446 91.008 641.142 85.4006 643.598 80.4867C645.205 77.2717 646.07 73.7367 646.129 70.1426C646.188 66.5486 645.439 62.9871 643.938 59.7212C642.436 56.4553 640.22 53.5682 637.454 51.2731C634.687 48.978 631.441 47.3335 627.954 46.4608L577.348 33.8107C571.792 32.4232 565.923 33.0678 560.801 35.6281L527.367 52.3419C525.537 53.2559 523.832 54.4006 522.294 55.7478V55.7478Z" fill="#D1DEE0"/>
<path d="M681.402 141.491L669.147 165.997C667.625 169.042 665.473 171.728 662.834 173.877C660.194 176.027 657.128 177.59 653.838 178.464C650.548 179.337 647.11 179.501 643.752 178.945C640.394 178.388 637.192 177.124 634.36 175.236L634.125 175.078C630.958 172.967 627.335 171.639 623.554 171.204C619.773 170.769 615.943 171.239 612.379 172.576L557.304 193.229C551.488 195.412 546.744 199.764 544.07 205.371C541.396 210.978 540.999 217.404 542.964 223.297L543.437 224.715C544.664 221.595 546.533 218.767 548.923 216.416C551.313 214.064 554.17 212.241 557.31 211.064L612.385 190.41C615.948 189.074 619.778 188.604 623.559 189.04C627.34 189.475 630.963 190.802 634.13 192.913L634.366 193.07C637.198 194.959 640.399 196.223 643.757 196.779C647.115 197.336 650.553 197.171 653.843 196.298C657.133 195.424 660.199 193.861 662.839 191.712C665.478 189.562 667.631 186.876 669.153 183.832L681.407 159.324C682.924 156.291 683.781 152.971 683.922 149.583C684.062 146.194 683.482 142.815 682.221 139.667C681.97 140.283 681.701 140.891 681.402 141.491Z" fill="#B6C4C6"/>
<path d="M551.436 266.566C549.647 271.11 546.511 274.999 542.449 277.71L534.843 282.781C531.677 284.892 528.053 286.22 524.273 286.655C520.492 287.09 516.661 286.62 513.098 285.283L443.612 259.222C438.898 257.455 434.859 254.25 432.067 250.06L401.659 204.448C400.742 203.066 399.971 201.592 399.36 200.05C397.91 203.665 397.361 207.578 397.762 211.452C398.162 215.326 399.5 219.044 401.659 222.285L432.067 267.898C434.859 272.087 438.898 275.292 443.612 277.059L513.098 303.121C516.662 304.457 520.492 304.927 524.273 304.492C528.054 304.056 531.677 302.728 534.843 300.617L542.449 295.546C546.831 292.625 550.131 288.344 551.84 283.363C553.549 278.382 553.573 272.977 551.907 267.981L551.436 266.566Z" fill="#B6C4C6"/>
<path d="M227.504 357.917L258.443 330.415C261.83 327.405 266.119 325.601 270.639 325.287C275.16 324.974 279.657 326.167 283.427 328.68L307.437 344.688C311.056 347.101 315.348 348.299 319.694 348.111C324.039 347.922 328.211 346.356 331.608 343.639L367.605 314.842C369.941 312.973 372.657 311.638 375.563 310.931C378.469 310.223 381.495 310.161 384.428 310.748L428.375 319.537C429.603 319.783 430.805 320.14 431.967 320.605L433.08 321.049C447.421 326.787 459.124 337.641 465.924 351.509C472.725 365.377 474.141 381.275 469.897 396.127C465.656 410.971 456.062 423.716 442.971 431.898L413.038 450.606C388.219 466.118 359.541 474.343 330.274 474.344H230.53C218.596 474.344 207.062 470.039 198.046 462.22C189.031 454.401 183.138 443.592 181.45 431.778L179.842 420.518C179.427 417.611 179.641 414.649 180.47 411.833C181.299 409.016 182.724 406.41 184.647 404.192C186.571 401.973 188.949 400.194 191.621 398.975C194.292 397.756 197.194 397.125 200.13 397.125C202.822 397.125 205.487 396.595 207.973 395.565C210.46 394.536 212.719 393.026 214.623 391.123C216.526 389.22 218.035 386.96 219.065 384.474C220.095 381.987 220.625 379.322 220.625 376.63V373.234C220.625 370.34 221.238 367.479 222.423 364.839C223.609 362.199 225.341 359.84 227.504 357.917Z" fill="#D1DEE0"/>
<path d="M469.901 374.064C465.66 388.908 456.067 401.653 442.975 409.836L413.042 428.543C388.223 444.056 359.544 452.281 330.276 452.281H230.53C218.596 452.281 207.062 447.976 198.047 440.157C189.031 432.338 183.138 421.53 181.45 409.716L181.395 409.331C179.832 412.839 179.294 416.717 179.842 420.518L181.45 431.778C183.138 443.592 189.031 454.401 198.047 462.22C207.062 470.039 218.596 474.343 230.53 474.344H330.276C359.544 474.344 388.223 466.118 413.042 450.606L442.975 431.898C456.067 423.716 465.66 410.971 469.901 396.127C472.527 386.966 473.012 377.324 471.317 367.946C470.948 370.008 470.475 372.05 469.901 374.064V374.064Z" fill="#B6C4C6"/>
<path d="M527.607 487.268L520.362 494.513C516.264 498.61 513.014 503.475 510.796 508.828C508.579 514.182 507.437 519.92 507.438 525.715V551.562L501.631 568.984C500.03 573.787 497.243 578.108 493.528 581.548C489.813 584.988 485.291 587.435 480.379 588.663L480.12 588.728C472.617 590.604 466.125 595.296 461.989 601.831C457.853 608.366 456.392 616.242 457.909 623.825C459.358 631.07 463.568 637.467 469.648 641.664C475.729 645.861 483.203 647.528 490.491 646.314L511.828 642.758C514.002 642.396 516.229 642.511 518.354 643.097C520.479 643.682 522.451 644.724 524.133 646.148C525.815 647.573 527.166 649.347 528.093 651.347C529.02 653.347 529.5 655.524 529.5 657.729C529.5 661.754 531.099 665.614 533.945 668.461C536.792 671.307 540.652 672.906 544.678 672.906H580.116C585.054 672.906 589.943 671.934 594.506 670.044C599.068 668.154 603.213 665.385 606.705 661.893L628.803 639.795C632.295 636.302 635.064 632.155 636.953 627.592C638.842 623.029 639.814 618.138 639.813 613.2V584.656C648.59 584.656 657.007 581.17 663.213 574.963C669.42 568.757 672.906 560.34 672.906 551.562C672.906 542.785 669.42 534.368 663.213 528.162C657.007 521.955 648.59 518.469 639.813 518.469H617.75C617.75 506.766 613.101 495.543 604.826 487.268C596.551 478.993 585.328 474.344 573.625 474.344H558.809C553.014 474.344 547.276 475.485 541.922 477.703C536.569 479.92 531.704 483.171 527.607 487.268V487.268Z" fill="#D1DEE0"/>
<path d="M606.701 639.831C599.649 646.882 590.085 650.844 580.113 650.844H544.675C540.65 650.843 536.79 649.244 533.944 646.397C531.099 643.551 529.5 639.691 529.5 635.666C529.5 633.462 529.02 631.284 528.093 629.285C527.166 627.285 525.815 625.511 524.133 624.086C522.451 622.661 520.479 621.62 518.354 621.034C516.229 620.449 514.002 620.333 511.828 620.695L490.491 624.252C484.106 625.314 477.55 624.167 471.905 621.002C466.26 617.837 461.862 612.841 459.438 606.84C457.294 612.234 456.763 618.135 457.909 623.826C459.358 631.07 463.568 637.467 469.648 641.664C475.729 645.861 483.203 647.528 490.491 646.314L511.828 642.758C514.002 642.396 516.229 642.511 518.354 643.097C520.479 643.682 522.451 644.724 524.133 646.148C525.815 647.573 527.166 649.347 528.093 651.347C529.02 653.347 529.5 655.525 529.5 657.729C529.5 661.754 531.099 665.615 533.945 668.461C536.792 671.307 540.652 672.906 544.678 672.906H580.115C590.088 672.906 599.652 668.945 606.704 661.893L628.802 639.795C632.294 636.302 635.063 632.156 636.953 627.592C638.842 623.029 639.814 618.139 639.812 613.2V591.137C639.813 596.075 638.84 600.965 636.95 605.527C635.061 610.09 632.291 614.235 628.799 617.727L606.701 639.831Z" fill="#B6C4C6"/>
<path d="M639.812 562.594V584.656C648.59 584.656 657.007 581.17 663.213 574.963C669.42 568.757 672.906 560.34 672.906 551.562C672.908 547.805 672.269 544.074 671.016 540.531C668.733 546.983 664.507 552.569 658.919 556.52C653.331 560.471 646.656 562.593 639.812 562.594V562.594Z" fill="#B6C4C6"/>
<path d="M33.0938 557.078V579.141C33.0938 583.529 34.8371 587.738 37.9402 590.841C41.0434 593.944 45.2521 595.688 49.6406 595.688H60.6719C65.0604 595.688 69.2691 597.431 72.3723 600.534C75.4754 603.637 77.2188 607.846 77.2188 612.234V625.797C77.2188 635.366 81.0198 644.542 87.7857 651.308C94.5515 658.074 103.728 661.875 113.296 661.875H159.953C164.342 661.875 168.55 660.132 171.654 657.029C174.757 653.925 176.5 649.717 176.5 645.328C176.5 640.94 178.243 636.731 181.346 633.628C184.45 630.525 188.658 628.781 193.047 628.781H226.141C230.529 628.781 234.738 627.038 237.841 623.935C240.944 620.832 242.688 616.623 242.688 612.234V579.141C242.688 574.752 240.944 570.543 237.841 567.44C234.738 564.337 230.529 562.594 226.141 562.594H215.109C210.721 562.594 206.512 560.85 203.409 557.747C200.306 554.644 198.562 550.435 198.562 546.047C198.562 541.658 196.819 537.45 193.716 534.346C190.613 531.243 186.404 529.5 182.016 529.5H170.984C166.596 529.5 162.387 527.757 159.284 524.654C156.181 521.55 154.438 517.342 154.438 512.953C154.438 505.639 151.532 498.624 146.36 493.452C141.188 488.281 134.174 485.375 126.859 485.375H104.797C94.557 485.375 84.7366 489.443 77.4959 496.683C70.2553 503.924 66.1875 513.745 66.1875 523.984C66.1875 528.373 64.4442 532.582 61.341 535.685C58.2379 538.788 54.0291 540.531 49.6406 540.531C45.2521 540.531 41.0434 542.275 37.9402 545.378C34.8371 548.481 33.0938 552.69 33.0938 557.078Z" fill="#D1DEE0"/>
<path d="M226.141 606.719H193.047C188.658 606.719 184.45 608.462 181.346 611.565C178.243 614.668 176.5 618.877 176.5 623.266C176.5 627.654 174.757 631.863 171.654 634.966C168.55 638.069 164.342 639.812 159.953 639.812H113.296C103.728 639.812 94.5515 636.011 87.7857 629.246C81.0198 622.48 77.2188 613.303 77.2188 603.735V590.172C77.2188 585.783 75.4754 581.575 72.3723 578.471C69.2691 575.368 65.0604 573.625 60.6719 573.625H49.6406C45.2521 573.625 41.0434 571.882 37.9402 568.779C34.8371 565.675 33.0938 561.467 33.0938 557.078V579.141C33.0938 583.529 34.8371 587.738 37.9402 590.841C41.0434 593.944 45.2521 595.688 49.6406 595.688H60.6719C65.0604 595.688 69.2691 597.431 72.3723 600.534C75.4754 603.637 77.2188 607.846 77.2188 612.234V625.797C77.2188 635.366 81.0198 644.542 87.7857 651.308C94.5515 658.074 103.728 661.875 113.296 661.875H159.953C164.342 661.875 168.55 660.132 171.654 657.029C174.757 653.925 176.5 649.717 176.5 645.328C176.5 640.94 178.243 636.731 181.346 633.628C184.45 630.525 188.658 628.781 193.047 628.781H226.141C230.529 628.781 234.738 627.038 237.841 623.935C240.944 620.832 242.688 616.623 242.688 612.234V590.172C242.688 594.56 240.944 598.769 237.841 601.872C234.738 604.975 230.529 606.719 226.141 606.719Z" fill="#B6C4C6"/>
<path d="M95.4093 198.562H59.0282C44.705 198.562 33.0938 210.174 33.0938 224.497V238.816C33.0938 253.139 44.705 264.75 59.0282 264.75H95.4093C109.732 264.75 121.344 253.139 121.344 238.816V224.497C121.344 210.174 109.732 198.562 95.4093 198.562Z" fill="#D1DEE0"/>
<path d="M651.932 375.062H605.631C594.047 375.062 584.656 384.453 584.656 396.037V409.244C584.656 420.828 594.047 430.219 605.631 430.219H651.932C663.516 430.219 672.906 420.828 672.906 409.244V396.037C672.906 384.453 663.516 375.062 651.932 375.062Z" fill="#D1DEE0"/>
<path d="M66.1875 100.58V107.094C66.1877 111.498 67.1651 115.848 69.0493 119.829C70.9336 123.81 73.6777 127.323 77.0838 130.115C80.4899 132.907 84.4731 134.909 88.7463 135.976C93.0195 137.043 97.4762 137.148 101.795 136.284C107.58 135.128 113.579 135.716 119.029 137.975C124.479 140.233 129.135 144.061 132.407 148.97L150.244 175.721C154.392 181.945 160.731 186.379 167.999 188.142C175.267 189.905 182.933 188.867 189.471 185.235L264.75 143.406L272.862 139.351C277.167 137.198 280.885 134.034 283.699 130.129C286.513 126.224 288.338 121.696 289.019 116.931L294.81 76.3914C295.694 70.2061 294.61 63.8995 291.71 58.365C288.81 52.8305 284.242 48.3488 278.654 45.5549L260.005 36.2308C255.869 34.1648 251.309 33.0908 246.686 33.0938H133.674C125.779 33.0941 118.208 36.2303 112.625 41.8126L74.9063 79.5312C69.324 85.1139 66.1878 92.6853 66.1875 100.58V100.58Z" fill="#D1DEE0"/>
<path d="M289.019 94.8688C288.338 99.633 286.513 104.161 283.699 108.065C280.885 111.969 277.166 115.133 272.862 117.286L264.75 121.344L189.462 163.167C182.923 166.799 175.258 167.837 167.989 166.074C160.721 164.311 154.382 159.877 150.235 153.653L132.403 126.901C129.131 121.991 124.475 118.164 119.025 115.906C113.574 113.647 107.576 113.058 101.791 114.215C94.3994 115.69 86.7237 114.308 80.3111 110.347C73.8985 106.386 69.226 100.142 67.2355 92.8722C66.5498 95.3845 66.1975 97.9761 66.1875 100.58V107.094C66.1877 111.499 67.1651 115.848 69.0493 119.829C70.9336 123.81 73.6777 127.323 77.0838 130.115C80.4899 132.908 84.4731 134.909 88.7463 135.976C93.0195 137.043 97.4762 137.148 101.795 136.284C107.58 135.128 113.579 135.716 119.029 137.975C124.479 140.234 129.135 144.061 132.407 148.97L150.244 175.721C154.392 181.945 160.731 186.379 167.999 188.142C175.267 189.905 182.933 188.867 189.471 185.235L264.75 143.406L272.862 139.351C277.167 137.198 280.885 134.034 283.699 130.129C286.513 126.225 288.338 121.696 289.019 116.931L294.81 76.3915C295.46 71.8397 295.044 67.1991 293.595 62.8354L289.019 94.8688Z" fill="#B6C4C6"/>
</svg>
