<svg width="706" height="706" viewBox="0 0 706 706" fill="none" xmlns="http://www.w3.org/2000/svg">
<path d="M353 498C433.081 498 498 433.081 498 353C498 272.919 433.081 208 353 208C272.919 208 208 272.919 208 353C208 433.081 272.919 498 353 498Z" fill="#DEF4FC"/>
<mask id="mask0" mask-type="alpha" maskUnits="userSpaceOnUse" x="208" y="208" width="290" height="290">
<path d="M353 498C433.081 498 498 433.081 498 353C498 272.919 433.081 208 353 208C272.919 208 208 272.919 208 353C208 433.081 272.919 498 353 498Z" fill="white"/>
</mask>
<g mask="url(#mask0)">
<path d="M362 461C368.627 461 374 466.373 374 473C374 479.627 368.627 485 362 485H342C335.373 485 330 479.627 330 473C330 466.373 335.373 461 342 461H362ZM448 413C454.627 413 460 418.373 460 425C460 431.627 454.627 437 448 437H386C379.373 437 374 431.627 374 425C374 418.373 379.373 413 386 413H448ZM338 413C344.627 413 350 418.373 350 425C350 431.627 344.627 437 338 437C331.373 437 326 431.627 326 425C326 418.373 331.373 413 338 413ZM293 353C293 346.373 287.627 341 281 341H210C203.373 341 198 335.627 198 329C198 322.373 203.373 317 210 317H259C265.627 317 271 311.627 271 305C271 298.373 265.627 293 259 293H254C247.373 293 242 287.627 242 281C242 274.373 247.373 269 254 269H327C333.627 269 339 274.373 339 281C339 287.627 333.627 293 327 293H307V293.01C300.605 293.272 295.5 298.54 295.5 305C295.5 311.46 300.605 316.728 307 316.99V317H352C358.627 317 364 322.373 364 329C364 335.627 358.627 341 352 341H350L349.999 341.01C343.604 341.273 338.5 346.54 338.5 353C338.5 359.46 343.604 364.727 349.999 364.99L350 365H402C408.627 365 414 370.373 414 377C414 383.627 408.627 389 402 389H278C271.373 389 266 383.627 266 377C266 370.373 271.373 365 278 365H281C287.627 365 293 359.627 293 353ZM453 365C459.627 365 465 370.373 465 377C465 383.627 459.627 389 453 389C446.373 389 441 383.627 441 377C441 370.373 446.373 365 453 365ZM230 365C236.627 365 242 370.373 242 377C242 383.627 236.627 389 230 389H210C203.373 389 198 383.627 198 377C198 370.373 203.373 365 210 365H230ZM429 269C435.627 269 441 274.373 441 281C441 287.627 435.627 293 429 293H409C402.373 293 397 287.627 397 281C397 274.373 402.373 269 409 269H429ZM453 221C459.627 221 465 226.373 465 233C465 239.627 459.627 245 453 245H395C388.373 245 383 239.627 383 233C383 226.373 388.373 221 395 221H453Z" fill="#B1D5E2"/>
</g>
<mask id="mask1" mask-type="alpha" maskUnits="userSpaceOnUse" x="208" y="208" width="290" height="290">
<path d="M353 498C433.081 498 498 433.081 498 353C498 272.919 433.081 208 353 208C272.919 208 208 272.919 208 353C208 433.081 272.919 498 353 498Z" fill="white"/>
</mask>
<g mask="url(#mask1)">
<path opacity="0.078" d="M354 208H499V498H354V208Z" fill="black"/>
</g>
<path d="M522.294 55.7478L441.266 126.646C438.054 129.458 435.65 133.075 434.3 137.125L426.562 160.341C425.747 162.788 424.542 165.089 422.993 167.152L402.428 194.564C399.449 198.536 397.775 203.335 397.637 208.299C397.5 213.263 398.905 218.148 401.659 222.28L432.066 267.892C434.859 272.081 438.898 275.286 443.612 277.054L513.098 303.115C516.661 304.452 520.492 304.921 524.273 304.486C528.053 304.051 531.677 302.722 534.843 300.611L542.449 295.541C546.831 292.62 550.131 288.339 551.84 283.357C553.549 278.376 553.572 272.971 551.907 267.975L542.958 241.129C540.993 235.236 541.389 228.81 544.064 223.202C546.738 217.594 551.482 213.242 557.299 211.059L612.375 190.406C615.939 189.07 619.769 188.6 623.55 189.036C627.331 189.471 630.954 190.799 634.12 192.91L634.356 193.068C637.188 194.955 640.39 196.219 643.748 196.776C647.106 197.332 650.544 197.168 653.834 196.294C657.124 195.421 660.19 193.857 662.83 191.708C665.47 189.559 667.622 186.873 669.145 183.829L681.397 159.322C683.853 154.408 684.55 148.8 683.37 143.435C682.191 138.07 679.207 133.271 674.917 129.841L650.078 109.968C645.788 106.537 642.804 101.738 641.625 96.3732C640.446 91.008 641.142 85.4006 643.598 80.4867C645.205 77.2717 646.07 73.7367 646.129 70.1426C646.188 66.5486 645.439 62.9871 643.938 59.7212C642.436 56.4553 640.22 53.5682 637.454 51.2731C634.687 48.978 631.441 47.3335 627.954 46.4608L577.348 33.8107C571.792 32.4232 565.923 33.0678 560.801 35.6281L527.367 52.3419C525.537 53.2559 523.832 54.4006 522.294 55.7478V55.7478Z" fill="#D1DEE0"/>
<path d="M681.402 141.491L669.147 165.997C667.625 169.042 665.473 171.728 662.834 173.877C660.194 176.026 657.128 177.59 653.838 178.464C650.548 179.337 647.11 179.501 643.752 178.945C640.394 178.388 637.192 177.124 634.36 175.236L634.124 175.078C630.958 172.967 627.334 171.639 623.554 171.204C619.773 170.769 615.943 171.239 612.379 172.576L557.304 193.229C551.488 195.411 546.744 199.764 544.07 205.371C541.395 210.978 540.999 217.404 542.964 223.297L543.436 224.715C544.664 221.595 546.533 218.767 548.923 216.415C551.313 214.064 554.17 212.24 557.31 211.064L612.385 190.41C615.948 189.074 619.778 188.604 623.559 189.039C627.34 189.475 630.963 190.802 634.13 192.913L634.366 193.07C637.198 194.958 640.399 196.223 643.757 196.779C647.115 197.335 650.553 197.171 653.843 196.298C657.133 195.424 660.199 193.861 662.839 191.711C665.478 189.562 667.631 186.876 669.153 183.832L681.407 159.324C682.924 156.291 683.781 152.971 683.921 149.583C684.062 146.194 683.482 142.815 682.221 139.667C681.97 140.283 681.701 140.891 681.402 141.491Z" fill="#B6C4C6"/>
<path d="M551.436 266.566C549.647 271.11 546.511 274.999 542.449 277.71L534.843 282.781C531.677 284.892 528.053 286.22 524.273 286.655C520.492 287.09 516.661 286.62 513.098 285.283L443.612 259.222C438.898 257.455 434.859 254.25 432.067 250.061L401.659 204.448C400.742 203.066 399.971 201.592 399.36 200.05C397.91 203.665 397.361 207.578 397.762 211.452C398.162 215.326 399.5 219.044 401.659 222.285L432.067 267.898C434.859 272.087 438.898 275.292 443.612 277.06L513.098 303.121C516.662 304.457 520.492 304.927 524.273 304.492C528.054 304.056 531.677 302.728 534.843 300.617L542.449 295.547C546.831 292.625 550.131 288.344 551.84 283.363C553.549 278.382 553.573 272.977 551.907 267.981L551.436 266.566Z" fill="#B6C4C6"/>
<path d="M227.504 357.917L258.443 330.415C261.83 327.405 266.119 325.601 270.639 325.287C275.16 324.974 279.657 326.167 283.427 328.68L307.437 344.688C311.056 347.101 315.348 348.299 319.694 348.111C324.039 347.922 328.211 346.356 331.608 343.639L367.605 314.842C369.941 312.973 372.657 311.638 375.563 310.931C378.469 310.223 381.495 310.161 384.428 310.748L428.375 319.537C429.603 319.783 430.805 320.14 431.967 320.605L433.08 321.049C447.421 326.787 459.124 337.641 465.924 351.509C472.725 365.377 474.141 381.275 469.897 396.127C465.656 410.971 456.062 423.716 442.971 431.898L413.038 450.606C388.219 466.118 359.541 474.343 330.274 474.344H230.53C218.596 474.344 207.062 470.039 198.046 462.22C189.031 454.401 183.138 443.592 181.45 431.778L179.842 420.518C179.427 417.611 179.641 414.649 180.47 411.833C181.299 409.016 182.724 406.41 184.647 404.192C186.571 401.973 188.949 400.194 191.621 398.975C194.292 397.756 197.194 397.125 200.13 397.125C202.822 397.125 205.487 396.595 207.973 395.565C210.46 394.536 212.719 393.026 214.623 391.123C216.526 389.22 218.035 386.96 219.065 384.474C220.095 381.987 220.625 379.322 220.625 376.63V373.234C220.625 370.34 221.238 367.479 222.423 364.839C223.609 362.199 225.341 359.84 227.504 357.917Z" fill="#D1DEE0"/>
<path d="M469.901 374.064C465.66 388.908 456.066 401.653 442.975 409.836L413.042 428.543C388.223 444.056 359.544 452.281 330.276 452.281H230.53C218.596 452.281 207.062 447.976 198.047 440.157C189.031 432.338 183.138 421.53 181.45 409.716L181.395 409.331C179.832 412.839 179.294 416.717 179.842 420.518L181.45 431.778C183.138 443.592 189.031 454.401 198.047 462.22C207.062 470.039 218.596 474.343 230.53 474.344H330.276C359.544 474.344 388.223 466.118 413.042 450.606L442.975 431.898C456.066 423.716 465.66 410.971 469.901 396.127C472.527 386.966 473.012 377.324 471.317 367.946C470.948 370.008 470.475 372.05 469.901 374.064V374.064Z" fill="#B6C4C6"/>
<path d="M527.607 487.268L520.362 494.513C516.264 498.61 513.014 503.475 510.796 508.828C508.579 514.182 507.437 519.92 507.438 525.715V551.562L501.631 568.984C500.03 573.787 497.243 578.108 493.528 581.548C489.813 584.988 485.291 587.435 480.379 588.663L480.12 588.728C472.617 590.604 466.125 595.296 461.989 601.831C457.853 608.366 456.392 616.242 457.909 623.825C459.358 631.07 463.568 637.467 469.648 641.664C475.729 645.861 483.203 647.528 490.491 646.314L511.828 642.758C514.002 642.396 516.229 642.511 518.354 643.097C520.479 643.682 522.451 644.724 524.133 646.148C525.815 647.573 527.166 649.347 528.093 651.347C529.02 653.347 529.5 655.524 529.5 657.729C529.5 661.754 531.099 665.614 533.945 668.461C536.792 671.307 540.652 672.906 544.678 672.906H580.116C585.054 672.906 589.943 671.934 594.506 670.044C599.068 668.154 603.213 665.385 606.705 661.893L628.803 639.795C632.295 636.302 635.064 632.155 636.953 627.592C638.842 623.029 639.814 618.138 639.813 613.2V584.656C648.59 584.656 657.007 581.17 663.213 574.963C669.42 568.757 672.906 560.34 672.906 551.562C672.906 542.785 669.42 534.368 663.213 528.162C657.007 521.955 648.59 518.469 639.813 518.469H617.75C617.75 506.766 613.101 495.543 604.826 487.268C596.551 478.993 585.328 474.344 573.625 474.344H558.809C553.014 474.344 547.276 475.485 541.922 477.703C536.569 479.92 531.704 483.171 527.607 487.268V487.268Z" fill="#D1DEE0"/>
<path d="M606.701 639.831C599.649 646.882 590.085 650.844 580.113 650.844H544.675C540.65 650.843 536.79 649.244 533.944 646.397C531.099 643.551 529.5 639.691 529.5 635.666C529.5 633.462 529.02 631.284 528.093 629.285C527.166 627.285 525.815 625.511 524.133 624.086C522.451 622.661 520.479 621.62 518.354 621.034C516.229 620.449 514.002 620.333 511.828 620.695L490.491 624.252C484.106 625.314 477.55 624.167 471.905 621.002C466.26 617.837 461.862 612.841 459.438 606.84C457.294 612.234 456.763 618.135 457.909 623.826C459.358 631.07 463.568 637.467 469.648 641.664C475.729 645.861 483.203 647.528 490.491 646.314L511.828 642.758C514.002 642.396 516.229 642.511 518.354 643.097C520.479 643.682 522.451 644.724 524.133 646.148C525.815 647.573 527.166 649.347 528.093 651.347C529.02 653.347 529.5 655.525 529.5 657.729C529.5 661.754 531.099 665.615 533.945 668.461C536.792 671.307 540.652 672.906 544.678 672.906H580.115C590.088 672.906 599.652 668.945 606.704 661.893L628.802 639.795C632.294 636.302 635.063 632.156 636.953 627.592C638.842 623.029 639.814 618.139 639.812 613.2V591.137C639.813 596.075 638.84 600.965 636.95 605.527C635.061 610.09 632.291 614.235 628.799 617.727L606.701 639.831Z" fill="#B6C4C6"/>
<path d="M639.812 562.594V584.656C648.59 584.656 657.007 581.17 663.213 574.963C669.42 568.757 672.906 560.34 672.906 551.562C672.908 547.805 672.269 544.074 671.016 540.531C668.733 546.983 664.507 552.569 658.919 556.52C653.331 560.471 646.656 562.593 639.812 562.594V562.594Z" fill="#B6C4C6"/>
<path d="M33.0938 557.078V579.141C33.0938 583.529 34.8371 587.738 37.9402 590.841C41.0434 593.944 45.2521 595.688 49.6406 595.688H60.6719C65.0604 595.688 69.2691 597.431 72.3723 600.534C75.4754 603.637 77.2188 607.846 77.2188 612.234V625.797C77.2188 635.366 81.0198 644.542 87.7857 651.308C94.5515 658.074 103.728 661.875 113.296 661.875H159.953C164.342 661.875 168.55 660.132 171.654 657.029C174.757 653.925 176.5 649.717 176.5 645.328C176.5 640.94 178.243 636.731 181.346 633.628C184.45 630.525 188.658 628.781 193.047 628.781H226.141C230.529 628.781 234.738 627.038 237.841 623.935C240.944 620.832 242.688 616.623 242.688 612.234V579.141C242.688 574.752 240.944 570.543 237.841 567.44C234.738 564.337 230.529 562.594 226.141 562.594H215.109C210.721 562.594 206.512 560.85 203.409 557.747C200.306 554.644 198.562 550.435 198.562 546.047C198.562 541.658 196.819 537.45 193.716 534.346C190.613 531.243 186.404 529.5 182.016 529.5H170.984C166.596 529.5 162.387 527.757 159.284 524.654C156.181 521.55 154.438 517.342 154.438 512.953C154.438 505.639 151.532 498.624 146.36 493.452C141.188 488.281 134.174 485.375 126.859 485.375H104.797C94.557 485.375 84.7366 489.443 77.4959 496.683C70.2553 503.924 66.1875 513.745 66.1875 523.984C66.1875 528.373 64.4442 532.582 61.341 535.685C58.2379 538.788 54.0291 540.531 49.6406 540.531C45.2521 540.531 41.0434 542.275 37.9402 545.378C34.8371 548.481 33.0938 552.69 33.0938 557.078Z" fill="#D1DEE0"/>
<path d="M226.141 606.719H193.047C188.658 606.719 184.45 608.462 181.346 611.565C178.243 614.668 176.5 618.877 176.5 623.266C176.5 627.654 174.757 631.863 171.654 634.966C168.55 638.069 164.342 639.812 159.953 639.812H113.296C103.728 639.812 94.5515 636.011 87.7857 629.246C81.0198 622.48 77.2188 613.303 77.2188 603.735V590.172C77.2188 585.783 75.4754 581.575 72.3723 578.471C69.2691 575.368 65.0604 573.625 60.6719 573.625H49.6406C45.2521 573.625 41.0434 571.882 37.9402 568.779C34.8371 565.675 33.0938 561.467 33.0938 557.078V579.141C33.0938 583.529 34.8371 587.738 37.9402 590.841C41.0434 593.944 45.2521 595.688 49.6406 595.688H60.6719C65.0604 595.688 69.2691 597.431 72.3723 600.534C75.4754 603.637 77.2188 607.846 77.2188 612.234V625.797C77.2188 635.366 81.0198 644.542 87.7857 651.308C94.5515 658.074 103.728 661.875 113.296 661.875H159.953C164.342 661.875 168.55 660.132 171.654 657.029C174.757 653.925 176.5 649.717 176.5 645.328C176.5 640.94 178.243 636.731 181.346 633.628C184.45 630.525 188.658 628.781 193.047 628.781H226.141C230.529 628.781 234.738 627.038 237.841 623.935C240.944 620.832 242.688 616.623 242.688 612.234V590.172C242.688 594.56 240.944 598.769 237.841 601.872C234.738 604.975 230.529 606.719 226.141 606.719Z" fill="#B6C4C6"/>
<path d="M95.4093 198.562H59.0282C44.705 198.562 33.0938 210.174 33.0938 224.497V238.816C33.0938 253.139 44.705 264.75 59.0282 264.75H95.4093C109.732 264.75 121.344 253.139 121.344 238.816V224.497C121.344 210.174 109.732 198.562 95.4093 198.562Z" fill="#D1DEE0"/>
<path d="M651.932 375.062H605.631C594.047 375.062 584.656 384.453 584.656 396.037V409.244C584.656 420.828 594.047 430.219 605.631 430.219H651.932C663.516 430.219 672.906 420.828 672.906 409.244V396.037C672.906 384.453 663.516 375.062 651.932 375.062Z" fill="#D1DEE0"/>
<path d="M66.1875 100.58V107.094C66.1877 111.498 67.1651 115.848 69.0493 119.829C70.9336 123.81 73.6777 127.323 77.0838 130.115C80.4899 132.907 84.4731 134.909 88.7463 135.976C93.0195 137.043 97.4762 137.148 101.795 136.284C107.58 135.128 113.579 135.716 119.029 137.975C124.479 140.233 129.135 144.061 132.407 148.97L150.244 175.721C154.392 181.945 160.731 186.379 167.999 188.142C175.267 189.905 182.933 188.867 189.471 185.235L264.75 143.406L272.862 139.351C277.167 137.198 280.885 134.034 283.699 130.129C286.513 126.224 288.338 121.696 289.019 116.931L294.81 76.3914C295.694 70.2061 294.61 63.8995 291.71 58.365C288.81 52.8305 284.242 48.3488 278.654 45.5549L260.005 36.2308C255.869 34.1648 251.309 33.0908 246.686 33.0938H133.674C125.779 33.0941 118.208 36.2303 112.625 41.8126L74.9063 79.5312C69.324 85.1139 66.1878 92.6853 66.1875 100.58V100.58Z" fill="#D1DEE0"/>
<path d="M289.019 94.8687C288.338 99.6328 286.513 104.161 283.699 108.065C280.885 111.969 277.166 115.133 272.862 117.286L264.75 121.344L189.462 163.167C182.923 166.799 175.258 167.837 167.989 166.074C160.721 164.311 154.382 159.876 150.235 153.653L132.403 126.901C129.131 121.991 124.475 118.164 119.025 115.905C113.574 113.647 107.576 113.058 101.791 114.215C94.3994 115.69 86.7237 114.307 80.3111 110.347C73.8985 106.386 69.226 100.142 67.2355 92.872C66.5498 95.3844 66.1975 97.9759 66.1875 100.58V107.094C66.1877 111.498 67.1651 115.848 69.0493 119.829C70.9336 123.81 73.6777 127.323 77.0838 130.115C80.4899 132.907 84.4731 134.909 88.7463 135.976C93.0195 137.043 97.4762 137.148 101.795 136.284C107.58 135.128 113.579 135.716 119.029 137.975C124.479 140.233 129.135 144.06 132.407 148.97L150.244 175.721C154.392 181.944 160.731 186.379 167.999 188.142C175.267 189.905 182.933 188.867 189.471 185.235L264.75 143.406L272.862 139.351C277.167 137.198 280.885 134.034 283.699 130.129C286.513 126.224 288.338 121.696 289.019 116.931L294.81 76.3914C295.46 71.8396 295.044 67.199 293.595 62.8353L289.019 94.8687Z" fill="#B6C4C6"/>
</svg>
