<svg width="706" height="706" viewBox="0 0 706 706" fill="none" xmlns="http://www.w3.org/2000/svg">
<path d="M353 606C485.548 606 593 498.548 593 366C593 233.452 485.548 126 353 126C220.452 126 113 233.452 113 366C113 498.548 220.452 606 353 606Z" fill="#65F0D5"/>
<mask id="mask0" mask-type="alpha" maskUnits="userSpaceOnUse" x="113" y="126" width="480" height="480">
<path d="M353 606C485.548 606 593 498.548 593 366C593 233.452 485.548 126 353 126C220.452 126 113 233.452 113 366C113 498.548 220.452 606 353 606Z" fill="white"/>
</mask>
<g mask="url(#mask0)">
<path fill-rule="evenodd" clip-rule="evenodd" d="M579.501 -31.2052C579.501 -24.2599 573.871 -18.6288 566.925 -18.6288C559.98 -18.6288 554.348 -24.2599 554.348 -31.2052V-194.699C554.348 -201.644 559.98 -207.275 566.925 -207.275C573.871 -207.275 579.501 -201.644 579.501 -194.699V-31.2052ZM579.501 199.362C579.501 206.308 573.871 211.939 566.925 211.939C559.98 211.939 554.348 206.308 554.348 199.362V117.616H554.338C554.063 110.914 548.542 105.563 541.772 105.563C535.002 105.563 529.481 110.914 529.206 117.616H529.196V285.301C529.196 292.247 523.566 297.878 516.619 297.878C509.674 297.878 504.043 292.247 504.043 285.301V15.9563C504.043 9.01101 509.674 3.37992 516.619 3.37992C523.566 3.37992 529.196 9.01101 529.196 15.9563V67.3101C529.196 74.2554 534.827 79.8865 541.772 79.8865C548.718 79.8865 554.348 74.2554 554.348 67.3101V35.869C554.348 28.9237 559.98 23.2926 566.925 23.2926C573.871 23.2926 579.501 28.9237 579.501 35.869V199.362ZM478.89 -15.4847C478.89 -8.53939 473.26 -2.90829 466.313 -2.90829C459.368 -2.90829 453.737 -8.53939 453.737 -15.4847V-91.9913C453.737 -98.9366 459.368 -104.568 466.313 -104.568C473.26 -104.568 478.89 -98.9366 478.89 -91.9913V-15.4847ZM478.89 285.301C478.89 292.247 473.26 297.878 466.313 297.878C459.368 297.878 453.737 292.247 453.737 285.301V208.795C453.737 201.849 459.368 196.218 466.313 196.218C473.26 196.218 478.89 201.849 478.89 208.795V285.301ZM466.313 561.983C473.26 561.983 478.89 556.352 478.89 549.406V375.432C478.89 368.487 473.26 362.856 466.313 362.856C459.368 362.856 453.737 368.487 453.737 375.432V549.406C453.737 556.352 459.368 561.983 466.313 561.983ZM554.348 362.856C554.348 369.801 548.718 375.432 541.772 375.432C534.827 375.432 529.196 369.801 529.196 362.856V353.424C529.196 346.478 523.566 340.847 516.619 340.847C509.674 340.847 504.043 346.478 504.043 353.424V622.769C504.043 629.714 509.674 635.345 516.619 635.345C523.566 635.345 529.196 629.714 529.196 622.769V413.162H529.206C529.481 406.459 535.002 401.109 541.772 401.109C548.542 401.109 554.063 406.459 554.338 413.162H554.348V438.315C554.348 445.26 559.98 450.891 566.925 450.891C573.871 450.891 579.501 445.26 579.501 438.315V274.821C579.501 267.876 573.871 262.245 566.925 262.245C559.98 262.245 554.348 267.876 554.348 274.821V362.856ZM566.925 675.17C573.871 675.17 579.501 669.539 579.501 662.594V499.101C579.501 492.155 573.871 486.524 566.925 486.524C559.98 486.524 554.348 492.155 554.348 499.101V662.594C554.348 669.539 559.98 675.17 566.925 675.17Z" fill="#49CBC2"/>
</g>
<mask id="mask1" mask-type="alpha" maskUnits="userSpaceOnUse" x="113" y="126" width="480" height="480">
<path d="M353 606C485.548 606 593 498.548 593 366C593 233.452 485.548 126 353 126C220.452 126 113 233.452 113 366C113 498.548 220.452 606 353 606Z" fill="white"/>
</mask>
<g mask="url(#mask1)">
<path fill-rule="evenodd" clip-rule="evenodd" d="M302.82 -104.568C302.82 -97.6225 308.451 -91.9914 315.396 -91.9914C322.343 -91.9914 327.973 -97.6225 327.973 -104.568V-268.061C327.973 -275.007 322.343 -280.638 315.396 -280.638C308.451 -280.638 302.82 -275.007 302.82 -268.061V-104.568ZM302.82 126C302.82 132.945 308.451 138.576 315.396 138.576C322.343 138.576 327.973 132.945 327.973 126V44.2531H327.983C328.258 37.5509 333.779 32.2007 340.549 32.2007C347.32 32.2007 352.841 37.5509 353.115 44.2531H353.126V211.939C353.126 218.884 358.757 224.515 365.702 224.515C372.649 224.515 378.279 218.884 378.279 211.939V-57.4063C378.279 -64.3516 372.649 -69.9827 365.702 -69.9827C358.757 -69.9827 353.126 -64.3516 353.126 -57.4063V-6.05255C353.126 0.892777 347.496 6.52387 340.549 6.52387C333.604 6.52387 327.973 0.892777 327.973 -6.05255V-37.4936C327.973 -44.4389 322.343 -50.07 315.396 -50.07C308.451 -50.07 302.82 -44.4389 302.82 -37.4936V126ZM403.431 -88.8473C403.431 -81.902 409.063 -76.2709 416.008 -76.2709C422.954 -76.2709 428.584 -81.902 428.584 -88.8473V-165.354C428.584 -172.299 422.954 -177.93 416.008 -177.93C409.063 -177.93 403.431 -172.299 403.431 -165.354V-88.8473ZM403.431 211.939C403.431 218.884 409.063 224.515 416.008 224.515C422.954 224.515 428.584 218.884 428.584 211.939V135.432C428.584 128.487 422.954 122.856 416.008 122.856C409.063 122.856 403.431 128.487 403.431 135.432V211.939ZM416.008 488.62C409.063 488.62 403.431 482.989 403.431 476.044V302.07C403.431 295.124 409.063 289.493 416.008 289.493C422.954 289.493 428.584 295.124 428.584 302.07V476.044C428.584 482.989 422.954 488.62 416.008 488.62ZM327.973 289.493C327.973 296.439 333.604 302.07 340.549 302.07C347.496 302.07 353.126 296.439 353.126 289.493V280.061C353.126 273.116 358.757 267.485 365.702 267.485C372.649 267.485 378.279 273.116 378.279 280.061V549.406C378.279 556.351 372.649 561.982 365.702 561.982C358.757 561.982 353.126 556.351 353.126 549.406V339.799H353.115C352.841 333.097 347.32 327.747 340.549 327.747C333.779 327.747 328.258 333.097 327.983 339.799H327.973V364.952C327.973 371.897 322.343 377.528 315.396 377.528C308.451 377.528 302.82 371.897 302.82 364.952V201.458C302.82 194.513 308.451 188.882 315.396 188.882C322.343 188.882 327.973 194.513 327.973 201.458V289.493ZM315.396 601.808C308.451 601.808 302.82 596.177 302.82 589.231V425.738C302.82 418.793 308.451 413.161 315.396 413.161C322.343 413.161 327.973 418.793 327.973 425.738V589.231C327.973 596.177 322.343 601.808 315.396 601.808Z" fill="#50DECD"/>
</g>
<mask id="mask2" mask-type="alpha" maskUnits="userSpaceOnUse" x="113" y="126" width="480" height="480">
<path d="M353 606C485.548 606 593 498.548 593 366C593 233.452 485.548 126 353 126C220.452 126 113 233.452 113 366C113 498.548 220.452 606 353 606Z" fill="white"/>
</mask>
<g mask="url(#mask2)">
<path fill-rule="evenodd" clip-rule="evenodd" d="M277.667 -139.153C277.667 -132.207 272.037 -126.576 265.091 -126.576C258.146 -126.576 252.514 -132.207 252.514 -139.153V-302.646C252.514 -309.592 258.146 -315.223 265.091 -315.223C272.037 -315.223 277.667 -309.592 277.667 -302.646V-139.153ZM277.667 91.4149C277.667 98.3602 272.037 103.991 265.091 103.991C258.146 103.991 252.514 98.3602 252.514 91.4149V9.66816H252.504C252.229 2.96598 246.708 -2.38424 239.938 -2.38424C233.168 -2.38424 227.647 2.96598 227.372 9.66816H227.362V177.354C227.362 184.299 221.732 189.93 214.785 189.93C207.84 189.93 202.209 184.299 202.209 177.354V-91.9912C202.209 -98.9365 207.84 -104.568 214.785 -104.568C221.732 -104.568 227.362 -98.9365 227.362 -91.9912V-40.6375C227.362 -33.6922 232.993 -28.0611 239.938 -28.0611C246.884 -28.0611 252.514 -33.6922 252.514 -40.6375V-72.0786C252.514 -79.0239 258.146 -84.655 265.091 -84.655C272.037 -84.655 277.667 -79.0239 277.667 -72.0786V91.4149ZM177.056 -123.432C177.056 -116.487 171.426 -110.856 164.479 -110.856C157.534 -110.856 151.903 -116.487 151.903 -123.432V-199.939C151.903 -206.884 157.534 -212.515 164.479 -212.515C171.426 -212.515 177.056 -206.884 177.056 -199.939V-123.432ZM177.056 177.354C177.056 184.299 171.426 189.93 164.479 189.93C157.534 189.93 151.903 184.299 151.903 177.354V100.847C151.903 93.9019 157.534 88.2708 164.479 88.2708C171.426 88.2708 177.056 93.9019 177.056 100.847V177.354ZM164.479 454.035C171.426 454.035 177.056 448.404 177.056 441.459V267.485C177.056 260.539 171.426 254.908 164.479 254.908C157.534 254.908 151.903 260.539 151.903 267.485V441.459C151.903 448.404 157.534 454.035 164.479 454.035ZM252.514 254.908C252.514 261.854 246.884 267.485 239.938 267.485C232.993 267.485 227.362 261.854 227.362 254.908V245.476C227.362 238.531 221.732 232.9 214.785 232.9C207.84 232.9 202.209 238.531 202.209 245.476V514.821C202.209 521.766 207.84 527.397 214.785 527.397C221.732 527.397 227.362 521.766 227.362 514.821V305.214H227.372C227.647 298.512 233.168 293.162 239.938 293.162C246.708 293.162 252.229 298.512 252.504 305.214H252.514V330.367C252.514 337.312 258.146 342.943 265.091 342.943C272.037 342.943 277.667 337.312 277.667 330.367V166.873C277.667 159.928 272.037 154.297 265.091 154.297C258.146 154.297 252.514 159.928 252.514 166.873V254.908ZM265.091 567.223C272.037 567.223 277.667 561.592 277.667 554.646V391.153C277.667 384.208 272.037 378.576 265.091 378.576C258.146 378.576 252.514 384.208 252.514 391.153V554.646C252.514 561.592 258.146 567.223 265.091 567.223Z" fill="#77FFF5"/>
</g>
<mask id="mask3" mask-type="alpha" maskUnits="userSpaceOnUse" x="113" y="126" width="480" height="480">
<path d="M353 606C485.548 606 593 498.548 593 366C593 233.452 485.548 126 353 126C220.452 126 113 233.452 113 366C113 498.548 220.452 606 353 606Z" fill="white"/>
</mask>
<g mask="url(#mask3)">
<path opacity="0.078" d="M353 126H593V606H353V126Z" fill="black"/>
</g>
<path d="M522.294 55.7478L441.266 126.646C438.054 129.458 435.65 133.075 434.3 137.125L426.562 160.341C425.747 162.788 424.542 165.089 422.993 167.152L402.428 194.564C399.449 198.536 397.775 203.335 397.637 208.299C397.5 213.263 398.905 218.148 401.659 222.28L432.066 267.892C434.859 272.081 438.898 275.286 443.612 277.054L513.098 303.115C516.661 304.452 520.492 304.921 524.273 304.486C528.053 304.051 531.677 302.722 534.843 300.611L542.449 295.541C546.831 292.62 550.131 288.339 551.84 283.357C553.549 278.376 553.572 272.971 551.907 267.975L542.958 241.129C540.993 235.236 541.389 228.81 544.064 223.202C546.738 217.594 551.482 213.242 557.299 211.059L612.375 190.406C615.939 189.07 619.769 188.6 623.55 189.036C627.331 189.471 630.954 190.799 634.12 192.91L634.356 193.068C637.188 194.955 640.39 196.219 643.748 196.776C647.106 197.332 650.544 197.168 653.834 196.294C657.124 195.421 660.19 193.857 662.83 191.708C665.47 189.559 667.622 186.873 669.145 183.829L681.397 159.322C683.853 154.408 684.55 148.8 683.37 143.435C682.191 138.07 679.207 133.271 674.917 129.841L650.078 109.968C645.788 106.537 642.804 101.738 641.625 96.3732C640.446 91.008 641.142 85.4006 643.598 80.4867C645.205 77.2717 646.07 73.7367 646.129 70.1426C646.188 66.5486 645.439 62.9871 643.938 59.7212C642.436 56.4553 640.22 53.5682 637.454 51.2731C634.687 48.978 631.441 47.3335 627.954 46.4608L577.348 33.8107C571.792 32.4232 565.923 33.0678 560.801 35.6281L527.367 52.3419C525.537 53.2559 523.832 54.4006 522.294 55.7478V55.7478Z" fill="#D1DEE0"/>
<path d="M681.402 141.491L669.147 165.997C667.625 169.042 665.473 171.728 662.834 173.877C660.194 176.027 657.128 177.59 653.838 178.464C650.548 179.337 647.11 179.501 643.752 178.945C640.394 178.388 637.192 177.124 634.36 175.236L634.124 175.078C630.958 172.967 627.334 171.639 623.554 171.204C619.773 170.769 615.943 171.239 612.379 172.576L557.304 193.229C551.488 195.412 546.744 199.764 544.07 205.371C541.395 210.978 540.999 217.404 542.964 223.297L543.436 224.715C544.664 221.595 546.533 218.767 548.923 216.416C551.313 214.064 554.17 212.241 557.31 211.064L612.385 190.41C615.948 189.074 619.778 188.604 623.559 189.04C627.34 189.475 630.963 190.802 634.13 192.913L634.366 193.07C637.198 194.959 640.399 196.223 643.757 196.779C647.115 197.336 650.553 197.171 653.843 196.298C657.133 195.424 660.199 193.861 662.839 191.712C665.478 189.562 667.631 186.876 669.153 183.832L681.407 159.324C682.924 156.291 683.781 152.971 683.921 149.583C684.062 146.194 683.482 142.815 682.221 139.667C681.97 140.283 681.701 140.891 681.402 141.491Z" fill="#B6C4C6"/>
<path d="M551.436 266.566C549.647 271.11 546.511 274.999 542.449 277.71L534.843 282.781C531.677 284.892 528.053 286.22 524.273 286.655C520.492 287.09 516.661 286.62 513.098 285.283L443.612 259.222C438.898 257.455 434.859 254.25 432.067 250.06L401.659 204.448C400.742 203.066 399.971 201.592 399.36 200.05C397.91 203.665 397.361 207.578 397.762 211.452C398.162 215.326 399.5 219.044 401.659 222.285L432.067 267.898C434.859 272.087 438.898 275.292 443.612 277.059L513.098 303.121C516.662 304.457 520.492 304.927 524.273 304.492C528.054 304.056 531.677 302.728 534.843 300.617L542.449 295.546C546.831 292.625 550.131 288.344 551.84 283.363C553.549 278.382 553.573 272.977 551.907 267.981L551.436 266.566Z" fill="#B6C4C6"/>
<path d="M227.504 357.917L258.443 330.415C261.83 327.405 266.119 325.601 270.639 325.287C275.16 324.974 279.657 326.167 283.427 328.68L307.437 344.688C311.056 347.101 315.348 348.299 319.694 348.111C324.039 347.922 328.211 346.356 331.608 343.639L367.605 314.842C369.941 312.973 372.657 311.638 375.563 310.931C378.469 310.223 381.495 310.161 384.428 310.748L428.375 319.537C429.603 319.783 430.805 320.14 431.967 320.605L433.08 321.049C447.421 326.787 459.124 337.641 465.924 351.509C472.725 365.377 474.141 381.275 469.897 396.127C465.656 410.971 456.062 423.716 442.971 431.898L413.038 450.606C388.219 466.118 359.541 474.343 330.274 474.344H230.53C218.596 474.344 207.062 470.039 198.046 462.22C189.031 454.401 183.138 443.592 181.45 431.778L179.842 420.518C179.427 417.611 179.641 414.649 180.47 411.833C181.299 409.016 182.724 406.41 184.647 404.192C186.571 401.973 188.949 400.194 191.621 398.975C194.292 397.756 197.194 397.125 200.13 397.125C202.822 397.125 205.487 396.595 207.973 395.565C210.46 394.536 212.719 393.026 214.623 391.123C216.526 389.22 218.035 386.96 219.065 384.474C220.095 381.987 220.625 379.322 220.625 376.63V373.234C220.625 370.34 221.238 367.479 222.423 364.839C223.609 362.199 225.341 359.84 227.504 357.917Z" fill="#D1DEE0"/>
<path d="M469.901 374.064C465.66 388.908 456.067 401.653 442.975 409.836L413.042 428.543C388.223 444.056 359.544 452.281 330.276 452.281H230.53C218.596 452.281 207.062 447.976 198.047 440.157C189.031 432.338 183.138 421.53 181.45 409.716L181.395 409.331C179.832 412.839 179.294 416.717 179.842 420.518L181.45 431.778C183.138 443.592 189.031 454.401 198.047 462.22C207.062 470.039 218.596 474.343 230.53 474.344H330.276C359.544 474.344 388.223 466.118 413.042 450.606L442.975 431.898C456.067 423.716 465.66 410.971 469.901 396.127C472.527 386.966 473.012 377.324 471.317 367.946C470.948 370.008 470.475 372.05 469.901 374.064V374.064Z" fill="#B6C4C6"/>
<path d="M527.607 487.268L520.362 494.513C516.264 498.61 513.014 503.475 510.796 508.828C508.579 514.182 507.437 519.92 507.438 525.715V551.562L501.631 568.984C500.03 573.787 497.243 578.108 493.528 581.548C489.813 584.988 485.291 587.435 480.379 588.663L480.12 588.728C472.617 590.604 466.125 595.296 461.989 601.831C457.853 608.366 456.392 616.242 457.909 623.825C459.358 631.07 463.568 637.467 469.648 641.664C475.729 645.861 483.203 647.528 490.491 646.314L511.828 642.758C514.002 642.396 516.229 642.511 518.354 643.097C520.479 643.682 522.451 644.724 524.133 646.148C525.815 647.573 527.166 649.347 528.093 651.347C529.02 653.347 529.5 655.524 529.5 657.729C529.5 661.754 531.099 665.614 533.945 668.461C536.792 671.307 540.652 672.906 544.678 672.906H580.116C585.054 672.906 589.943 671.934 594.506 670.044C599.068 668.154 603.213 665.385 606.705 661.893L628.803 639.795C632.295 636.302 635.064 632.155 636.953 627.592C638.842 623.029 639.814 618.138 639.813 613.2V584.656C648.59 584.656 657.007 581.17 663.213 574.963C669.42 568.757 672.906 560.34 672.906 551.562C672.906 542.785 669.42 534.368 663.213 528.162C657.007 521.955 648.59 518.469 639.813 518.469H617.75C617.75 506.766 613.101 495.543 604.826 487.268C596.551 478.993 585.328 474.344 573.625 474.344H558.809C553.014 474.344 547.276 475.485 541.922 477.703C536.569 479.92 531.704 483.171 527.607 487.268V487.268Z" fill="#D1DEE0"/>
<path d="M606.701 639.831C599.649 646.882 590.085 650.844 580.113 650.844H544.675C540.65 650.843 536.79 649.244 533.944 646.397C531.099 643.551 529.5 639.691 529.5 635.666C529.5 633.462 529.02 631.284 528.093 629.285C527.166 627.285 525.815 625.511 524.133 624.086C522.451 622.661 520.479 621.62 518.354 621.034C516.229 620.449 514.002 620.333 511.828 620.695L490.491 624.252C484.106 625.314 477.55 624.167 471.905 621.002C466.26 617.837 461.862 612.841 459.438 606.84C457.294 612.234 456.763 618.135 457.909 623.826C459.358 631.07 463.568 637.467 469.648 641.664C475.729 645.861 483.203 647.528 490.491 646.314L511.828 642.758C514.002 642.396 516.229 642.511 518.354 643.097C520.479 643.682 522.451 644.724 524.133 646.148C525.815 647.573 527.166 649.347 528.093 651.347C529.02 653.347 529.5 655.525 529.5 657.729C529.5 661.754 531.099 665.615 533.945 668.461C536.792 671.307 540.652 672.906 544.678 672.906H580.115C590.088 672.906 599.652 668.945 606.704 661.893L628.802 639.795C632.294 636.302 635.063 632.156 636.953 627.592C638.842 623.029 639.814 618.139 639.812 613.2V591.137C639.813 596.075 638.84 600.965 636.95 605.527C635.061 610.09 632.291 614.235 628.799 617.727L606.701 639.831Z" fill="#B6C4C6"/>
<path d="M639.812 562.594V584.656C648.59 584.656 657.007 581.17 663.213 574.963C669.42 568.757 672.906 560.34 672.906 551.562C672.908 547.805 672.269 544.074 671.016 540.531C668.733 546.983 664.507 552.569 658.919 556.52C653.331 560.471 646.656 562.593 639.812 562.594V562.594Z" fill="#B6C4C6"/>
<path d="M33.0938 557.078V579.141C33.0938 583.529 34.8371 587.738 37.9402 590.841C41.0434 593.944 45.2521 595.688 49.6406 595.688H60.6719C65.0604 595.688 69.2691 597.431 72.3723 600.534C75.4754 603.637 77.2188 607.846 77.2188 612.234V625.797C77.2188 635.366 81.0198 644.542 87.7857 651.308C94.5515 658.074 103.728 661.875 113.296 661.875H159.953C164.342 661.875 168.55 660.132 171.654 657.029C174.757 653.925 176.5 649.717 176.5 645.328C176.5 640.94 178.243 636.731 181.346 633.628C184.45 630.525 188.658 628.781 193.047 628.781H226.141C230.529 628.781 234.738 627.038 237.841 623.935C240.944 620.832 242.688 616.623 242.688 612.234V579.141C242.688 574.752 240.944 570.543 237.841 567.44C234.738 564.337 230.529 562.594 226.141 562.594H215.109C210.721 562.594 206.512 560.85 203.409 557.747C200.306 554.644 198.562 550.435 198.562 546.047C198.562 541.658 196.819 537.45 193.716 534.346C190.613 531.243 186.404 529.5 182.016 529.5H170.984C166.596 529.5 162.387 527.757 159.284 524.654C156.181 521.55 154.438 517.342 154.438 512.953C154.438 505.639 151.532 498.624 146.36 493.452C141.188 488.281 134.174 485.375 126.859 485.375H104.797C94.557 485.375 84.7366 489.443 77.4959 496.683C70.2553 503.924 66.1875 513.745 66.1875 523.984C66.1875 528.373 64.4442 532.582 61.341 535.685C58.2379 538.788 54.0291 540.531 49.6406 540.531C45.2521 540.531 41.0434 542.275 37.9402 545.378C34.8371 548.481 33.0938 552.69 33.0938 557.078Z" fill="#D1DEE0"/>
<path d="M226.141 606.719H193.047C188.658 606.719 184.45 608.462 181.346 611.565C178.243 614.668 176.5 618.877 176.5 623.266C176.5 627.654 174.757 631.863 171.654 634.966C168.55 638.069 164.342 639.812 159.953 639.812H113.296C103.728 639.812 94.5515 636.011 87.7857 629.246C81.0198 622.48 77.2188 613.303 77.2188 603.735V590.172C77.2188 585.783 75.4754 581.575 72.3723 578.471C69.2691 575.368 65.0604 573.625 60.6719 573.625H49.6406C45.2521 573.625 41.0434 571.882 37.9402 568.779C34.8371 565.675 33.0938 561.467 33.0938 557.078V579.141C33.0938 583.529 34.8371 587.738 37.9402 590.841C41.0434 593.944 45.2521 595.688 49.6406 595.688H60.6719C65.0604 595.688 69.2691 597.431 72.3723 600.534C75.4754 603.637 77.2188 607.846 77.2188 612.234V625.797C77.2188 635.366 81.0198 644.542 87.7857 651.308C94.5515 658.074 103.728 661.875 113.296 661.875H159.953C164.342 661.875 168.55 660.132 171.654 657.029C174.757 653.925 176.5 649.717 176.5 645.328C176.5 640.94 178.243 636.731 181.346 633.628C184.45 630.525 188.658 628.781 193.047 628.781H226.141C230.529 628.781 234.738 627.038 237.841 623.935C240.944 620.832 242.688 616.623 242.688 612.234V590.172C242.688 594.56 240.944 598.769 237.841 601.872C234.738 604.975 230.529 606.719 226.141 606.719Z" fill="#B6C4C6"/>
<path d="M95.4093 198.562H59.0282C44.705 198.562 33.0938 210.174 33.0938 224.497V238.816C33.0938 253.139 44.705 264.75 59.0282 264.75H95.4093C109.732 264.75 121.344 253.139 121.344 238.816V224.497C121.344 210.174 109.732 198.562 95.4093 198.562Z" fill="#D1DEE0"/>
<path d="M651.932 375.062H605.631C594.047 375.062 584.656 384.453 584.656 396.037V409.244C584.656 420.828 594.047 430.219 605.631 430.219H651.932C663.516 430.219 672.906 420.828 672.906 409.244V396.037C672.906 384.453 663.516 375.062 651.932 375.062Z" fill="#D1DEE0"/>
<path d="M66.1875 100.58V107.094C66.1877 111.498 67.1651 115.848 69.0493 119.829C70.9336 123.81 73.6777 127.323 77.0838 130.115C80.4899 132.907 84.4731 134.909 88.7463 135.976C93.0195 137.043 97.4762 137.148 101.795 136.284C107.58 135.128 113.579 135.716 119.029 137.975C124.479 140.233 129.135 144.061 132.407 148.97L150.244 175.721C154.392 181.945 160.731 186.379 167.999 188.142C175.267 189.905 182.933 188.867 189.471 185.235L264.75 143.406L272.862 139.351C277.167 137.198 280.885 134.034 283.699 130.129C286.513 126.224 288.338 121.696 289.019 116.931L294.81 76.3914C295.694 70.2061 294.61 63.8995 291.71 58.365C288.81 52.8305 284.242 48.3488 278.654 45.5549L260.005 36.2308C255.869 34.1648 251.309 33.0908 246.686 33.0938H133.674C125.779 33.0941 118.208 36.2303 112.625 41.8126L74.9063 79.5312C69.324 85.1139 66.1878 92.6853 66.1875 100.58V100.58Z" fill="#D1DEE0"/>
<path d="M289.019 94.8688C288.338 99.633 286.513 104.161 283.699 108.065C280.885 111.969 277.166 115.133 272.862 117.286L264.75 121.344L189.462 163.167C182.923 166.799 175.258 167.837 167.989 166.074C160.721 164.311 154.382 159.877 150.235 153.653L132.403 126.901C129.131 121.991 124.475 118.164 119.025 115.906C113.574 113.647 107.576 113.058 101.791 114.215C94.3994 115.69 86.7237 114.308 80.3111 110.347C73.8985 106.386 69.226 100.142 67.2355 92.8722C66.5498 95.3845 66.1975 97.9761 66.1875 100.58V107.094C66.1877 111.499 67.1651 115.848 69.0493 119.829C70.9336 123.81 73.6777 127.323 77.0838 130.115C80.4899 132.908 84.4731 134.909 88.7463 135.976C93.0195 137.043 97.4762 137.148 101.795 136.284C107.58 135.128 113.579 135.716 119.029 137.975C124.479 140.234 129.135 144.061 132.407 148.97L150.244 175.721C154.392 181.945 160.731 186.379 167.999 188.142C175.267 189.905 182.933 188.867 189.471 185.235L264.75 143.406L272.862 139.351C277.167 137.198 280.885 134.034 283.699 130.129C286.513 126.225 288.338 121.696 289.019 116.931L294.81 76.3915C295.46 71.8397 295.044 67.1991 293.595 62.8354L289.019 94.8688Z" fill="#B6C4C6"/>
</svg>
