<svg width="706" height="706" viewBox="0 0 706 706" fill="none" xmlns="http://www.w3.org/2000/svg">
<path d="M353 578C477.264 578 578 477.264 578 353C578 228.736 477.264 128 353 128C228.736 128 128 228.736 128 353C128 477.264 228.736 578 353 578Z" fill="#545BFE"/>
<mask id="mask0" mask-type="alpha" maskUnits="userSpaceOnUse" x="128" y="128" width="450" height="450">
<path d="M353 578C477.264 578 578 477.264 578 353C578 228.736 477.264 128 353 128C228.736 128 128 228.736 128 353C128 477.264 228.736 578 353 578Z" fill="white"/>
</mask>
<g mask="url(#mask0)">
<path d="M262 479C268.627 479 274 473.627 274 467C274 460.373 268.627 455 262 455H243C236.373 455 231 449.627 231 443C231 436.373 236.373 431 243 431H241C247.627 431 253 425.627 253 419C253 412.373 247.627 407 241 407H231C224.373 407 219 401.627 219 395C219 388.373 224.373 383 231 383C237.627 383 243 377.627 243 371C243 364.373 237.627 359 231 359C224.373 359 219 353.627 219 347C219 340.373 224.373 335 231 335H280C286.627 335 292 340.373 292 347C292 353.627 286.627 359 280 359H282V359.01C275.605 359.273 270.5 364.54 270.5 371C270.5 377.46 275.605 382.727 282 382.99V383H333C339.627 383 345 388.373 345 395C345 401.627 339.627 407 333 407H327V407.01C320.605 407.272 315.5 412.54 315.5 419C315.5 425.46 320.605 430.728 327 430.99V431C333.627 431 339 436.373 339 443C339 449.627 333.627 455 327 455H300V455.01C293.605 455.272 288.5 460.54 288.5 467C288.5 473.46 293.605 478.728 300 478.99V479H296C302.627 479 308 484.373 308 491C308 497.627 302.627 503 296 503H267C260.373 503 255 497.627 255 491C255 484.373 260.373 479 267 479H262ZM177 311C183.627 311 189 316.373 189 323C189 329.627 183.627 335 177 335H142C135.373 335 130 329.627 130 323C130 316.373 135.373 311 142 311H177ZM226 287C232.627 287 238 292.373 238 299C238 305.627 232.627 311 226 311C219.373 311 214 305.627 214 299C214 292.373 219.373 287 226 287ZM304 143C310.627 143 316 148.373 316 155C316 161.627 310.627 167 304 167H303V167.01C296.605 167.273 291.5 172.54 291.5 179C291.5 185.46 296.605 190.727 303 190.99V191H310C316.627 191 322 196.373 322 203C322 209.627 316.627 215 310 215H241V215.01C234.605 215.273 229.5 220.54 229.5 227C229.5 233.46 234.605 238.728 241 238.99V239H246C252.627 239 258 244.373 258 251C258 257.627 252.627 263 246 263H127C120.373 263 115 257.627 115 251C115 244.373 120.373 239 127 239H137C143.627 239 149 233.627 149 227C149 220.373 143.627 215 137 215H141C134.373 215 129 209.627 129 203C129 196.373 134.373 191 141 191H147C153.627 191 159 185.627 159 179C159 172.373 153.627 167 147 167H99C92.373 167 87 161.627 87 155C87 148.373 92.373 143 99 143H304Z" fill="#4FCDF9"/>
</g>
<mask id="mask1" mask-type="alpha" maskUnits="userSpaceOnUse" x="128" y="128" width="450" height="450">
<path d="M353 578C477.264 578 578 477.264 578 353C578 228.736 477.264 128 353 128C228.736 128 128 228.736 128 353C128 477.264 228.736 578 353 578Z" fill="white"/>
</mask>
<g mask="url(#mask1)">
<path d="M518 455C524.627 455 530 449.627 530 443C530 436.373 524.627 431 518 431C511.373 431 506 425.627 506 419C506 412.373 511.373 407 518 407H515C521.627 407 527 401.627 527 395C527 388.373 521.627 383 515 383H470C463.373 383 458 377.627 458 371C458 364.373 463.373 359 470 359C476.627 359 482 353.627 482 347C482 340.373 476.627 335 470 335H436C429.373 335 424 329.627 424 323C424 316.373 429.373 311 436 311H462C468.627 311 474 305.627 474 299C474 292.373 468.627 287 462 287C455.373 287 450 281.627 450 275C450 268.373 455.373 263 462 263H518C524.627 263 530 268.373 530 275C530 281.627 524.627 287 518 287L517.999 287.01C511.604 287.273 506.5 292.54 506.5 299C506.5 305.46 511.604 310.727 517.999 310.99L518 311H609C615.627 311 621 316.373 621 323C621 329.627 615.627 335 609 335H589V335.01C582.605 335.273 577.5 340.54 577.5 347C577.5 353.46 582.605 358.727 589 358.99V359H599C605.627 359 611 364.373 611 371C611 377.627 605.627 383 599 383H584L583.999 383.01C577.604 383.273 572.5 388.54 572.5 395C572.5 401.46 577.604 406.727 583.999 406.99L584 407H582C588.627 407 594 412.373 594 419C594 425.627 588.627 431 582 431H562V431.01C555.605 431.272 550.5 436.54 550.5 443C550.5 449.46 555.605 454.728 562 454.99V455H558C564.627 455 570 460.373 570 467C570 473.627 564.627 479 558 479H522C515.373 479 510 473.627 510 467C510 460.373 515.373 455 522 455H518ZM608 431C614.627 431 620 436.373 620 443C620 449.627 614.627 455 608 455C601.373 455 596 449.627 596 443C596 436.373 601.373 431 608 431ZM590 263C596.627 263 602 268.373 602 275C602 281.627 596.627 287 590 287H576C569.373 287 564 281.627 564 275C564 268.373 569.373 263 576 263H590ZM788 191C794.627 191 800 196.373 800 203C800 209.627 794.627 215 788 215H781V215.01C774.605 215.273 769.5 220.54 769.5 227C769.5 233.46 774.605 238.728 781 238.99V239H797C803.627 239 809 244.373 809 251C809 257.627 803.627 263 797 263H623C616.373 263 611 257.627 611 251C611 244.373 616.373 239 623 239H618C624.627 239 630 233.627 630 227C630 220.373 624.627 215 618 215H577C570.373 215 565 209.627 565 203C565 196.373 570.373 191 577 191H788ZM487 215C493.627 215 499 220.373 499 227C499 233.627 493.627 239 487 239H463C456.373 239 451 233.627 451 227C451 220.373 456.373 215 463 215H487ZM525 215C531.627 215 537 220.373 537 227C537 233.627 531.627 239 525 239H522C515.373 239 510 233.627 510 227C510 220.373 515.373 215 522 215H525ZM538 167C544.627 167 550 172.373 550 179C550 185.627 544.627 191 538 191H514C507.373 191 502 185.627 502 179C502 172.373 507.373 167 514 167H538Z" fill="#4FCDF9"/>
</g>
<mask id="mask2" mask-type="alpha" maskUnits="userSpaceOnUse" x="128" y="128" width="450" height="450">
<path d="M353 578C477.264 578 578 477.264 578 353C578 228.736 477.264 128 353 128C228.736 128 128 228.736 128 353C128 477.264 228.736 578 353 578Z" fill="white"/>
</mask>
<g mask="url(#mask2)">
<path d="M541 239C547.627 239 553 244.373 553 251C553 257.627 547.627 263 541 263H479C472.373 263 467 257.627 467 251C467 244.373 472.373 239 479 239H541ZM435 179C435 172.373 429.627 167 423 167H303C296.373 167 291 161.627 291 155C291 148.373 296.373 143 303 143H352C358.627 143 364 137.627 364 131C364 124.373 358.627 119 352 119H336C329.373 119 324 113.627 324 107C324 100.373 329.373 95 336 95H398C404.627 95 410 100.373 410 107C410 113.627 404.627 119 398 119H400V119.01C393.605 119.272 388.5 124.54 388.5 131C388.5 137.46 393.605 142.728 400 142.99V143H560C566.627 143 572 148.373 572 155C572 161.627 566.627 167 560 167H492L491.999 167.01C485.604 167.273 480.5 172.54 480.5 179C480.5 185.46 485.604 190.727 492 190.99V191H495C501.627 191 507 196.373 507 203C507 209.627 501.627 215 495 215H419C412.373 215 407 209.627 407 203C407 196.373 412.373 191 419 191H423C429.627 191 435 185.627 435 179ZM563 191C569.627 191 575 196.373 575 203C575 209.627 569.627 215 563 215H543C536.373 215 531 209.627 531 203C531 196.373 536.373 191 543 191H563ZM371 191C377.627 191 383 196.373 383 203C383 209.627 377.627 215 371 215H351C344.373 215 339 209.627 339 203C339 196.373 344.373 191 351 191H371ZM602 95C608.627 95 614 100.373 614 107C614 113.627 608.627 119 602 119H446C439.373 119 434 113.627 434 107C434 100.373 439.373 95 446 95H602Z" fill="white"/>
</g>
<mask id="mask3" mask-type="alpha" maskUnits="userSpaceOnUse" x="128" y="128" width="450" height="450">
<path d="M353 578C477.264 578 578 477.264 578 353C578 228.736 477.264 128 353 128C228.736 128 128 228.736 128 353C128 477.264 228.736 578 353 578Z" fill="white"/>
</mask>
<g mask="url(#mask3)">
<path d="M225 491C225 484.373 219.627 479 213 479H145C138.373 479 133 473.627 133 467C133 460.373 138.373 455 145 455H246C252.627 455 258 449.627 258 443C258 436.373 252.627 431 246 431H223C216.373 431 211 425.627 211 419C211 412.373 216.373 407 223 407H341C347.627 407 353 412.373 353 419C353 425.627 347.627 431 341 431H294V431.01C287.605 431.272 282.5 436.54 282.5 443C282.5 449.46 287.605 454.728 294 454.99V455H308C314.627 455 320 460.373 320 467C320 473.627 314.627 479 308 479H282L281.999 479.01C275.604 479.273 270.5 484.54 270.5 491C270.5 497.46 275.604 502.727 281.999 502.99L282 503H285C291.627 503 297 508.373 297 515C297 521.627 291.627 527 285 527H209C202.373 527 197 521.627 197 515C197 508.373 202.373 503 209 503H213C219.627 503 225 497.627 225 491ZM376 455C382.627 455 388 460.373 388 467C388 473.627 382.627 479 376 479H356C349.373 479 344 473.627 344 467C344 460.373 349.373 455 356 455H376Z" fill="white"/>
</g>
<mask id="mask4" mask-type="alpha" maskUnits="userSpaceOnUse" x="128" y="128" width="450" height="450">
<path d="M353 578C477.264 578 578 477.264 578 353C578 228.736 477.264 128 353 128C228.736 128 128 228.736 128 353C128 477.264 228.736 578 353 578Z" fill="white"/>
</mask>
<g mask="url(#mask4)">
<path d="M477 587C477 580.373 471.627 575 465 575H397C390.373 575 385 569.627 385 563C385 556.373 390.373 551 397 551H498C504.627 551 510 545.627 510 539C510 532.373 504.627 527 498 527H475C468.373 527 463 521.627 463 515C463 508.373 468.373 503 475 503H593C599.627 503 605 508.373 605 515C605 521.627 599.627 527 593 527H546V527.01C539.605 527.272 534.5 532.54 534.5 539C534.5 545.46 539.605 550.728 546 550.99V551H560C566.627 551 572 556.373 572 563C572 569.627 566.627 575 560 575H534L533.999 575.01C527.604 575.273 522.5 580.54 522.5 587C522.5 593.46 527.604 598.727 533.999 598.99L534 599H537C543.627 599 549 604.373 549 611C549 617.627 543.627 623 537 623H461C454.373 623 449 617.627 449 611C449 604.373 454.373 599 461 599H465C471.627 599 477 593.627 477 587ZM628 551C634.627 551 640 556.373 640 563C640 569.627 634.627 575 628 575H608C601.373 575 596 569.627 596 563C596 556.373 601.373 551 608 551H628Z" fill="white"/>
</g>
<mask id="mask5" mask-type="alpha" maskUnits="userSpaceOnUse" x="128" y="128" width="450" height="450">
<path d="M353 578C477.264 578 578 477.264 578 353C578 228.736 477.264 128 353 128C228.736 128 128 228.736 128 353C128 477.264 228.736 578 353 578Z" fill="white"/>
</mask>
<g mask="url(#mask5)">
<path opacity="0.078" d="M353.484 103H603.968V603H353.484V103Z" fill="black"/>
</g>
<path d="M522.294 55.7478L441.266 126.646C438.054 129.458 435.65 133.075 434.3 137.125L426.562 160.341C425.747 162.788 424.542 165.089 422.993 167.152L402.428 194.564C399.449 198.536 397.775 203.335 397.637 208.299C397.5 213.263 398.905 218.148 401.659 222.28L432.066 267.892C434.859 272.081 438.898 275.286 443.612 277.054L513.098 303.115C516.661 304.452 520.492 304.921 524.273 304.486C528.053 304.051 531.677 302.722 534.843 300.611L542.449 295.541C546.831 292.62 550.131 288.339 551.84 283.357C553.549 278.376 553.572 272.971 551.907 267.975L542.958 241.129C540.993 235.236 541.389 228.81 544.064 223.202C546.738 217.594 551.482 213.242 557.299 211.059L612.375 190.406C615.939 189.07 619.769 188.6 623.55 189.036C627.331 189.471 630.954 190.799 634.12 192.91L634.356 193.068C637.188 194.955 640.39 196.219 643.748 196.776C647.106 197.332 650.544 197.168 653.834 196.294C657.124 195.421 660.19 193.857 662.83 191.708C665.47 189.559 667.622 186.873 669.145 183.829L681.397 159.322C683.853 154.408 684.55 148.8 683.37 143.435C682.191 138.07 679.207 133.271 674.917 129.841L650.078 109.968C645.788 106.537 642.804 101.738 641.625 96.3732C640.446 91.008 641.142 85.4006 643.598 80.4867C645.205 77.2717 646.07 73.7367 646.129 70.1426C646.188 66.5486 645.439 62.9871 643.938 59.7212C642.436 56.4553 640.22 53.5682 637.454 51.2731C634.687 48.978 631.441 47.3335 627.954 46.4608L577.348 33.8107C571.792 32.4232 565.923 33.0678 560.801 35.6281L527.367 52.3419C525.537 53.2559 523.832 54.4006 522.294 55.7478V55.7478Z" fill="#D1DEE0"/>
<path d="M681.402 141.491L669.147 165.997C667.625 169.042 665.473 171.728 662.834 173.877C660.194 176.026 657.128 177.59 653.838 178.464C650.548 179.337 647.11 179.501 643.752 178.945C640.394 178.388 637.192 177.124 634.36 175.236L634.125 175.078C630.958 172.967 627.335 171.639 623.554 171.204C619.773 170.769 615.943 171.239 612.379 172.576L557.304 193.229C551.488 195.411 546.744 199.764 544.07 205.371C541.396 210.978 540.999 217.404 542.964 223.297L543.437 224.715C544.664 221.595 546.533 218.767 548.923 216.415C551.313 214.064 554.17 212.24 557.31 211.064L612.385 190.41C615.948 189.074 619.778 188.604 623.559 189.039C627.34 189.475 630.963 190.802 634.13 192.913L634.366 193.07C637.198 194.958 640.399 196.223 643.757 196.779C647.115 197.335 650.553 197.171 653.843 196.298C657.133 195.424 660.199 193.861 662.839 191.711C665.478 189.562 667.631 186.876 669.153 183.832L681.407 159.324C682.924 156.291 683.781 152.971 683.922 149.583C684.062 146.194 683.482 142.815 682.221 139.667C681.97 140.283 681.701 140.891 681.402 141.491Z" fill="#B6C4C6"/>
<path d="M551.436 266.566C549.647 271.11 546.511 274.999 542.449 277.71L534.843 282.781C531.677 284.892 528.053 286.22 524.272 286.655C520.492 287.09 516.661 286.62 513.098 285.283L443.612 259.222C438.898 257.455 434.859 254.25 432.066 250.061L401.659 204.448C400.742 203.066 399.971 201.592 399.36 200.05C397.91 203.665 397.361 207.578 397.762 211.452C398.162 215.326 399.5 219.044 401.659 222.285L432.066 267.898C434.859 272.087 438.898 275.292 443.612 277.06L513.098 303.121C516.662 304.457 520.492 304.927 524.273 304.492C528.054 304.056 531.677 302.728 534.843 300.617L542.449 295.547C546.831 292.625 550.131 288.344 551.84 283.363C553.549 278.382 553.572 272.977 551.907 267.981L551.436 266.566Z" fill="#B6C4C6"/>
<path d="M227.504 357.917L258.443 330.415C261.83 327.405 266.119 325.601 270.639 325.287C275.16 324.974 279.657 326.167 283.427 328.68L307.437 344.688C311.056 347.101 315.348 348.299 319.694 348.111C324.039 347.922 328.211 346.356 331.608 343.639L367.605 314.842C369.941 312.973 372.657 311.638 375.563 310.931C378.469 310.223 381.495 310.161 384.428 310.748L428.375 319.537C429.603 319.783 430.805 320.14 431.967 320.605L433.08 321.049C447.421 326.787 459.124 337.641 465.924 351.509C472.725 365.377 474.141 381.275 469.897 396.127C465.656 410.971 456.062 423.716 442.971 431.898L413.038 450.606C388.219 466.118 359.541 474.343 330.274 474.344H230.53C218.596 474.344 207.062 470.039 198.046 462.22C189.031 454.401 183.138 443.592 181.45 431.778L179.842 420.518C179.427 417.611 179.641 414.649 180.47 411.833C181.299 409.016 182.724 406.41 184.647 404.192C186.571 401.973 188.949 400.194 191.621 398.975C194.292 397.756 197.194 397.125 200.13 397.125C202.822 397.125 205.487 396.595 207.973 395.565C210.46 394.536 212.719 393.026 214.623 391.123C216.526 389.22 218.035 386.96 219.065 384.474C220.095 381.987 220.625 379.322 220.625 376.63V373.234C220.625 370.34 221.238 367.479 222.423 364.839C223.609 362.199 225.341 359.84 227.504 357.917Z" fill="#D1DEE0"/>
<path d="M469.901 374.064C465.66 388.908 456.067 401.653 442.975 409.836L413.042 428.543C388.223 444.056 359.544 452.281 330.276 452.281H230.53C218.596 452.281 207.062 447.976 198.047 440.157C189.031 432.338 183.138 421.53 181.45 409.716L181.395 409.331C179.832 412.839 179.294 416.717 179.842 420.518L181.45 431.778C183.138 443.592 189.031 454.401 198.047 462.22C207.062 470.039 218.596 474.343 230.53 474.344H330.276C359.544 474.344 388.223 466.118 413.042 450.606L442.975 431.898C456.067 423.716 465.66 410.971 469.901 396.127C472.527 386.966 473.012 377.324 471.317 367.946C470.948 370.008 470.475 372.05 469.901 374.064V374.064Z" fill="#B6C4C6"/>
<path d="M527.607 487.268L520.362 494.513C516.264 498.61 513.014 503.475 510.796 508.828C508.579 514.182 507.437 519.92 507.438 525.715V551.562L501.631 568.984C500.03 573.787 497.243 578.108 493.528 581.548C489.813 584.988 485.291 587.435 480.379 588.663L480.12 588.728C472.617 590.604 466.125 595.296 461.989 601.831C457.853 608.366 456.392 616.242 457.909 623.825C459.358 631.07 463.568 637.467 469.648 641.664C475.729 645.861 483.203 647.528 490.491 646.314L511.828 642.758C514.002 642.396 516.229 642.511 518.354 643.097C520.479 643.682 522.451 644.724 524.133 646.148C525.815 647.573 527.166 649.347 528.093 651.347C529.02 653.347 529.5 655.524 529.5 657.729C529.5 661.754 531.099 665.614 533.945 668.461C536.792 671.307 540.652 672.906 544.678 672.906H580.116C585.054 672.906 589.943 671.934 594.506 670.044C599.068 668.154 603.213 665.385 606.705 661.893L628.803 639.795C632.295 636.302 635.064 632.155 636.953 627.592C638.842 623.029 639.814 618.138 639.813 613.2V584.656C648.59 584.656 657.007 581.17 663.213 574.963C669.42 568.757 672.906 560.34 672.906 551.562C672.906 542.785 669.42 534.368 663.213 528.162C657.007 521.955 648.59 518.469 639.813 518.469H617.75C617.75 506.766 613.101 495.543 604.826 487.268C596.551 478.993 585.328 474.344 573.625 474.344H558.809C553.014 474.344 547.276 475.485 541.922 477.703C536.569 479.92 531.704 483.171 527.607 487.268V487.268Z" fill="#D1DEE0"/>
<path d="M606.701 639.831C599.649 646.882 590.085 650.844 580.113 650.844H544.675C540.65 650.843 536.79 649.244 533.944 646.397C531.099 643.551 529.5 639.691 529.5 635.666C529.5 633.462 529.02 631.284 528.093 629.285C527.166 627.285 525.815 625.511 524.133 624.086C522.451 622.661 520.479 621.62 518.354 621.034C516.229 620.449 514.002 620.333 511.828 620.695L490.491 624.252C484.106 625.314 477.55 624.167 471.905 621.002C466.26 617.837 461.862 612.841 459.438 606.84C457.294 612.234 456.763 618.135 457.909 623.826C459.358 631.07 463.568 637.467 469.648 641.664C475.729 645.861 483.203 647.528 490.491 646.314L511.828 642.758C514.002 642.396 516.229 642.511 518.354 643.097C520.479 643.682 522.451 644.724 524.133 646.148C525.815 647.573 527.166 649.347 528.093 651.347C529.02 653.347 529.5 655.525 529.5 657.729C529.5 661.754 531.099 665.615 533.945 668.461C536.792 671.307 540.652 672.906 544.678 672.906H580.115C590.088 672.906 599.652 668.945 606.704 661.893L628.802 639.795C632.294 636.302 635.063 632.156 636.953 627.592C638.842 623.029 639.814 618.139 639.812 613.2V591.137C639.813 596.075 638.84 600.965 636.95 605.527C635.061 610.09 632.291 614.235 628.799 617.727L606.701 639.831Z" fill="#B6C4C6"/>
<path d="M639.812 562.594V584.656C648.59 584.656 657.007 581.17 663.213 574.963C669.42 568.757 672.906 560.34 672.906 551.562C672.908 547.805 672.269 544.074 671.016 540.531C668.733 546.983 664.507 552.569 658.919 556.52C653.331 560.471 646.656 562.593 639.812 562.594V562.594Z" fill="#B6C4C6"/>
<path d="M33.0938 557.078V579.141C33.0938 583.529 34.8371 587.738 37.9402 590.841C41.0434 593.944 45.2521 595.688 49.6406 595.688H60.6719C65.0604 595.688 69.2691 597.431 72.3723 600.534C75.4754 603.637 77.2188 607.846 77.2188 612.234V625.797C77.2188 635.366 81.0198 644.542 87.7857 651.308C94.5515 658.074 103.728 661.875 113.296 661.875H159.953C164.342 661.875 168.55 660.132 171.654 657.029C174.757 653.925 176.5 649.717 176.5 645.328C176.5 640.94 178.243 636.731 181.346 633.628C184.45 630.525 188.658 628.781 193.047 628.781H226.141C230.529 628.781 234.738 627.038 237.841 623.935C240.944 620.832 242.688 616.623 242.688 612.234V579.141C242.688 574.752 240.944 570.543 237.841 567.44C234.738 564.337 230.529 562.594 226.141 562.594H215.109C210.721 562.594 206.512 560.85 203.409 557.747C200.306 554.644 198.562 550.435 198.562 546.047C198.562 541.658 196.819 537.45 193.716 534.346C190.613 531.243 186.404 529.5 182.016 529.5H170.984C166.596 529.5 162.387 527.757 159.284 524.654C156.181 521.55 154.438 517.342 154.438 512.953C154.438 505.639 151.532 498.624 146.36 493.452C141.188 488.281 134.174 485.375 126.859 485.375H104.797C94.557 485.375 84.7366 489.443 77.4959 496.683C70.2553 503.924 66.1875 513.745 66.1875 523.984C66.1875 528.373 64.4442 532.582 61.341 535.685C58.2379 538.788 54.0291 540.531 49.6406 540.531C45.2521 540.531 41.0434 542.275 37.9402 545.378C34.8371 548.481 33.0938 552.69 33.0938 557.078Z" fill="#D1DEE0"/>
<path d="M226.141 606.719H193.047C188.658 606.719 184.45 608.462 181.346 611.565C178.243 614.668 176.5 618.877 176.5 623.266C176.5 627.654 174.757 631.863 171.654 634.966C168.55 638.069 164.342 639.812 159.953 639.812H113.296C103.728 639.812 94.5515 636.011 87.7857 629.246C81.0198 622.48 77.2188 613.303 77.2188 603.735V590.172C77.2188 585.783 75.4754 581.575 72.3723 578.471C69.2691 575.368 65.0604 573.625 60.6719 573.625H49.6406C45.2521 573.625 41.0434 571.882 37.9402 568.779C34.8371 565.675 33.0938 561.467 33.0938 557.078V579.141C33.0938 583.529 34.8371 587.738 37.9402 590.841C41.0434 593.944 45.2521 595.688 49.6406 595.688H60.6719C65.0604 595.688 69.2691 597.431 72.3723 600.534C75.4754 603.637 77.2188 607.846 77.2188 612.234V625.797C77.2188 635.366 81.0198 644.542 87.7857 651.308C94.5515 658.074 103.728 661.875 113.296 661.875H159.953C164.342 661.875 168.55 660.132 171.654 657.029C174.757 653.925 176.5 649.717 176.5 645.328C176.5 640.94 178.243 636.731 181.346 633.628C184.45 630.525 188.658 628.781 193.047 628.781H226.141C230.529 628.781 234.738 627.038 237.841 623.935C240.944 620.832 242.688 616.623 242.688 612.234V590.172C242.688 594.56 240.944 598.769 237.841 601.872C234.738 604.975 230.529 606.719 226.141 606.719Z" fill="#B6C4C6"/>
<path d="M95.4093 198.562H59.0282C44.705 198.562 33.0938 210.174 33.0938 224.497V238.816C33.0938 253.139 44.705 264.75 59.0282 264.75H95.4093C109.732 264.75 121.344 253.139 121.344 238.816V224.497C121.344 210.174 109.732 198.562 95.4093 198.562Z" fill="#D1DEE0"/>
<path d="M651.932 375.062H605.631C594.047 375.062 584.656 384.453 584.656 396.037V409.244C584.656 420.828 594.047 430.219 605.631 430.219H651.932C663.516 430.219 672.906 420.828 672.906 409.244V396.037C672.906 384.453 663.516 375.062 651.932 375.062Z" fill="#D1DEE0"/>
<path d="M66.1875 100.58V107.094C66.1877 111.498 67.1651 115.848 69.0493 119.829C70.9336 123.81 73.6777 127.323 77.0838 130.115C80.4899 132.907 84.4731 134.909 88.7463 135.976C93.0195 137.043 97.4762 137.148 101.795 136.284C107.58 135.128 113.579 135.716 119.029 137.975C124.479 140.233 129.135 144.061 132.407 148.97L150.244 175.721C154.392 181.945 160.731 186.379 167.999 188.142C175.267 189.905 182.933 188.867 189.471 185.235L264.75 143.406L272.862 139.351C277.167 137.198 280.885 134.034 283.699 130.129C286.513 126.224 288.338 121.696 289.019 116.931L294.81 76.3914C295.694 70.2061 294.61 63.8995 291.71 58.365C288.81 52.8305 284.242 48.3488 278.654 45.5549L260.005 36.2308C255.869 34.1648 251.309 33.0908 246.686 33.0938H133.674C125.779 33.0941 118.208 36.2303 112.625 41.8126L74.9063 79.5312C69.324 85.1139 66.1878 92.6853 66.1875 100.58V100.58Z" fill="#D1DEE0"/>
<path d="M289.019 94.8687C288.338 99.6328 286.513 104.161 283.699 108.065C280.885 111.969 277.166 115.133 272.862 117.286L264.75 121.344L189.462 163.167C182.923 166.799 175.258 167.837 167.989 166.074C160.721 164.311 154.382 159.876 150.235 153.653L132.403 126.901C129.131 121.991 124.475 118.164 119.025 115.905C113.574 113.647 107.576 113.058 101.791 114.215C94.3994 115.69 86.7237 114.307 80.3111 110.347C73.8985 106.386 69.226 100.142 67.2355 92.872C66.5498 95.3844 66.1975 97.9759 66.1875 100.58V107.094C66.1877 111.498 67.1651 115.848 69.0493 119.829C70.9336 123.81 73.6777 127.323 77.0838 130.115C80.4899 132.907 84.4731 134.909 88.7463 135.976C93.0195 137.043 97.4762 137.148 101.795 136.284C107.58 135.128 113.579 135.716 119.029 137.975C124.479 140.233 129.135 144.06 132.407 148.97L150.244 175.721C154.392 181.944 160.731 186.379 167.999 188.142C175.267 189.905 182.933 188.867 189.471 185.235L264.75 143.406L272.862 139.351C277.167 137.198 280.885 134.034 283.699 130.129C286.513 126.224 288.338 121.696 289.019 116.931L294.81 76.3914C295.46 71.8396 295.044 67.199 293.595 62.8353L289.019 94.8687Z" fill="#B6C4C6"/>
</svg>
